M48
;DRILL file {KiCad 0.201506062246+5717~23~ubuntu15.04.1-product} date Mo 08 Jun 2015 14:41:26 CEST
;FORMAT={-:-/ absolute / metric / decimal}
FMAT,2
METRIC,TZ
T1C1.016
%
G90
G05
M71
T1
X5.08Y48.26
X5.08Y45.72
X5.08Y43.18
X5.08Y40.64
X5.08Y38.1
X5.08Y35.56
X5.08Y33.02
X5.08Y30.48
X5.08Y27.94
X5.08Y25.4
X5.08Y22.86
X5.08Y20.32
X5.08Y17.78
X5.08Y15.24
X5.08Y12.7
X5.08Y10.16
X5.08Y7.62
X7.62Y48.26
X7.62Y45.72
X7.62Y43.18
X7.62Y40.64
X7.62Y38.1
X7.62Y35.56
X7.62Y33.02
X7.62Y30.48
X7.62Y27.94
X7.62Y25.4
X7.62Y22.86
X7.62Y20.32
X7.62Y17.78
X7.62Y15.24
X7.62Y12.7
X7.62Y10.16
X7.62Y7.62
X10.16Y48.26
X10.16Y45.72
X10.16Y43.18
X10.16Y40.64
X10.16Y38.1
X10.16Y35.56
X10.16Y33.02
X10.16Y30.48
X10.16Y27.94
X10.16Y25.4
X10.16Y22.86
X10.16Y20.32
X10.16Y17.78
X10.16Y15.24
X10.16Y12.7
X10.16Y10.16
X10.16Y7.62
X12.7Y48.26
X12.7Y45.72
X12.7Y43.18
X12.7Y40.64
X12.7Y38.1
X12.7Y35.56
X12.7Y33.02
X12.7Y30.48
X12.7Y27.94
X12.7Y25.4
X12.7Y22.86
X12.7Y20.32
X12.7Y17.78
X12.7Y15.24
X12.7Y12.7
X12.7Y10.16
X12.7Y7.62
X15.24Y48.26
X15.24Y45.72
X15.24Y43.18
X15.24Y40.64
X15.24Y38.1
X15.24Y35.56
X15.24Y33.02
X15.24Y30.48
X15.24Y27.94
X15.24Y25.4
X15.24Y22.86
X15.24Y20.32
X15.24Y17.78
X15.24Y15.24
X15.24Y12.7
X15.24Y10.16
X15.24Y7.62
X17.78Y48.26
X17.78Y45.72
X17.78Y43.18
X17.78Y40.64
X17.78Y38.1
X17.78Y35.56
X17.78Y33.02
X17.78Y30.48
X17.78Y27.94
X17.78Y25.4
X17.78Y22.86
X17.78Y20.32
X17.78Y17.78
X17.78Y15.24
X17.78Y12.7
X17.78Y10.16
X17.78Y7.62
X20.32Y52.07
X20.32Y48.26
X20.32Y45.72
X20.32Y43.18
X20.32Y40.64
X20.32Y38.1
X20.32Y35.56
X20.32Y33.02
X20.32Y30.48
X20.32Y27.94
X20.32Y25.4
X20.32Y22.86
X20.32Y20.32
X20.32Y17.78
X20.32Y15.24
X20.32Y12.7
X20.32Y10.16
X20.32Y7.62
X22.86Y52.07
X22.86Y48.26
X22.86Y45.72
X22.86Y43.18
X22.86Y40.64
X22.86Y38.1
X22.86Y35.56
X22.86Y33.02
X22.86Y30.48
X22.86Y27.94
X22.86Y25.4
X22.86Y22.86
X22.86Y20.32
X22.86Y17.78
X22.86Y15.24
X22.86Y12.7
X22.86Y10.16
X22.86Y7.62
X25.4Y52.07
X25.4Y48.26
X25.4Y45.72
X25.4Y43.18
X25.4Y40.64
X25.4Y38.1
X25.4Y35.56
X25.4Y33.02
X25.4Y30.48
X25.4Y27.94
X25.4Y25.4
X25.4Y22.86
X25.4Y20.32
X25.4Y17.78
X25.4Y15.24
X25.4Y12.7
X25.4Y10.16
X25.4Y7.62
X27.94Y52.07
X27.94Y48.26
X27.94Y45.72
X27.94Y43.18
X27.94Y40.64
X27.94Y38.1
X27.94Y35.56
X27.94Y33.02
X27.94Y30.48
X27.94Y27.94
X27.94Y25.4
X27.94Y22.86
X27.94Y20.32
X27.94Y17.78
X27.94Y15.24
X27.94Y12.7
X27.94Y10.16
X27.94Y7.62
X29.464Y3.81
X30.48Y52.07
X30.48Y48.26
X30.48Y45.72
X30.48Y43.18
X30.48Y40.64
X30.48Y38.1
X30.48Y35.56
X30.48Y33.02
X30.48Y30.48
X30.48Y27.94
X30.48Y25.4
X30.48Y22.86
X30.48Y20.32
X30.48Y17.78
X30.48Y15.24
X30.48Y12.7
X30.48Y10.16
X30.48Y7.62
X32.004Y3.81
X33.02Y52.07
X33.02Y48.26
X33.02Y45.72
X33.02Y43.18
X33.02Y40.64
X33.02Y38.1
X33.02Y35.56
X33.02Y33.02
X33.02Y30.48
X33.02Y27.94
X33.02Y25.4
X33.02Y22.86
X33.02Y20.32
X33.02Y17.78
X33.02Y15.24
X33.02Y12.7
X33.02Y10.16
X33.02Y7.62
X34.544Y3.81
X35.56Y52.07
X35.56Y48.26
X35.56Y45.72
X35.56Y43.18
X35.56Y40.64
X35.56Y38.1
X35.56Y35.56
X35.56Y33.02
X35.56Y30.48
X35.56Y27.94
X35.56Y25.4
X35.56Y22.86
X35.56Y20.32
X35.56Y17.78
X35.56Y15.24
X35.56Y12.7
X35.56Y10.16
X35.56Y7.62
X37.084Y3.81
X38.1Y52.07
X38.1Y48.26
X38.1Y45.72
X38.1Y43.18
X38.1Y40.64
X38.1Y38.1
X38.1Y35.56
X38.1Y33.02
X38.1Y30.48
X38.1Y27.94
X38.1Y25.4
X38.1Y22.86
X38.1Y20.32
X38.1Y17.78
X38.1Y15.24
X38.1Y12.7
X38.1Y10.16
X38.1Y7.62
X39.624Y3.81
X40.64Y52.07
X40.64Y48.26
X40.64Y45.72
X40.64Y43.18
X40.64Y40.64
X40.64Y38.1
X40.64Y35.56
X40.64Y33.02
X40.64Y30.48
X40.64Y27.94
X40.64Y25.4
X40.64Y22.86
X40.64Y20.32
X40.64Y17.78
X40.64Y15.24
X40.64Y12.7
X40.64Y10.16
X40.64Y7.62
X42.164Y3.81
X43.18Y52.07
X43.18Y48.26
X43.18Y45.72
X43.18Y43.18
X43.18Y40.64
X43.18Y38.1
X43.18Y35.56
X43.18Y33.02
X43.18Y30.48
X43.18Y27.94
X43.18Y25.4
X43.18Y22.86
X43.18Y20.32
X43.18Y17.78
X43.18Y15.24
X43.18Y12.7
X43.18Y10.16
X43.18Y7.62
X44.704Y3.81
X45.72Y48.26
X45.72Y45.72
X45.72Y43.18
X45.72Y40.64
X45.72Y38.1
X45.72Y35.56
X45.72Y33.02
X45.72Y30.48
X45.72Y27.94
X45.72Y25.4
X45.72Y22.86
X45.72Y20.32
X45.72Y17.78
X45.72Y15.24
X45.72Y12.7
X45.72Y10.16
X45.72Y7.62
X47.244Y52.07
X47.244Y3.81
X48.26Y48.26
X48.26Y45.72
X48.26Y43.18
X48.26Y40.64
X48.26Y38.1
X48.26Y35.56
X48.26Y33.02
X48.26Y30.48
X48.26Y27.94
X48.26Y25.4
X48.26Y22.86
X48.26Y20.32
X48.26Y17.78
X48.26Y15.24
X48.26Y12.7
X48.26Y10.16
X48.26Y7.62
X49.784Y52.07
X50.8Y48.26
X50.8Y45.72
X50.8Y43.18
X50.8Y40.64
X50.8Y38.1
X50.8Y35.56
X50.8Y33.02
X50.8Y30.48
X50.8Y27.94
X50.8Y25.4
X50.8Y22.86
X50.8Y20.32
X50.8Y17.78
X50.8Y15.24
X50.8Y12.7
X50.8Y10.16
X50.8Y7.62
X52.324Y52.07
X52.324Y3.81
X53.34Y48.26
X53.34Y45.72
X53.34Y43.18
X53.34Y40.64
X53.34Y38.1
X53.34Y35.56
X53.34Y33.02
X53.34Y30.48
X53.34Y27.94
X53.34Y25.4
X53.34Y22.86
X53.34Y20.32
X53.34Y17.78
X53.34Y15.24
X53.34Y12.7
X53.34Y10.16
X53.34Y7.62
X54.864Y52.07
X54.864Y3.81
X55.88Y48.26
X55.88Y45.72
X55.88Y43.18
X55.88Y40.64
X55.88Y38.1
X55.88Y35.56
X55.88Y33.02
X55.88Y30.48
X55.88Y27.94
X55.88Y25.4
X55.88Y22.86
X55.88Y20.32
X55.88Y17.78
X55.88Y15.24
X55.88Y12.7
X55.88Y10.16
X55.88Y7.62
X57.404Y52.07
X57.404Y3.81
X58.42Y48.26
X58.42Y45.72
X58.42Y43.18
X58.42Y40.64
X58.42Y38.1
X58.42Y35.56
X58.42Y33.02
X58.42Y30.48
X58.42Y27.94
X58.42Y25.4
X58.42Y22.86
X58.42Y20.32
X58.42Y17.78
X58.42Y15.24
X58.42Y12.7
X58.42Y10.16
X58.42Y7.62
X59.944Y52.07
X59.944Y3.81
X60.96Y48.26
X60.96Y45.72
X60.96Y43.18
X60.96Y40.64
X60.96Y38.1
X60.96Y35.56
X60.96Y33.02
X60.96Y30.48
X60.96Y27.94
X60.96Y25.4
X60.96Y22.86
X60.96Y20.32
X60.96Y17.78
X60.96Y15.24
X60.96Y12.7
X60.96Y10.16
X60.96Y7.62
X62.484Y52.07
X62.484Y3.81
X63.5Y48.26
X63.5Y45.72
X63.5Y43.18
X63.5Y40.64
X63.5Y38.1
X63.5Y35.56
X63.5Y22.86
X63.5Y20.32
X63.5Y17.78
X63.5Y15.24
X63.5Y12.7
X63.5Y10.16
X63.5Y7.62
X65.024Y52.07
X65.024Y31.75
X65.024Y29.21
X65.024Y26.67
X65.024Y3.81
X67.564Y31.75
X67.564Y29.21
X67.564Y26.67
T0
M30
