G04 #@! TF.FileFunction,Copper,L1,Top,Signal*
%FSLAX46Y46*%
G04 Gerber Fmt 4.6, Leading zero omitted, Abs format (unit mm)*
G04 Created by KiCad (PCBNEW 0.201506062246+5717~23~ubuntu15.04.1-product) date Mo 08 Jun 2015 14:41:22 CEST*
%MOMM*%
G01*
G04 APERTURE LIST*
%ADD10C,0.100000*%
%ADD11C,1.600000*%
%ADD12O,1.524000X2.540000*%
%ADD13C,1.524000*%
G04 APERTURE END LIST*
D10*
D11*
X63500000Y7620000D03*
X60960000Y7620000D03*
X58420000Y7620000D03*
X55880000Y7620000D03*
X53340000Y7620000D03*
X50800000Y7620000D03*
X48260000Y7620000D03*
X45720000Y7620000D03*
X43180000Y7620000D03*
X40640000Y7620000D03*
X38100000Y7620000D03*
X35560000Y7620000D03*
X33020000Y7620000D03*
X30480000Y7620000D03*
X27940000Y7620000D03*
X25400000Y7620000D03*
X22860000Y7620000D03*
X20320000Y7620000D03*
X17780000Y7620000D03*
X15240000Y7620000D03*
X12700000Y7620000D03*
X10160000Y7620000D03*
X7620000Y7620000D03*
X5080000Y7620000D03*
X63500000Y10160000D03*
X60960000Y10160000D03*
X58420000Y10160000D03*
X55880000Y10160000D03*
X53340000Y10160000D03*
X50800000Y10160000D03*
X48260000Y10160000D03*
X45720000Y10160000D03*
X43180000Y10160000D03*
X40640000Y10160000D03*
X38100000Y10160000D03*
X35560000Y10160000D03*
X33020000Y10160000D03*
X30480000Y10160000D03*
X27940000Y10160000D03*
X25400000Y10160000D03*
X22860000Y10160000D03*
X20320000Y10160000D03*
X17780000Y10160000D03*
X15240000Y10160000D03*
X12700000Y10160000D03*
X10160000Y10160000D03*
X7620000Y10160000D03*
X5080000Y10160000D03*
X63500000Y12700000D03*
X60960000Y12700000D03*
X58420000Y12700000D03*
X55880000Y12700000D03*
X53340000Y12700000D03*
X50800000Y12700000D03*
X48260000Y12700000D03*
X45720000Y12700000D03*
X43180000Y12700000D03*
X40640000Y12700000D03*
X38100000Y12700000D03*
X35560000Y12700000D03*
X33020000Y12700000D03*
X30480000Y12700000D03*
X27940000Y12700000D03*
X25400000Y12700000D03*
X22860000Y12700000D03*
X20320000Y12700000D03*
X17780000Y12700000D03*
X15240000Y12700000D03*
X12700000Y12700000D03*
X10160000Y12700000D03*
X7620000Y12700000D03*
X5080000Y12700000D03*
X63500000Y15240000D03*
X60960000Y15240000D03*
X58420000Y15240000D03*
X55880000Y15240000D03*
X53340000Y15240000D03*
X50800000Y15240000D03*
X48260000Y15240000D03*
X45720000Y15240000D03*
X43180000Y15240000D03*
X40640000Y15240000D03*
X38100000Y15240000D03*
X35560000Y15240000D03*
X33020000Y15240000D03*
X30480000Y15240000D03*
X27940000Y15240000D03*
X25400000Y15240000D03*
X22860000Y15240000D03*
X20320000Y15240000D03*
X17780000Y15240000D03*
X15240000Y15240000D03*
X12700000Y15240000D03*
X10160000Y15240000D03*
X7620000Y15240000D03*
X5080000Y15240000D03*
X63500000Y17780000D03*
X60960000Y17780000D03*
X58420000Y17780000D03*
X55880000Y17780000D03*
X53340000Y17780000D03*
X50800000Y17780000D03*
X48260000Y17780000D03*
X45720000Y17780000D03*
X43180000Y17780000D03*
X40640000Y17780000D03*
X38100000Y17780000D03*
X35560000Y17780000D03*
X33020000Y17780000D03*
X30480000Y17780000D03*
X27940000Y17780000D03*
X25400000Y17780000D03*
X22860000Y17780000D03*
X20320000Y17780000D03*
X17780000Y17780000D03*
X15240000Y17780000D03*
X12700000Y17780000D03*
X10160000Y17780000D03*
X7620000Y17780000D03*
X5080000Y17780000D03*
X63500000Y20320000D03*
X60960000Y20320000D03*
X58420000Y20320000D03*
X55880000Y20320000D03*
X53340000Y20320000D03*
X50800000Y20320000D03*
X48260000Y20320000D03*
X45720000Y20320000D03*
X43180000Y20320000D03*
X40640000Y20320000D03*
X38100000Y20320000D03*
X35560000Y20320000D03*
X33020000Y20320000D03*
X30480000Y20320000D03*
X27940000Y20320000D03*
X25400000Y20320000D03*
X22860000Y20320000D03*
X20320000Y20320000D03*
X17780000Y20320000D03*
X15240000Y20320000D03*
X12700000Y20320000D03*
X10160000Y20320000D03*
X7620000Y20320000D03*
X5080000Y20320000D03*
X63500000Y22860000D03*
X60960000Y22860000D03*
X58420000Y22860000D03*
X55880000Y22860000D03*
X53340000Y22860000D03*
X50800000Y22860000D03*
X48260000Y22860000D03*
X45720000Y22860000D03*
X43180000Y22860000D03*
X40640000Y22860000D03*
X38100000Y22860000D03*
X35560000Y22860000D03*
X33020000Y22860000D03*
X30480000Y22860000D03*
X27940000Y22860000D03*
X25400000Y22860000D03*
X22860000Y22860000D03*
X20320000Y22860000D03*
X17780000Y22860000D03*
X15240000Y22860000D03*
X12700000Y22860000D03*
X10160000Y22860000D03*
X7620000Y22860000D03*
X5080000Y22860000D03*
X60960000Y25400000D03*
X58420000Y25400000D03*
X55880000Y25400000D03*
X53340000Y25400000D03*
X50800000Y25400000D03*
X48260000Y25400000D03*
X45720000Y25400000D03*
X43180000Y25400000D03*
X40640000Y25400000D03*
X38100000Y25400000D03*
X35560000Y25400000D03*
X33020000Y25400000D03*
X30480000Y25400000D03*
X27940000Y25400000D03*
X25400000Y25400000D03*
X22860000Y25400000D03*
X20320000Y25400000D03*
X17780000Y25400000D03*
X15240000Y25400000D03*
X12700000Y25400000D03*
X10160000Y25400000D03*
X7620000Y25400000D03*
X5080000Y25400000D03*
X60960000Y27940000D03*
X58420000Y27940000D03*
X55880000Y27940000D03*
X53340000Y27940000D03*
X50800000Y27940000D03*
X48260000Y27940000D03*
X45720000Y27940000D03*
X43180000Y27940000D03*
X40640000Y27940000D03*
X38100000Y27940000D03*
X35560000Y27940000D03*
X33020000Y27940000D03*
X30480000Y27940000D03*
X27940000Y27940000D03*
X25400000Y27940000D03*
X22860000Y27940000D03*
X20320000Y27940000D03*
X17780000Y27940000D03*
X15240000Y27940000D03*
X12700000Y27940000D03*
X10160000Y27940000D03*
X7620000Y27940000D03*
X5080000Y27940000D03*
X60960000Y30480000D03*
X58420000Y30480000D03*
X55880000Y30480000D03*
X53340000Y30480000D03*
X50800000Y30480000D03*
X48260000Y30480000D03*
X45720000Y30480000D03*
X43180000Y30480000D03*
X40640000Y30480000D03*
X38100000Y30480000D03*
X35560000Y30480000D03*
X33020000Y30480000D03*
X30480000Y30480000D03*
X27940000Y30480000D03*
X25400000Y30480000D03*
X22860000Y30480000D03*
X20320000Y30480000D03*
X17780000Y30480000D03*
X15240000Y30480000D03*
X12700000Y30480000D03*
X10160000Y30480000D03*
X7620000Y30480000D03*
X5080000Y30480000D03*
X60960000Y33020000D03*
X58420000Y33020000D03*
X55880000Y33020000D03*
X53340000Y33020000D03*
X50800000Y33020000D03*
X48260000Y33020000D03*
X45720000Y33020000D03*
X43180000Y33020000D03*
X40640000Y33020000D03*
X38100000Y33020000D03*
X35560000Y33020000D03*
X33020000Y33020000D03*
X30480000Y33020000D03*
X27940000Y33020000D03*
X25400000Y33020000D03*
X22860000Y33020000D03*
X20320000Y33020000D03*
X17780000Y33020000D03*
X15240000Y33020000D03*
X12700000Y33020000D03*
X10160000Y33020000D03*
X7620000Y33020000D03*
X5080000Y33020000D03*
X63500000Y35560000D03*
X60960000Y35560000D03*
X58420000Y35560000D03*
X55880000Y35560000D03*
X53340000Y35560000D03*
X50800000Y35560000D03*
X48260000Y35560000D03*
X45720000Y35560000D03*
X43180000Y35560000D03*
X40640000Y35560000D03*
X38100000Y35560000D03*
X35560000Y35560000D03*
X33020000Y35560000D03*
X30480000Y35560000D03*
X27940000Y35560000D03*
X25400000Y35560000D03*
X22860000Y35560000D03*
X20320000Y35560000D03*
X17780000Y35560000D03*
X15240000Y35560000D03*
X12700000Y35560000D03*
X10160000Y35560000D03*
X7620000Y35560000D03*
X5080000Y35560000D03*
X63500000Y38100000D03*
X60960000Y38100000D03*
X58420000Y38100000D03*
X55880000Y38100000D03*
X53340000Y38100000D03*
X50800000Y38100000D03*
X48260000Y38100000D03*
X45720000Y38100000D03*
X43180000Y38100000D03*
X40640000Y38100000D03*
X38100000Y38100000D03*
X35560000Y38100000D03*
X33020000Y38100000D03*
X30480000Y38100000D03*
X27940000Y38100000D03*
X25400000Y38100000D03*
X22860000Y38100000D03*
X20320000Y38100000D03*
X17780000Y38100000D03*
X15240000Y38100000D03*
X12700000Y38100000D03*
X10160000Y38100000D03*
X7620000Y38100000D03*
X5080000Y38100000D03*
X63500000Y40640000D03*
X60960000Y40640000D03*
X58420000Y40640000D03*
X55880000Y40640000D03*
X53340000Y40640000D03*
X50800000Y40640000D03*
X48260000Y40640000D03*
X45720000Y40640000D03*
X43180000Y40640000D03*
X40640000Y40640000D03*
X38100000Y40640000D03*
X35560000Y40640000D03*
X33020000Y40640000D03*
X30480000Y40640000D03*
X27940000Y40640000D03*
X25400000Y40640000D03*
X22860000Y40640000D03*
X20320000Y40640000D03*
X17780000Y40640000D03*
X15240000Y40640000D03*
X12700000Y40640000D03*
X10160000Y40640000D03*
X7620000Y40640000D03*
X5080000Y40640000D03*
X63500000Y43180000D03*
X60960000Y43180000D03*
X58420000Y43180000D03*
X55880000Y43180000D03*
X53340000Y43180000D03*
X50800000Y43180000D03*
X48260000Y43180000D03*
X45720000Y43180000D03*
X43180000Y43180000D03*
X40640000Y43180000D03*
X38100000Y43180000D03*
X35560000Y43180000D03*
X33020000Y43180000D03*
X30480000Y43180000D03*
X27940000Y43180000D03*
X25400000Y43180000D03*
X22860000Y43180000D03*
X20320000Y43180000D03*
X17780000Y43180000D03*
X15240000Y43180000D03*
X12700000Y43180000D03*
X10160000Y43180000D03*
X7620000Y43180000D03*
X5080000Y43180000D03*
X63500000Y45720000D03*
X60960000Y45720000D03*
X58420000Y45720000D03*
X55880000Y45720000D03*
X53340000Y45720000D03*
X50800000Y45720000D03*
X48260000Y45720000D03*
X45720000Y45720000D03*
X43180000Y45720000D03*
X40640000Y45720000D03*
X38100000Y45720000D03*
X35560000Y45720000D03*
X33020000Y45720000D03*
X30480000Y45720000D03*
X27940000Y45720000D03*
X25400000Y45720000D03*
X22860000Y45720000D03*
X20320000Y45720000D03*
X17780000Y45720000D03*
X15240000Y45720000D03*
X12700000Y45720000D03*
X10160000Y45720000D03*
X7620000Y45720000D03*
X5080000Y45720000D03*
X63500000Y48260000D03*
X60960000Y48260000D03*
X58420000Y48260000D03*
X55880000Y48260000D03*
X53340000Y48260000D03*
X50800000Y48260000D03*
X48260000Y48260000D03*
X45720000Y48260000D03*
X43180000Y48260000D03*
X40640000Y48260000D03*
X38100000Y48260000D03*
X35560000Y48260000D03*
X33020000Y48260000D03*
X30480000Y48260000D03*
X27940000Y48260000D03*
X25400000Y48260000D03*
X22860000Y48260000D03*
X20320000Y48260000D03*
X17780000Y48260000D03*
X15240000Y48260000D03*
X12700000Y48260000D03*
X10160000Y48260000D03*
X7620000Y48260000D03*
X5080000Y48260000D03*
D12*
X65024000Y3810000D03*
X62484000Y3810000D03*
X59944000Y3810000D03*
X52324000Y3810000D03*
X54864000Y3810000D03*
X57404000Y3810000D03*
X47244000Y3810000D03*
X44704000Y3810000D03*
X42164000Y3810000D03*
X37084000Y3810000D03*
X34544000Y3810000D03*
X65024000Y52070000D03*
X62484000Y52070000D03*
X59944000Y52070000D03*
X57404000Y52070000D03*
X54864000Y52070000D03*
X52324000Y52070000D03*
X49784000Y52070000D03*
X47244000Y52070000D03*
X43180000Y52070000D03*
X40640000Y52070000D03*
X38100000Y52070000D03*
X35560000Y52070000D03*
X33020000Y52070000D03*
X30480000Y52070000D03*
X27940000Y52070000D03*
X25400000Y52070000D03*
X39624000Y3810000D03*
X22860000Y52070000D03*
X20320000Y52070000D03*
X32004000Y3810000D03*
X29464000Y3810000D03*
D13*
X65024000Y31750000D03*
X67564000Y31750000D03*
X65024000Y29210000D03*
X67564000Y29210000D03*
X65024000Y26670000D03*
X67564000Y26670000D03*
M02*
