
M48
FMAT,2
METRIC,TZ

T1C1.016000

%
G90
G05
M71

T1
X24.130000Y35.560000
X24.130000Y38.100000
X24.130000Y40.640000
X24.130000Y43.180000
X24.130000Y45.720000
X24.130000Y48.260000
X21.590000Y48.260000
X21.590000Y45.720000
X21.590000Y43.180000
X21.590000Y40.640000
X21.590000Y38.100000
X21.590000Y35.560000
X19.050000Y35.560000
X19.050000Y38.100000
X19.050000Y40.640000
X19.050000Y43.180000
X19.050000Y45.720000
X16.510000Y43.180000
X16.510000Y40.640000
X16.510000Y38.100000
X16.510000Y35.560000
X16.510000Y33.020000
X19.050000Y33.020000
X21.590000Y33.020000
X24.130000Y33.020000
X24.130000Y30.480000
X21.590000Y30.480000
X19.050000Y30.480000
X16.510000Y30.480000
X16.510000Y27.940000
X19.050000Y27.940000
X21.590000Y27.940000
X24.130000Y27.940000
X24.130000Y25.400000
X24.130000Y22.860000
X24.130000Y20.320000
X21.590000Y25.400000
X21.590000Y22.860000
X21.590000Y20.320000
X19.050000Y20.320000
X19.050000Y22.860000
X19.050000Y25.400000
X16.510000Y25.400000
X16.510000Y22.860000
X16.510000Y20.320000
X13.970000Y20.320000
X13.970000Y17.780000
X13.970000Y15.240000
X16.510000Y17.780000
X19.050000Y17.780000
X21.590000Y17.780000
X24.130000Y17.780000
X24.130000Y15.240000
X21.590000Y15.240000
X19.050000Y15.240000
X16.510000Y15.240000
X16.510000Y12.700000
X19.050000Y12.700000
X21.590000Y12.700000
X24.130000Y12.700000
X26.670000Y15.240000
X29.210000Y15.240000
X31.750000Y15.240000
X34.290000Y15.240000
X36.830000Y15.240000
X39.370000Y15.240000
X41.910000Y15.240000
X41.910000Y17.780000
X39.370000Y17.780000
X36.830000Y17.780000
X34.290000Y17.780000
X31.750000Y17.780000
X29.210000Y17.780000
X26.670000Y17.780000
X26.670000Y20.320000
X26.670000Y22.860000
X26.670000Y25.400000
X29.210000Y25.400000
X29.210000Y22.860000
X29.210000Y20.320000
X31.750000Y20.320000
X31.750000Y22.860000
X31.750000Y25.400000
X34.290000Y25.400000
X34.290000Y22.860000
X34.290000Y20.320000
X36.830000Y20.320000
X36.830000Y22.860000
X36.830000Y25.400000
X39.370000Y25.400000
X39.370000Y22.860000
X39.370000Y20.320000
X41.910000Y20.320000
X41.910000Y22.860000
X41.910000Y25.400000
X41.910000Y27.940000
X39.370000Y27.940000
X36.830000Y27.940000
X34.290000Y27.940000
X31.750000Y27.940000
X29.210000Y27.940000
X26.670000Y27.940000
X26.670000Y30.480000
X29.210000Y30.480000
X31.750000Y30.480000
X34.290000Y30.480000
X36.830000Y30.480000
X39.370000Y30.480000
X41.910000Y30.480000
X41.910000Y33.020000
X39.370000Y33.020000
X36.830000Y33.020000
X34.290000Y33.020000
X31.750000Y33.020000
X29.210000Y33.020000
X26.670000Y33.020000
X26.670000Y35.560000
X26.670000Y38.100000
X26.670000Y40.640000
X26.670000Y43.180000
X26.670000Y45.720000
X26.670000Y48.260000
X29.210000Y48.260000
X29.210000Y45.720000
X29.210000Y43.180000
X29.210000Y40.640000
X29.210000Y38.100000
X29.210000Y35.560000
X31.750000Y35.560000
X31.750000Y38.100000
X31.750000Y40.640000
X31.750000Y43.180000
X31.750000Y45.720000
X31.750000Y48.260000
X34.290000Y48.260000
X34.290000Y45.720000
X34.290000Y43.180000
X34.290000Y40.640000
X34.290000Y38.100000
X34.290000Y35.560000
X36.830000Y35.560000
X36.830000Y38.100000
X36.830000Y40.640000
X36.830000Y43.180000
X36.830000Y45.720000
X36.830000Y48.260000
X39.370000Y48.260000
X39.370000Y45.720000
X39.370000Y43.180000
X39.370000Y40.640000
X39.370000Y38.100000
X39.370000Y35.560000
X41.910000Y35.560000
X41.910000Y38.100000
X41.910000Y40.640000
X41.910000Y43.180000
X41.910000Y45.720000
X41.910000Y48.260000
X43.180000Y52.070000
X40.640000Y52.070000
X38.100000Y52.070000
X35.560000Y52.070000
X33.020000Y52.070000
X30.480000Y52.070000
X27.940000Y52.070000
X25.400000Y52.070000
X22.860000Y52.070000
X20.320000Y52.070000
X19.050000Y48.260000
X16.510000Y48.260000
X16.510000Y45.720000
X13.970000Y48.260000
X13.970000Y45.720000
X13.970000Y43.180000
X13.970000Y40.640000
X13.970000Y38.100000
X13.970000Y35.560000
X13.970000Y33.020000
X11.430000Y33.020000
X8.890000Y33.020000
X11.430000Y35.560000
X11.430000Y38.100000
X11.430000Y40.640000
X11.430000Y43.180000
X11.430000Y45.720000
X11.430000Y48.260000
X11.430000Y50.800000
X11.430000Y53.340000
X8.890000Y53.340000
X8.890000Y50.800000
X8.890000Y48.260000
X8.890000Y45.720000
X8.890000Y43.180000
X8.890000Y40.640000
X8.890000Y38.100000
X8.890000Y35.560000
X6.350000Y33.020000
X6.350000Y35.560000
X6.350000Y38.100000
X6.350000Y40.640000
X6.350000Y43.180000
X6.350000Y45.720000
X6.350000Y48.260000
X6.350000Y50.800000
X6.350000Y53.340000
X3.810000Y53.340000
X3.810000Y50.800000
X3.810000Y48.260000
X3.810000Y45.720000
X3.810000Y43.180000
X3.810000Y40.640000
X3.810000Y38.100000
X3.810000Y35.560000
X3.810000Y33.020000
X6.350000Y30.480000
X3.810000Y30.480000
X3.810000Y27.940000
X6.350000Y27.940000
X8.890000Y30.480000
X8.890000Y27.940000
X11.430000Y27.940000
X11.430000Y30.480000
X13.970000Y30.480000
X13.970000Y27.940000
X13.970000Y25.400000
X13.970000Y22.860000
X11.430000Y20.320000
X11.430000Y22.860000
X11.430000Y25.400000
X8.890000Y25.400000
X8.890000Y22.860000
X8.890000Y20.320000
X8.890000Y17.780000
X11.430000Y17.780000
X11.430000Y15.240000
X8.890000Y15.240000
X6.350000Y17.780000
X6.350000Y20.320000
X6.350000Y22.860000
X6.350000Y25.400000
X3.810000Y25.400000
X3.810000Y22.860000
X3.810000Y20.320000
X3.810000Y17.780000
X3.810000Y15.240000
X6.350000Y15.240000
X3.810000Y12.700000
X3.810000Y10.160000
X3.810000Y7.620000
X3.810000Y5.080000
X6.350000Y5.080000
X6.350000Y7.620000
X8.890000Y7.620000
X8.890000Y5.080000
X11.430000Y5.080000
X11.430000Y7.620000
X11.430000Y10.160000
X8.890000Y10.160000
X6.350000Y10.160000
X6.350000Y12.700000
X8.890000Y12.700000
X11.430000Y12.700000
X13.970000Y12.700000
X13.970000Y10.160000
X13.970000Y7.620000
X16.510000Y10.160000
X19.050000Y10.160000
X21.590000Y10.160000
X24.130000Y10.160000
X24.130000Y7.620000
X21.590000Y7.620000
X19.050000Y7.620000
X16.510000Y7.620000
X19.050000Y5.080000
X21.590000Y5.080000
X24.130000Y5.080000
X26.670000Y5.080000
X26.670000Y7.620000
X29.210000Y7.620000
X29.464000Y3.810000
X32.004000Y3.810000
X31.750000Y7.620000
X34.290000Y7.620000
X34.544000Y3.810000
X37.084000Y3.810000
X36.830000Y7.620000
X39.370000Y7.620000
X39.624000Y3.810000
X42.164000Y3.810000
X47.244000Y3.810000
X44.704000Y3.810000
X46.990000Y7.620000
X44.450000Y7.620000
X41.910000Y7.620000
X41.910000Y10.160000
X39.370000Y10.160000
X36.830000Y10.160000
X34.290000Y10.160000
X31.750000Y10.160000
X29.210000Y10.160000
X26.670000Y10.160000
X26.670000Y12.700000
X29.210000Y12.700000
X31.750000Y12.700000
X34.290000Y12.700000
X36.830000Y12.700000
X39.370000Y12.700000
X41.910000Y12.700000
X44.450000Y15.240000
X46.990000Y15.240000
X49.530000Y15.240000
X52.070000Y15.240000
X54.610000Y15.240000
X57.150000Y15.240000
X59.690000Y15.240000
X57.150000Y12.700000
X54.610000Y12.700000
X52.070000Y12.700000
X49.530000Y12.700000
X46.990000Y12.700000
X44.450000Y12.700000
X44.450000Y10.160000
X46.990000Y10.160000
X49.530000Y10.160000
X52.070000Y10.160000
X54.610000Y10.160000
X57.150000Y10.160000
X59.690000Y10.160000
X57.150000Y7.620000
X54.610000Y7.620000
X52.070000Y7.620000
X49.530000Y7.620000
X52.324000Y3.810000
X54.864000Y3.810000
X57.404000Y3.810000
X59.944000Y3.810000
X62.484000Y3.810000
X65.024000Y3.810000
X59.690000Y7.620000
X62.230000Y7.620000
X62.230000Y10.160000
X59.690000Y12.700000
X62.230000Y12.700000
X64.770000Y12.700000
X67.310000Y12.700000
X67.310000Y15.240000
X64.770000Y17.780000
X64.770000Y15.240000
X62.230000Y15.240000
X62.230000Y17.780000
X59.690000Y17.780000
X57.150000Y17.780000
X54.610000Y17.780000
X52.070000Y17.780000
X49.530000Y17.780000
X46.990000Y17.780000
X44.450000Y17.780000
X44.450000Y20.320000
X44.450000Y22.860000
X44.450000Y25.400000
X46.990000Y25.400000
X46.990000Y22.860000
X46.990000Y20.320000
X49.530000Y20.320000
X49.530000Y22.860000
X49.530000Y25.400000
X52.070000Y25.400000
X52.070000Y22.860000
X52.070000Y20.320000
X54.610000Y20.320000
X54.610000Y22.860000
X54.610000Y25.400000
X57.150000Y25.400000
X57.150000Y22.860000
X57.150000Y20.320000
X59.690000Y20.320000
X59.690000Y22.860000
X59.690000Y25.400000
X62.230000Y25.400000
X62.230000Y22.860000
X62.230000Y20.320000
X64.770000Y20.320000
X67.310000Y17.780000
X67.310000Y20.320000
X67.310000Y22.860000
X64.770000Y22.860000
X67.564000Y26.670000
X67.564000Y29.210000
X67.564000Y31.750000
X65.024000Y31.750000
X65.024000Y29.210000
X65.024000Y26.670000
X62.230000Y27.940000
X59.690000Y27.940000
X57.150000Y27.940000
X54.610000Y27.940000
X52.070000Y27.940000
X49.530000Y27.940000
X46.990000Y27.940000
X44.450000Y27.940000
X44.450000Y30.480000
X46.990000Y30.480000
X49.530000Y30.480000
X52.070000Y30.480000
X54.610000Y30.480000
X57.150000Y30.480000
X59.690000Y30.480000
X62.230000Y30.480000
X62.230000Y33.020000
X59.690000Y33.020000
X57.150000Y33.020000
X54.610000Y33.020000
X52.070000Y33.020000
X49.530000Y33.020000
X46.990000Y33.020000
X44.450000Y33.020000
X44.450000Y35.560000
X44.450000Y38.100000
X44.450000Y40.640000
X44.450000Y43.180000
X44.450000Y45.720000
X44.450000Y48.260000
X46.990000Y48.260000
X46.990000Y45.720000
X46.990000Y43.180000
X46.990000Y40.640000
X46.990000Y38.100000
X46.990000Y35.560000
X49.530000Y35.560000
X49.530000Y38.100000
X49.530000Y40.640000
X49.530000Y43.180000
X49.530000Y45.720000
X49.530000Y48.260000
X52.070000Y48.260000
X52.070000Y45.720000
X52.070000Y43.180000
X52.070000Y40.640000
X52.070000Y38.100000
X52.070000Y35.560000
X54.610000Y35.560000
X54.610000Y38.100000
X54.610000Y40.640000
X54.610000Y43.180000
X54.610000Y45.720000
X54.610000Y48.260000
X57.150000Y48.260000
X57.150000Y45.720000
X57.150000Y43.180000
X57.150000Y40.640000
X57.150000Y38.100000
X57.150000Y35.560000
X59.690000Y35.560000
X59.690000Y38.100000
X59.690000Y40.640000
X59.690000Y43.180000
X59.690000Y45.720000
X59.690000Y48.260000
X62.230000Y48.260000
X62.230000Y45.720000
X62.230000Y43.180000
X62.230000Y40.640000
X62.230000Y38.100000
X62.230000Y35.560000
X64.770000Y40.640000
X64.770000Y43.180000
X64.770000Y45.720000
X64.770000Y48.260000
X65.024000Y52.070000
X62.484000Y52.070000
X59.944000Y52.070000
X57.404000Y52.070000
X54.864000Y52.070000
X52.324000Y52.070000
X49.784000Y52.070000
X47.244000Y52.070000

T0
M30

