
M48
FMAT,2
METRIC,TZ

T1C1.016000

%
G90
G05
M71

T1
X25.400000Y12.700000
X22.860000Y12.700000
X20.320000Y12.700000
X17.780000Y12.700000
X17.780000Y10.160000
X20.320000Y10.160000
X22.860000Y10.160000
X25.400000Y10.160000
X25.400000Y7.620000
X22.860000Y7.620000
X20.320000Y7.620000
X17.780000Y7.620000
X15.240000Y7.620000
X15.240000Y10.160000
X15.240000Y12.700000
X12.700000Y12.700000
X10.160000Y12.700000
X10.160000Y10.160000
X12.700000Y10.160000
X12.700000Y7.620000
X10.160000Y7.620000
X7.620000Y7.620000
X5.080000Y7.620000
X5.080000Y10.160000
X7.620000Y10.160000
X7.620000Y12.700000
X5.080000Y12.700000
X5.080000Y15.240000
X5.080000Y17.780000
X5.080000Y20.320000
X5.080000Y22.860000
X5.080000Y25.400000
X7.620000Y25.400000
X7.620000Y22.860000
X7.620000Y20.320000
X7.620000Y17.780000
X7.620000Y15.240000
X10.160000Y15.240000
X12.700000Y15.240000
X12.700000Y17.780000
X10.160000Y17.780000
X10.160000Y20.320000
X10.160000Y22.860000
X10.160000Y25.400000
X7.620000Y27.940000
X5.080000Y27.940000
X5.080000Y30.480000
X7.620000Y30.480000
X5.080000Y33.020000
X5.080000Y35.560000
X5.080000Y38.100000
X5.080000Y40.640000
X5.080000Y43.180000
X5.080000Y45.720000
X5.080000Y48.260000
X7.620000Y48.260000
X7.620000Y45.720000
X7.620000Y43.180000
X7.620000Y40.640000
X7.620000Y38.100000
X7.620000Y35.560000
X7.620000Y33.020000
X10.160000Y35.560000
X10.160000Y38.100000
X10.160000Y40.640000
X10.160000Y43.180000
X10.160000Y45.720000
X10.160000Y48.260000
X12.700000Y48.260000
X12.700000Y45.720000
X12.700000Y43.180000
X12.700000Y40.640000
X12.700000Y38.100000
X12.700000Y35.560000
X10.160000Y33.020000
X12.700000Y33.020000
X15.240000Y33.020000
X15.240000Y35.560000
X15.240000Y38.100000
X15.240000Y40.640000
X15.240000Y43.180000
X15.240000Y45.720000
X15.240000Y48.260000
X17.780000Y45.720000
X17.780000Y43.180000
X17.780000Y40.640000
X17.780000Y38.100000
X17.780000Y35.560000
X17.780000Y33.020000
X20.320000Y33.020000
X22.860000Y33.020000
X25.400000Y33.020000
X25.400000Y30.480000
X22.860000Y30.480000
X20.320000Y30.480000
X17.780000Y30.480000
X17.780000Y27.940000
X20.320000Y27.940000
X22.860000Y27.940000
X25.400000Y27.940000
X25.400000Y25.400000
X22.860000Y25.400000
X20.320000Y25.400000
X17.780000Y25.400000
X15.240000Y27.940000
X15.240000Y30.480000
X12.700000Y30.480000
X10.160000Y30.480000
X10.160000Y27.940000
X12.700000Y27.940000
X12.700000Y25.400000
X12.700000Y22.860000
X12.700000Y20.320000
X15.240000Y25.400000
X15.240000Y22.860000
X15.240000Y20.320000
X15.240000Y17.780000
X15.240000Y15.240000
X17.780000Y15.240000
X20.320000Y15.240000
X22.860000Y15.240000
X25.400000Y15.240000
X25.400000Y17.780000
X22.860000Y17.780000
X20.320000Y17.780000
X17.780000Y17.780000
X17.780000Y20.320000
X17.780000Y22.860000
X20.320000Y22.860000
X20.320000Y20.320000
X22.860000Y20.320000
X22.860000Y22.860000
X25.400000Y22.860000
X25.400000Y20.320000
X27.940000Y17.780000
X27.940000Y20.320000
X27.940000Y22.860000
X27.940000Y25.400000
X30.480000Y25.400000
X30.480000Y22.860000
X30.480000Y20.320000
X30.480000Y17.780000
X30.480000Y15.240000
X27.940000Y15.240000
X30.480000Y12.700000
X27.940000Y12.700000
X27.940000Y10.160000
X30.480000Y10.160000
X30.480000Y7.620000
X27.940000Y7.620000
X29.464000Y3.810000
X32.004000Y3.810000
X34.544000Y3.810000
X37.084000Y3.810000
X39.624000Y3.810000
X42.164000Y3.810000
X44.704000Y3.810000
X47.244000Y3.810000
X48.260000Y7.620000
X45.720000Y7.620000
X43.180000Y7.620000
X40.640000Y7.620000
X38.100000Y7.620000
X35.560000Y7.620000
X33.020000Y7.620000
X33.020000Y10.160000
X33.020000Y12.700000
X33.020000Y15.240000
X35.560000Y15.240000
X38.100000Y15.240000
X40.640000Y15.240000
X43.180000Y15.240000
X45.720000Y15.240000
X48.260000Y15.240000
X50.800000Y15.240000
X50.800000Y17.780000
X48.260000Y17.780000
X45.720000Y17.780000
X43.180000Y17.780000
X40.640000Y17.780000
X38.100000Y17.780000
X35.560000Y17.780000
X33.020000Y17.780000
X33.020000Y20.320000
X33.020000Y22.860000
X33.020000Y25.400000
X35.560000Y25.400000
X35.560000Y22.860000
X35.560000Y20.320000
X38.100000Y20.320000
X38.100000Y22.860000
X38.100000Y25.400000
X40.640000Y25.400000
X40.640000Y22.860000
X40.640000Y20.320000
X43.180000Y20.320000
X43.180000Y22.860000
X43.180000Y25.400000
X45.720000Y25.400000
X45.720000Y22.860000
X45.720000Y20.320000
X48.260000Y20.320000
X48.260000Y22.860000
X48.260000Y25.400000
X50.800000Y20.320000
X50.800000Y22.860000
X50.800000Y25.400000
X50.800000Y27.940000
X48.260000Y27.940000
X45.720000Y27.940000
X43.180000Y27.940000
X40.640000Y27.940000
X38.100000Y27.940000
X35.560000Y27.940000
X33.020000Y27.940000
X33.020000Y30.480000
X35.560000Y30.480000
X38.100000Y30.480000
X40.640000Y30.480000
X43.180000Y30.480000
X45.720000Y30.480000
X48.260000Y30.480000
X50.800000Y30.480000
X50.800000Y33.020000
X48.260000Y33.020000
X45.720000Y33.020000
X43.180000Y33.020000
X40.640000Y33.020000
X38.100000Y33.020000
X35.560000Y33.020000
X35.560000Y35.560000
X38.100000Y35.560000
X38.100000Y38.100000
X40.640000Y35.560000
X43.180000Y35.560000
X45.720000Y35.560000
X48.260000Y35.560000
X50.800000Y35.560000
X50.800000Y38.100000
X50.800000Y40.640000
X50.800000Y43.180000
X50.800000Y45.720000
X50.800000Y48.260000
X48.260000Y48.260000
X48.260000Y45.720000
X48.260000Y43.180000
X48.260000Y40.640000
X48.260000Y38.100000
X45.720000Y38.100000
X45.720000Y40.640000
X45.720000Y43.180000
X45.720000Y45.720000
X45.720000Y48.260000
X43.180000Y48.260000
X43.180000Y45.720000
X43.180000Y43.180000
X43.180000Y40.640000
X43.180000Y38.100000
X40.640000Y38.100000
X40.640000Y40.640000
X40.640000Y43.180000
X40.640000Y45.720000
X40.640000Y48.260000
X38.100000Y48.260000
X38.100000Y45.720000
X38.100000Y43.180000
X38.100000Y40.640000
X35.560000Y38.100000
X35.560000Y40.640000
X35.560000Y43.180000
X35.560000Y45.720000
X35.560000Y48.260000
X33.020000Y48.260000
X33.020000Y45.720000
X33.020000Y43.180000
X33.020000Y40.640000
X33.020000Y38.100000
X33.020000Y35.560000
X33.020000Y33.020000
X30.480000Y27.940000
X27.940000Y27.940000
X27.940000Y30.480000
X30.480000Y30.480000
X30.480000Y33.020000
X27.940000Y33.020000
X27.940000Y35.560000
X30.480000Y35.560000
X30.480000Y38.100000
X30.480000Y40.640000
X30.480000Y43.180000
X30.480000Y45.720000
X30.480000Y48.260000
X27.940000Y48.260000
X27.940000Y45.720000
X27.940000Y43.180000
X27.940000Y40.640000
X27.940000Y38.100000
X25.400000Y35.560000
X25.400000Y38.100000
X25.400000Y40.640000
X25.400000Y43.180000
X25.400000Y45.720000
X25.400000Y48.260000
X22.860000Y48.260000
X22.860000Y45.720000
X22.860000Y43.180000
X22.860000Y40.640000
X22.860000Y38.100000
X22.860000Y35.560000
X20.320000Y35.560000
X20.320000Y38.100000
X20.320000Y40.640000
X20.320000Y43.180000
X20.320000Y45.720000
X20.320000Y48.260000
X17.780000Y48.260000
X20.320000Y52.070000
X22.860000Y52.070000
X25.400000Y52.070000
X27.940000Y52.070000
X30.480000Y52.070000
X33.020000Y52.070000
X35.560000Y52.070000
X38.100000Y52.070000
X40.640000Y52.070000
X43.180000Y52.070000
X47.244000Y52.070000
X49.784000Y52.070000
X52.324000Y52.070000
X54.864000Y52.070000
X57.404000Y52.070000
X59.944000Y52.070000
X62.484000Y52.070000
X65.024000Y52.070000
X63.500000Y48.260000
X63.500000Y45.720000
X63.500000Y43.180000
X63.500000Y40.640000
X63.500000Y38.100000
X63.500000Y35.560000
X60.960000Y35.560000
X60.960000Y38.100000
X60.960000Y40.640000
X60.960000Y43.180000
X60.960000Y45.720000
X60.960000Y48.260000
X58.420000Y48.260000
X58.420000Y45.720000
X58.420000Y43.180000
X58.420000Y40.640000
X58.420000Y38.100000
X58.420000Y35.560000
X55.880000Y35.560000
X55.880000Y38.100000
X55.880000Y40.640000
X55.880000Y43.180000
X55.880000Y45.720000
X55.880000Y48.260000
X53.340000Y48.260000
X53.340000Y45.720000
X53.340000Y43.180000
X53.340000Y40.640000
X53.340000Y38.100000
X53.340000Y35.560000
X53.340000Y33.020000
X55.880000Y33.020000
X58.420000Y33.020000
X60.960000Y33.020000
X60.960000Y30.480000
X58.420000Y30.480000
X55.880000Y30.480000
X53.340000Y30.480000
X53.340000Y27.940000
X55.880000Y27.940000
X58.420000Y27.940000
X60.960000Y27.940000
X65.024000Y29.210000
X65.024000Y31.750000
X67.564000Y31.750000
X67.564000Y29.210000
X67.564000Y26.670000
X65.024000Y26.670000
X63.500000Y22.860000
X63.500000Y20.320000
X60.960000Y20.320000
X60.960000Y22.860000
X60.960000Y25.400000
X58.420000Y25.400000
X58.420000Y22.860000
X58.420000Y20.320000
X55.880000Y20.320000
X55.880000Y22.860000
X55.880000Y25.400000
X53.340000Y25.400000
X53.340000Y22.860000
X53.340000Y20.320000
X53.340000Y17.780000
X55.880000Y17.780000
X58.420000Y17.780000
X60.960000Y17.780000
X63.500000Y17.780000
X63.500000Y15.240000
X60.960000Y15.240000
X58.420000Y15.240000
X55.880000Y15.240000
X53.340000Y15.240000
X50.800000Y12.700000
X48.260000Y12.700000
X45.720000Y12.700000
X43.180000Y12.700000
X40.640000Y12.700000
X38.100000Y12.700000
X35.560000Y12.700000
X35.560000Y10.160000
X38.100000Y10.160000
X40.640000Y10.160000
X43.180000Y10.160000
X45.720000Y10.160000
X48.260000Y10.160000
X50.800000Y10.160000
X50.800000Y7.620000
X52.324000Y3.810000
X54.864000Y3.810000
X57.404000Y3.810000
X59.944000Y3.810000
X62.484000Y3.810000
X65.024000Y3.810000
X63.500000Y7.620000
X60.960000Y7.620000
X58.420000Y7.620000
X55.880000Y7.620000
X53.340000Y7.620000
X53.340000Y10.160000
X53.340000Y12.700000
X55.880000Y12.700000
X55.880000Y10.160000
X58.420000Y10.160000
X60.960000Y10.160000
X63.500000Y10.160000
X58.420000Y12.700000
X60.960000Y12.700000
X63.500000Y12.700000

T0
M30

