G04 #@! TF.FileFunction,Copper,L1,Top,Signal*
%FSLAX46Y46*%
G04 Gerber Fmt 4.6, Leading zero omitted, Abs format (unit mm)*
G04 Created by KiCad (PCBNEW 0.201506072246+5720~23~ubuntu15.04.1-product) date Mi 10 Jun 2015 17:28:03 CEST*
%MOMM*%
G01*
G04 APERTURE LIST*
%ADD10C,0.100000*%
%ADD11C,1.600000*%
%ADD12O,1.524000X2.540000*%
%ADD13C,1.524000*%
G04 APERTURE END LIST*
D10*
D11*
X62230000Y7620000D03*
X59690000Y7620000D03*
X57150000Y7620000D03*
X54610000Y7620000D03*
X52070000Y7620000D03*
X49530000Y7620000D03*
X46990000Y7620000D03*
X44450000Y7620000D03*
X41910000Y7620000D03*
X39370000Y7620000D03*
X36830000Y7620000D03*
X34290000Y7620000D03*
X31750000Y7620000D03*
X29210000Y7620000D03*
X26670000Y7620000D03*
X24130000Y7620000D03*
X21590000Y7620000D03*
X19050000Y7620000D03*
X16510000Y7620000D03*
X13970000Y7620000D03*
X11430000Y7620000D03*
X8890000Y7620000D03*
X6350000Y7620000D03*
X3810000Y7620000D03*
X62230000Y10160000D03*
X59690000Y10160000D03*
X57150000Y10160000D03*
X54610000Y10160000D03*
X52070000Y10160000D03*
X49530000Y10160000D03*
X46990000Y10160000D03*
X44450000Y10160000D03*
X41910000Y10160000D03*
X39370000Y10160000D03*
X36830000Y10160000D03*
X34290000Y10160000D03*
X31750000Y10160000D03*
X29210000Y10160000D03*
X26670000Y10160000D03*
X24130000Y10160000D03*
X21590000Y10160000D03*
X19050000Y10160000D03*
X16510000Y10160000D03*
X13970000Y10160000D03*
X11430000Y10160000D03*
X8890000Y10160000D03*
X6350000Y10160000D03*
X3810000Y10160000D03*
X62230000Y12700000D03*
X59690000Y12700000D03*
X57150000Y12700000D03*
X54610000Y12700000D03*
X52070000Y12700000D03*
X49530000Y12700000D03*
X46990000Y12700000D03*
X44450000Y12700000D03*
X41910000Y12700000D03*
X39370000Y12700000D03*
X36830000Y12700000D03*
X34290000Y12700000D03*
X31750000Y12700000D03*
X29210000Y12700000D03*
X26670000Y12700000D03*
X24130000Y12700000D03*
X21590000Y12700000D03*
X19050000Y12700000D03*
X16510000Y12700000D03*
X13970000Y12700000D03*
X11430000Y12700000D03*
X8890000Y12700000D03*
X6350000Y12700000D03*
X3810000Y12700000D03*
X62230000Y15240000D03*
X59690000Y15240000D03*
X57150000Y15240000D03*
X54610000Y15240000D03*
X52070000Y15240000D03*
X49530000Y15240000D03*
X46990000Y15240000D03*
X44450000Y15240000D03*
X41910000Y15240000D03*
X39370000Y15240000D03*
X36830000Y15240000D03*
X34290000Y15240000D03*
X31750000Y15240000D03*
X29210000Y15240000D03*
X26670000Y15240000D03*
X24130000Y15240000D03*
X21590000Y15240000D03*
X19050000Y15240000D03*
X16510000Y15240000D03*
X13970000Y15240000D03*
X11430000Y15240000D03*
X8890000Y15240000D03*
X6350000Y15240000D03*
X3810000Y15240000D03*
X62230000Y17780000D03*
X59690000Y17780000D03*
X57150000Y17780000D03*
X54610000Y17780000D03*
X52070000Y17780000D03*
X49530000Y17780000D03*
X46990000Y17780000D03*
X44450000Y17780000D03*
X41910000Y17780000D03*
X39370000Y17780000D03*
X36830000Y17780000D03*
X34290000Y17780000D03*
X31750000Y17780000D03*
X29210000Y17780000D03*
X26670000Y17780000D03*
X24130000Y17780000D03*
X21590000Y17780000D03*
X19050000Y17780000D03*
X16510000Y17780000D03*
X13970000Y17780000D03*
X11430000Y17780000D03*
X8890000Y17780000D03*
X6350000Y17780000D03*
X3810000Y17780000D03*
X62230000Y20320000D03*
X59690000Y20320000D03*
X57150000Y20320000D03*
X54610000Y20320000D03*
X52070000Y20320000D03*
X49530000Y20320000D03*
X46990000Y20320000D03*
X44450000Y20320000D03*
X41910000Y20320000D03*
X39370000Y20320000D03*
X36830000Y20320000D03*
X34290000Y20320000D03*
X31750000Y20320000D03*
X29210000Y20320000D03*
X26670000Y20320000D03*
X24130000Y20320000D03*
X21590000Y20320000D03*
X19050000Y20320000D03*
X16510000Y20320000D03*
X13970000Y20320000D03*
X11430000Y20320000D03*
X8890000Y20320000D03*
X6350000Y20320000D03*
X3810000Y20320000D03*
X62230000Y22860000D03*
X59690000Y22860000D03*
X57150000Y22860000D03*
X54610000Y22860000D03*
X52070000Y22860000D03*
X49530000Y22860000D03*
X46990000Y22860000D03*
X44450000Y22860000D03*
X41910000Y22860000D03*
X39370000Y22860000D03*
X36830000Y22860000D03*
X34290000Y22860000D03*
X31750000Y22860000D03*
X29210000Y22860000D03*
X26670000Y22860000D03*
X24130000Y22860000D03*
X21590000Y22860000D03*
X19050000Y22860000D03*
X16510000Y22860000D03*
X13970000Y22860000D03*
X11430000Y22860000D03*
X8890000Y22860000D03*
X6350000Y22860000D03*
X3810000Y22860000D03*
X62230000Y25400000D03*
X59690000Y25400000D03*
X57150000Y25400000D03*
X54610000Y25400000D03*
X52070000Y25400000D03*
X49530000Y25400000D03*
X46990000Y25400000D03*
X44450000Y25400000D03*
X41910000Y25400000D03*
X39370000Y25400000D03*
X36830000Y25400000D03*
X34290000Y25400000D03*
X31750000Y25400000D03*
X29210000Y25400000D03*
X26670000Y25400000D03*
X24130000Y25400000D03*
X21590000Y25400000D03*
X19050000Y25400000D03*
X16510000Y25400000D03*
X13970000Y25400000D03*
X11430000Y25400000D03*
X8890000Y25400000D03*
X6350000Y25400000D03*
X3810000Y25400000D03*
X62230000Y27940000D03*
X59690000Y27940000D03*
X57150000Y27940000D03*
X54610000Y27940000D03*
X52070000Y27940000D03*
X49530000Y27940000D03*
X46990000Y27940000D03*
X44450000Y27940000D03*
X41910000Y27940000D03*
X39370000Y27940000D03*
X36830000Y27940000D03*
X34290000Y27940000D03*
X31750000Y27940000D03*
X29210000Y27940000D03*
X26670000Y27940000D03*
X24130000Y27940000D03*
X21590000Y27940000D03*
X19050000Y27940000D03*
X16510000Y27940000D03*
X13970000Y27940000D03*
X11430000Y27940000D03*
X8890000Y27940000D03*
X6350000Y27940000D03*
X3810000Y27940000D03*
X62230000Y30480000D03*
X59690000Y30480000D03*
X57150000Y30480000D03*
X54610000Y30480000D03*
X52070000Y30480000D03*
X49530000Y30480000D03*
X46990000Y30480000D03*
X44450000Y30480000D03*
X41910000Y30480000D03*
X39370000Y30480000D03*
X36830000Y30480000D03*
X34290000Y30480000D03*
X31750000Y30480000D03*
X29210000Y30480000D03*
X26670000Y30480000D03*
X24130000Y30480000D03*
X21590000Y30480000D03*
X19050000Y30480000D03*
X16510000Y30480000D03*
X13970000Y30480000D03*
X11430000Y30480000D03*
X8890000Y30480000D03*
X6350000Y30480000D03*
X3810000Y30480000D03*
X62230000Y33020000D03*
X59690000Y33020000D03*
X57150000Y33020000D03*
X54610000Y33020000D03*
X52070000Y33020000D03*
X49530000Y33020000D03*
X46990000Y33020000D03*
X44450000Y33020000D03*
X41910000Y33020000D03*
X39370000Y33020000D03*
X36830000Y33020000D03*
X34290000Y33020000D03*
X31750000Y33020000D03*
X29210000Y33020000D03*
X26670000Y33020000D03*
X24130000Y33020000D03*
X21590000Y33020000D03*
X19050000Y33020000D03*
X16510000Y33020000D03*
X13970000Y33020000D03*
X11430000Y33020000D03*
X8890000Y33020000D03*
X6350000Y33020000D03*
X3810000Y33020000D03*
X62230000Y35560000D03*
X59690000Y35560000D03*
X57150000Y35560000D03*
X54610000Y35560000D03*
X52070000Y35560000D03*
X49530000Y35560000D03*
X46990000Y35560000D03*
X44450000Y35560000D03*
X41910000Y35560000D03*
X39370000Y35560000D03*
X36830000Y35560000D03*
X34290000Y35560000D03*
X31750000Y35560000D03*
X29210000Y35560000D03*
X26670000Y35560000D03*
X24130000Y35560000D03*
X21590000Y35560000D03*
X19050000Y35560000D03*
X16510000Y35560000D03*
X13970000Y35560000D03*
X11430000Y35560000D03*
X8890000Y35560000D03*
X6350000Y35560000D03*
X3810000Y35560000D03*
X62230000Y38100000D03*
X59690000Y38100000D03*
X57150000Y38100000D03*
X54610000Y38100000D03*
X52070000Y38100000D03*
X49530000Y38100000D03*
X46990000Y38100000D03*
X44450000Y38100000D03*
X41910000Y38100000D03*
X39370000Y38100000D03*
X36830000Y38100000D03*
X34290000Y38100000D03*
X31750000Y38100000D03*
X29210000Y38100000D03*
X26670000Y38100000D03*
X24130000Y38100000D03*
X21590000Y38100000D03*
X19050000Y38100000D03*
X16510000Y38100000D03*
X13970000Y38100000D03*
X11430000Y38100000D03*
X8890000Y38100000D03*
X6350000Y38100000D03*
X3810000Y38100000D03*
X62230000Y40640000D03*
X59690000Y40640000D03*
X57150000Y40640000D03*
X54610000Y40640000D03*
X52070000Y40640000D03*
X49530000Y40640000D03*
X46990000Y40640000D03*
X44450000Y40640000D03*
X41910000Y40640000D03*
X39370000Y40640000D03*
X36830000Y40640000D03*
X34290000Y40640000D03*
X31750000Y40640000D03*
X29210000Y40640000D03*
X26670000Y40640000D03*
X24130000Y40640000D03*
X21590000Y40640000D03*
X19050000Y40640000D03*
X16510000Y40640000D03*
X13970000Y40640000D03*
X11430000Y40640000D03*
X8890000Y40640000D03*
X6350000Y40640000D03*
X3810000Y40640000D03*
X62230000Y43180000D03*
X59690000Y43180000D03*
X57150000Y43180000D03*
X54610000Y43180000D03*
X52070000Y43180000D03*
X49530000Y43180000D03*
X46990000Y43180000D03*
X44450000Y43180000D03*
X41910000Y43180000D03*
X39370000Y43180000D03*
X36830000Y43180000D03*
X34290000Y43180000D03*
X31750000Y43180000D03*
X29210000Y43180000D03*
X26670000Y43180000D03*
X24130000Y43180000D03*
X21590000Y43180000D03*
X19050000Y43180000D03*
X16510000Y43180000D03*
X13970000Y43180000D03*
X11430000Y43180000D03*
X8890000Y43180000D03*
X6350000Y43180000D03*
X3810000Y43180000D03*
X62230000Y45720000D03*
X59690000Y45720000D03*
X57150000Y45720000D03*
X54610000Y45720000D03*
X52070000Y45720000D03*
X49530000Y45720000D03*
X46990000Y45720000D03*
X44450000Y45720000D03*
X41910000Y45720000D03*
X39370000Y45720000D03*
X36830000Y45720000D03*
X34290000Y45720000D03*
X31750000Y45720000D03*
X29210000Y45720000D03*
X26670000Y45720000D03*
X24130000Y45720000D03*
X21590000Y45720000D03*
X19050000Y45720000D03*
X16510000Y45720000D03*
X13970000Y45720000D03*
X11430000Y45720000D03*
X8890000Y45720000D03*
X6350000Y45720000D03*
X3810000Y45720000D03*
X3810000Y48260000D03*
X62230000Y48260000D03*
X59690000Y48260000D03*
X57150000Y48260000D03*
X54610000Y48260000D03*
X52070000Y48260000D03*
X49530000Y48260000D03*
X46990000Y48260000D03*
X44450000Y48260000D03*
X41910000Y48260000D03*
X39370000Y48260000D03*
X36830000Y48260000D03*
X34290000Y48260000D03*
X31750000Y48260000D03*
X29210000Y48260000D03*
X26670000Y48260000D03*
X24130000Y48260000D03*
X21590000Y48260000D03*
X19050000Y48260000D03*
X16510000Y48260000D03*
X13970000Y48260000D03*
X11430000Y48260000D03*
X8890000Y48260000D03*
X6350000Y48260000D03*
D12*
X65024000Y3810000D03*
X62484000Y3810000D03*
X59944000Y3810000D03*
X52324000Y3810000D03*
X54864000Y3810000D03*
X57404000Y3810000D03*
X47244000Y3810000D03*
X44704000Y3810000D03*
X42164000Y3810000D03*
X37084000Y3810000D03*
X34544000Y3810000D03*
X65024000Y52070000D03*
X62484000Y52070000D03*
X59944000Y52070000D03*
X57404000Y52070000D03*
X54864000Y52070000D03*
X52324000Y52070000D03*
X49784000Y52070000D03*
X47244000Y52070000D03*
X43180000Y52070000D03*
X40640000Y52070000D03*
X38100000Y52070000D03*
X35560000Y52070000D03*
X33020000Y52070000D03*
X30480000Y52070000D03*
X27940000Y52070000D03*
X25400000Y52070000D03*
X39624000Y3810000D03*
X22860000Y52070000D03*
X20320000Y52070000D03*
X32004000Y3810000D03*
X29464000Y3810000D03*
D13*
X65024000Y31750000D03*
X67564000Y31750000D03*
X65024000Y29210000D03*
X67564000Y29210000D03*
X65024000Y26670000D03*
X67564000Y26670000D03*
M02*
