M48
;DRILL file {KiCad 0.201506072246+5720~23~ubuntu15.04.1-product} date Mi 10 Jun 2015 17:28:05 CEST
;FORMAT={-:-/ absolute / metric / decimal}
FMAT,2
METRIC,TZ
T1C1.016
%
G90
G05
M71
T1
X3.81Y48.26
X3.81Y45.72
X3.81Y43.18
X3.81Y40.64
X3.81Y38.1
X3.81Y35.56
X3.81Y33.02
X3.81Y30.48
X3.81Y27.94
X3.81Y25.4
X3.81Y22.86
X3.81Y20.32
X3.81Y17.78
X3.81Y15.24
X3.81Y12.7
X3.81Y10.16
X3.81Y7.62
X6.35Y48.26
X6.35Y45.72
X6.35Y43.18
X6.35Y40.64
X6.35Y38.1
X6.35Y35.56
X6.35Y33.02
X6.35Y30.48
X6.35Y27.94
X6.35Y25.4
X6.35Y22.86
X6.35Y20.32
X6.35Y17.78
X6.35Y15.24
X6.35Y12.7
X6.35Y10.16
X6.35Y7.62
X8.89Y48.26
X8.89Y45.72
X8.89Y43.18
X8.89Y40.64
X8.89Y38.1
X8.89Y35.56
X8.89Y33.02
X8.89Y30.48
X8.89Y27.94
X8.89Y25.4
X8.89Y22.86
X8.89Y20.32
X8.89Y17.78
X8.89Y15.24
X8.89Y12.7
X8.89Y10.16
X8.89Y7.62
X11.43Y48.26
X11.43Y45.72
X11.43Y43.18
X11.43Y40.64
X11.43Y38.1
X11.43Y35.56
X11.43Y33.02
X11.43Y30.48
X11.43Y27.94
X11.43Y25.4
X11.43Y22.86
X11.43Y20.32
X11.43Y17.78
X11.43Y15.24
X11.43Y12.7
X11.43Y10.16
X11.43Y7.62
X13.97Y48.26
X13.97Y45.72
X13.97Y43.18
X13.97Y40.64
X13.97Y38.1
X13.97Y35.56
X13.97Y33.02
X13.97Y30.48
X13.97Y27.94
X13.97Y25.4
X13.97Y22.86
X13.97Y20.32
X13.97Y17.78
X13.97Y15.24
X13.97Y12.7
X13.97Y10.16
X13.97Y7.62
X16.51Y48.26
X16.51Y45.72
X16.51Y43.18
X16.51Y40.64
X16.51Y38.1
X16.51Y35.56
X16.51Y33.02
X16.51Y30.48
X16.51Y27.94
X16.51Y25.4
X16.51Y22.86
X16.51Y20.32
X16.51Y17.78
X16.51Y15.24
X16.51Y12.7
X16.51Y10.16
X16.51Y7.62
X19.05Y48.26
X19.05Y45.72
X19.05Y43.18
X19.05Y40.64
X19.05Y38.1
X19.05Y35.56
X19.05Y33.02
X19.05Y30.48
X19.05Y27.94
X19.05Y25.4
X19.05Y22.86
X19.05Y20.32
X19.05Y17.78
X19.05Y15.24
X19.05Y12.7
X19.05Y10.16
X19.05Y7.62
X20.32Y52.07
X21.59Y48.26
X21.59Y45.72
X21.59Y43.18
X21.59Y40.64
X21.59Y38.1
X21.59Y35.56
X21.59Y33.02
X21.59Y30.48
X21.59Y27.94
X21.59Y25.4
X21.59Y22.86
X21.59Y20.32
X21.59Y17.78
X21.59Y15.24
X21.59Y12.7
X21.59Y10.16
X21.59Y7.62
X22.86Y52.07
X24.13Y48.26
X24.13Y45.72
X24.13Y43.18
X24.13Y40.64
X24.13Y38.1
X24.13Y35.56
X24.13Y33.02
X24.13Y30.48
X24.13Y27.94
X24.13Y25.4
X24.13Y22.86
X24.13Y20.32
X24.13Y17.78
X24.13Y15.24
X24.13Y12.7
X24.13Y10.16
X24.13Y7.62
X25.4Y52.07
X26.67Y48.26
X26.67Y45.72
X26.67Y43.18
X26.67Y40.64
X26.67Y38.1
X26.67Y35.56
X26.67Y33.02
X26.67Y30.48
X26.67Y27.94
X26.67Y25.4
X26.67Y22.86
X26.67Y20.32
X26.67Y17.78
X26.67Y15.24
X26.67Y12.7
X26.67Y10.16
X26.67Y7.62
X27.94Y52.07
X29.21Y48.26
X29.21Y45.72
X29.21Y43.18
X29.21Y40.64
X29.21Y38.1
X29.21Y35.56
X29.21Y33.02
X29.21Y30.48
X29.21Y27.94
X29.21Y25.4
X29.21Y22.86
X29.21Y20.32
X29.21Y17.78
X29.21Y15.24
X29.21Y12.7
X29.21Y10.16
X29.21Y7.62
X29.464Y3.81
X30.48Y52.07
X31.75Y48.26
X31.75Y45.72
X31.75Y43.18
X31.75Y40.64
X31.75Y38.1
X31.75Y35.56
X31.75Y33.02
X31.75Y30.48
X31.75Y27.94
X31.75Y25.4
X31.75Y22.86
X31.75Y20.32
X31.75Y17.78
X31.75Y15.24
X31.75Y12.7
X31.75Y10.16
X31.75Y7.62
X32.004Y3.81
X33.02Y52.07
X34.29Y48.26
X34.29Y45.72
X34.29Y43.18
X34.29Y40.64
X34.29Y38.1
X34.29Y35.56
X34.29Y33.02
X34.29Y30.48
X34.29Y27.94
X34.29Y25.4
X34.29Y22.86
X34.29Y20.32
X34.29Y17.78
X34.29Y15.24
X34.29Y12.7
X34.29Y10.16
X34.29Y7.62
X34.544Y3.81
X35.56Y52.07
X36.83Y48.26
X36.83Y45.72
X36.83Y43.18
X36.83Y40.64
X36.83Y38.1
X36.83Y35.56
X36.83Y33.02
X36.83Y30.48
X36.83Y27.94
X36.83Y25.4
X36.83Y22.86
X36.83Y20.32
X36.83Y17.78
X36.83Y15.24
X36.83Y12.7
X36.83Y10.16
X36.83Y7.62
X37.084Y3.81
X38.1Y52.07
X39.37Y48.26
X39.37Y45.72
X39.37Y43.18
X39.37Y40.64
X39.37Y38.1
X39.37Y35.56
X39.37Y33.02
X39.37Y30.48
X39.37Y27.94
X39.37Y25.4
X39.37Y22.86
X39.37Y20.32
X39.37Y17.78
X39.37Y15.24
X39.37Y12.7
X39.37Y10.16
X39.37Y7.62
X39.624Y3.81
X40.64Y52.07
X41.91Y48.26
X41.91Y45.72
X41.91Y43.18
X41.91Y40.64
X41.91Y38.1
X41.91Y35.56
X41.91Y33.02
X41.91Y30.48
X41.91Y27.94
X41.91Y25.4
X41.91Y22.86
X41.91Y20.32
X41.91Y17.78
X41.91Y15.24
X41.91Y12.7
X41.91Y10.16
X41.91Y7.62
X42.164Y3.81
X43.18Y52.07
X44.45Y48.26
X44.45Y45.72
X44.45Y43.18
X44.45Y40.64
X44.45Y38.1
X44.45Y35.56
X44.45Y33.02
X44.45Y30.48
X44.45Y27.94
X44.45Y25.4
X44.45Y22.86
X44.45Y20.32
X44.45Y17.78
X44.45Y15.24
X44.45Y12.7
X44.45Y10.16
X44.45Y7.62
X44.704Y3.81
X46.99Y48.26
X46.99Y45.72
X46.99Y43.18
X46.99Y40.64
X46.99Y38.1
X46.99Y35.56
X46.99Y33.02
X46.99Y30.48
X46.99Y27.94
X46.99Y25.4
X46.99Y22.86
X46.99Y20.32
X46.99Y17.78
X46.99Y15.24
X46.99Y12.7
X46.99Y10.16
X46.99Y7.62
X47.244Y52.07
X47.244Y3.81
X49.53Y48.26
X49.53Y45.72
X49.53Y43.18
X49.53Y40.64
X49.53Y38.1
X49.53Y35.56
X49.53Y33.02
X49.53Y30.48
X49.53Y27.94
X49.53Y25.4
X49.53Y22.86
X49.53Y20.32
X49.53Y17.78
X49.53Y15.24
X49.53Y12.7
X49.53Y10.16
X49.53Y7.62
X49.784Y52.07
X52.07Y48.26
X52.07Y45.72
X52.07Y43.18
X52.07Y40.64
X52.07Y38.1
X52.07Y35.56
X52.07Y33.02
X52.07Y30.48
X52.07Y27.94
X52.07Y25.4
X52.07Y22.86
X52.07Y20.32
X52.07Y17.78
X52.07Y15.24
X52.07Y12.7
X52.07Y10.16
X52.07Y7.62
X52.324Y52.07
X52.324Y3.81
X54.61Y48.26
X54.61Y45.72
X54.61Y43.18
X54.61Y40.64
X54.61Y38.1
X54.61Y35.56
X54.61Y33.02
X54.61Y30.48
X54.61Y27.94
X54.61Y25.4
X54.61Y22.86
X54.61Y20.32
X54.61Y17.78
X54.61Y15.24
X54.61Y12.7
X54.61Y10.16
X54.61Y7.62
X54.864Y52.07
X54.864Y3.81
X57.15Y48.26
X57.15Y45.72
X57.15Y43.18
X57.15Y40.64
X57.15Y38.1
X57.15Y35.56
X57.15Y33.02
X57.15Y30.48
X57.15Y27.94
X57.15Y25.4
X57.15Y22.86
X57.15Y20.32
X57.15Y17.78
X57.15Y15.24
X57.15Y12.7
X57.15Y10.16
X57.15Y7.62
X57.404Y52.07
X57.404Y3.81
X59.69Y48.26
X59.69Y45.72
X59.69Y43.18
X59.69Y40.64
X59.69Y38.1
X59.69Y35.56
X59.69Y33.02
X59.69Y30.48
X59.69Y27.94
X59.69Y25.4
X59.69Y22.86
X59.69Y20.32
X59.69Y17.78
X59.69Y15.24
X59.69Y12.7
X59.69Y10.16
X59.69Y7.62
X59.944Y52.07
X59.944Y3.81
X62.23Y48.26
X62.23Y45.72
X62.23Y43.18
X62.23Y40.64
X62.23Y38.1
X62.23Y35.56
X62.23Y33.02
X62.23Y30.48
X62.23Y27.94
X62.23Y25.4
X62.23Y22.86
X62.23Y20.32
X62.23Y17.78
X62.23Y15.24
X62.23Y12.7
X62.23Y10.16
X62.23Y7.62
X62.484Y52.07
X62.484Y3.81
X65.024Y52.07
X65.024Y31.75
X65.024Y29.21
X65.024Y26.67
X65.024Y3.81
X67.564Y31.75
X67.564Y29.21
X67.564Y26.67
T0
M30
