G04 #@! TF.FileFunction,Copper,L2,Bot,Signal*
%FSLAX46Y46*%
G04 Gerber Fmt 4.6, Leading zero omitted, Abs format (unit mm)*
G04 Created by KiCad (PCBNEW 0.201506062246+5717~23~ubuntu15.04.1-product) date Mo 08 Jun 2015 14:41:22 CEST*
%MOMM*%
G01*
G04 APERTURE LIST*
%ADD10C,0.100000*%
%ADD11C,1.600000*%
%ADD12O,1.524000X2.540000*%
%ADD13C,1.524000*%
%ADD14C,0.254000*%
G04 APERTURE END LIST*
D10*
D11*
X63500000Y7620000D03*
X60960000Y7620000D03*
X58420000Y7620000D03*
X55880000Y7620000D03*
X53340000Y7620000D03*
X50800000Y7620000D03*
X48260000Y7620000D03*
X45720000Y7620000D03*
X43180000Y7620000D03*
X40640000Y7620000D03*
X38100000Y7620000D03*
X35560000Y7620000D03*
X33020000Y7620000D03*
X30480000Y7620000D03*
X27940000Y7620000D03*
X25400000Y7620000D03*
X22860000Y7620000D03*
X20320000Y7620000D03*
X17780000Y7620000D03*
X15240000Y7620000D03*
X12700000Y7620000D03*
X10160000Y7620000D03*
X7620000Y7620000D03*
X5080000Y7620000D03*
X63500000Y10160000D03*
X60960000Y10160000D03*
X58420000Y10160000D03*
X55880000Y10160000D03*
X53340000Y10160000D03*
X50800000Y10160000D03*
X48260000Y10160000D03*
X45720000Y10160000D03*
X43180000Y10160000D03*
X40640000Y10160000D03*
X38100000Y10160000D03*
X35560000Y10160000D03*
X33020000Y10160000D03*
X30480000Y10160000D03*
X27940000Y10160000D03*
X25400000Y10160000D03*
X22860000Y10160000D03*
X20320000Y10160000D03*
X17780000Y10160000D03*
X15240000Y10160000D03*
X12700000Y10160000D03*
X10160000Y10160000D03*
X7620000Y10160000D03*
X5080000Y10160000D03*
X63500000Y12700000D03*
X60960000Y12700000D03*
X58420000Y12700000D03*
X55880000Y12700000D03*
X53340000Y12700000D03*
X50800000Y12700000D03*
X48260000Y12700000D03*
X45720000Y12700000D03*
X43180000Y12700000D03*
X40640000Y12700000D03*
X38100000Y12700000D03*
X35560000Y12700000D03*
X33020000Y12700000D03*
X30480000Y12700000D03*
X27940000Y12700000D03*
X25400000Y12700000D03*
X22860000Y12700000D03*
X20320000Y12700000D03*
X17780000Y12700000D03*
X15240000Y12700000D03*
X12700000Y12700000D03*
X10160000Y12700000D03*
X7620000Y12700000D03*
X5080000Y12700000D03*
X63500000Y15240000D03*
X60960000Y15240000D03*
X58420000Y15240000D03*
X55880000Y15240000D03*
X53340000Y15240000D03*
X50800000Y15240000D03*
X48260000Y15240000D03*
X45720000Y15240000D03*
X43180000Y15240000D03*
X40640000Y15240000D03*
X38100000Y15240000D03*
X35560000Y15240000D03*
X33020000Y15240000D03*
X30480000Y15240000D03*
X27940000Y15240000D03*
X25400000Y15240000D03*
X22860000Y15240000D03*
X20320000Y15240000D03*
X17780000Y15240000D03*
X15240000Y15240000D03*
X12700000Y15240000D03*
X10160000Y15240000D03*
X7620000Y15240000D03*
X5080000Y15240000D03*
X63500000Y17780000D03*
X60960000Y17780000D03*
X58420000Y17780000D03*
X55880000Y17780000D03*
X53340000Y17780000D03*
X50800000Y17780000D03*
X48260000Y17780000D03*
X45720000Y17780000D03*
X43180000Y17780000D03*
X40640000Y17780000D03*
X38100000Y17780000D03*
X35560000Y17780000D03*
X33020000Y17780000D03*
X30480000Y17780000D03*
X27940000Y17780000D03*
X25400000Y17780000D03*
X22860000Y17780000D03*
X20320000Y17780000D03*
X17780000Y17780000D03*
X15240000Y17780000D03*
X12700000Y17780000D03*
X10160000Y17780000D03*
X7620000Y17780000D03*
X5080000Y17780000D03*
X63500000Y20320000D03*
X60960000Y20320000D03*
X58420000Y20320000D03*
X55880000Y20320000D03*
X53340000Y20320000D03*
X50800000Y20320000D03*
X48260000Y20320000D03*
X45720000Y20320000D03*
X43180000Y20320000D03*
X40640000Y20320000D03*
X38100000Y20320000D03*
X35560000Y20320000D03*
X33020000Y20320000D03*
X30480000Y20320000D03*
X27940000Y20320000D03*
X25400000Y20320000D03*
X22860000Y20320000D03*
X20320000Y20320000D03*
X17780000Y20320000D03*
X15240000Y20320000D03*
X12700000Y20320000D03*
X10160000Y20320000D03*
X7620000Y20320000D03*
X5080000Y20320000D03*
X63500000Y22860000D03*
X60960000Y22860000D03*
X58420000Y22860000D03*
X55880000Y22860000D03*
X53340000Y22860000D03*
X50800000Y22860000D03*
X48260000Y22860000D03*
X45720000Y22860000D03*
X43180000Y22860000D03*
X40640000Y22860000D03*
X38100000Y22860000D03*
X35560000Y22860000D03*
X33020000Y22860000D03*
X30480000Y22860000D03*
X27940000Y22860000D03*
X25400000Y22860000D03*
X22860000Y22860000D03*
X20320000Y22860000D03*
X17780000Y22860000D03*
X15240000Y22860000D03*
X12700000Y22860000D03*
X10160000Y22860000D03*
X7620000Y22860000D03*
X5080000Y22860000D03*
X60960000Y25400000D03*
X58420000Y25400000D03*
X55880000Y25400000D03*
X53340000Y25400000D03*
X50800000Y25400000D03*
X48260000Y25400000D03*
X45720000Y25400000D03*
X43180000Y25400000D03*
X40640000Y25400000D03*
X38100000Y25400000D03*
X35560000Y25400000D03*
X33020000Y25400000D03*
X30480000Y25400000D03*
X27940000Y25400000D03*
X25400000Y25400000D03*
X22860000Y25400000D03*
X20320000Y25400000D03*
X17780000Y25400000D03*
X15240000Y25400000D03*
X12700000Y25400000D03*
X10160000Y25400000D03*
X7620000Y25400000D03*
X5080000Y25400000D03*
X60960000Y27940000D03*
X58420000Y27940000D03*
X55880000Y27940000D03*
X53340000Y27940000D03*
X50800000Y27940000D03*
X48260000Y27940000D03*
X45720000Y27940000D03*
X43180000Y27940000D03*
X40640000Y27940000D03*
X38100000Y27940000D03*
X35560000Y27940000D03*
X33020000Y27940000D03*
X30480000Y27940000D03*
X27940000Y27940000D03*
X25400000Y27940000D03*
X22860000Y27940000D03*
X20320000Y27940000D03*
X17780000Y27940000D03*
X15240000Y27940000D03*
X12700000Y27940000D03*
X10160000Y27940000D03*
X7620000Y27940000D03*
X5080000Y27940000D03*
X60960000Y30480000D03*
X58420000Y30480000D03*
X55880000Y30480000D03*
X53340000Y30480000D03*
X50800000Y30480000D03*
X48260000Y30480000D03*
X45720000Y30480000D03*
X43180000Y30480000D03*
X40640000Y30480000D03*
X38100000Y30480000D03*
X35560000Y30480000D03*
X33020000Y30480000D03*
X30480000Y30480000D03*
X27940000Y30480000D03*
X25400000Y30480000D03*
X22860000Y30480000D03*
X20320000Y30480000D03*
X17780000Y30480000D03*
X15240000Y30480000D03*
X12700000Y30480000D03*
X10160000Y30480000D03*
X7620000Y30480000D03*
X5080000Y30480000D03*
X60960000Y33020000D03*
X58420000Y33020000D03*
X55880000Y33020000D03*
X53340000Y33020000D03*
X50800000Y33020000D03*
X48260000Y33020000D03*
X45720000Y33020000D03*
X43180000Y33020000D03*
X40640000Y33020000D03*
X38100000Y33020000D03*
X35560000Y33020000D03*
X33020000Y33020000D03*
X30480000Y33020000D03*
X27940000Y33020000D03*
X25400000Y33020000D03*
X22860000Y33020000D03*
X20320000Y33020000D03*
X17780000Y33020000D03*
X15240000Y33020000D03*
X12700000Y33020000D03*
X10160000Y33020000D03*
X7620000Y33020000D03*
X5080000Y33020000D03*
X63500000Y35560000D03*
X60960000Y35560000D03*
X58420000Y35560000D03*
X55880000Y35560000D03*
X53340000Y35560000D03*
X50800000Y35560000D03*
X48260000Y35560000D03*
X45720000Y35560000D03*
X43180000Y35560000D03*
X40640000Y35560000D03*
X38100000Y35560000D03*
X35560000Y35560000D03*
X33020000Y35560000D03*
X30480000Y35560000D03*
X27940000Y35560000D03*
X25400000Y35560000D03*
X22860000Y35560000D03*
X20320000Y35560000D03*
X17780000Y35560000D03*
X15240000Y35560000D03*
X12700000Y35560000D03*
X10160000Y35560000D03*
X7620000Y35560000D03*
X5080000Y35560000D03*
X63500000Y38100000D03*
X60960000Y38100000D03*
X58420000Y38100000D03*
X55880000Y38100000D03*
X53340000Y38100000D03*
X50800000Y38100000D03*
X48260000Y38100000D03*
X45720000Y38100000D03*
X43180000Y38100000D03*
X40640000Y38100000D03*
X38100000Y38100000D03*
X35560000Y38100000D03*
X33020000Y38100000D03*
X30480000Y38100000D03*
X27940000Y38100000D03*
X25400000Y38100000D03*
X22860000Y38100000D03*
X20320000Y38100000D03*
X17780000Y38100000D03*
X15240000Y38100000D03*
X12700000Y38100000D03*
X10160000Y38100000D03*
X7620000Y38100000D03*
X5080000Y38100000D03*
X63500000Y40640000D03*
X60960000Y40640000D03*
X58420000Y40640000D03*
X55880000Y40640000D03*
X53340000Y40640000D03*
X50800000Y40640000D03*
X48260000Y40640000D03*
X45720000Y40640000D03*
X43180000Y40640000D03*
X40640000Y40640000D03*
X38100000Y40640000D03*
X35560000Y40640000D03*
X33020000Y40640000D03*
X30480000Y40640000D03*
X27940000Y40640000D03*
X25400000Y40640000D03*
X22860000Y40640000D03*
X20320000Y40640000D03*
X17780000Y40640000D03*
X15240000Y40640000D03*
X12700000Y40640000D03*
X10160000Y40640000D03*
X7620000Y40640000D03*
X5080000Y40640000D03*
X63500000Y43180000D03*
X60960000Y43180000D03*
X58420000Y43180000D03*
X55880000Y43180000D03*
X53340000Y43180000D03*
X50800000Y43180000D03*
X48260000Y43180000D03*
X45720000Y43180000D03*
X43180000Y43180000D03*
X40640000Y43180000D03*
X38100000Y43180000D03*
X35560000Y43180000D03*
X33020000Y43180000D03*
X30480000Y43180000D03*
X27940000Y43180000D03*
X25400000Y43180000D03*
X22860000Y43180000D03*
X20320000Y43180000D03*
X17780000Y43180000D03*
X15240000Y43180000D03*
X12700000Y43180000D03*
X10160000Y43180000D03*
X7620000Y43180000D03*
X5080000Y43180000D03*
X63500000Y45720000D03*
X60960000Y45720000D03*
X58420000Y45720000D03*
X55880000Y45720000D03*
X53340000Y45720000D03*
X50800000Y45720000D03*
X48260000Y45720000D03*
X45720000Y45720000D03*
X43180000Y45720000D03*
X40640000Y45720000D03*
X38100000Y45720000D03*
X35560000Y45720000D03*
X33020000Y45720000D03*
X30480000Y45720000D03*
X27940000Y45720000D03*
X25400000Y45720000D03*
X22860000Y45720000D03*
X20320000Y45720000D03*
X17780000Y45720000D03*
X15240000Y45720000D03*
X12700000Y45720000D03*
X10160000Y45720000D03*
X7620000Y45720000D03*
X5080000Y45720000D03*
X63500000Y48260000D03*
X60960000Y48260000D03*
X58420000Y48260000D03*
X55880000Y48260000D03*
X53340000Y48260000D03*
X50800000Y48260000D03*
X48260000Y48260000D03*
X45720000Y48260000D03*
X43180000Y48260000D03*
X40640000Y48260000D03*
X38100000Y48260000D03*
X35560000Y48260000D03*
X33020000Y48260000D03*
X30480000Y48260000D03*
X27940000Y48260000D03*
X25400000Y48260000D03*
X22860000Y48260000D03*
X20320000Y48260000D03*
X17780000Y48260000D03*
X15240000Y48260000D03*
X12700000Y48260000D03*
X10160000Y48260000D03*
X7620000Y48260000D03*
X5080000Y48260000D03*
D12*
X65024000Y3810000D03*
X62484000Y3810000D03*
X59944000Y3810000D03*
X52324000Y3810000D03*
X54864000Y3810000D03*
X57404000Y3810000D03*
X47244000Y3810000D03*
X44704000Y3810000D03*
X42164000Y3810000D03*
X37084000Y3810000D03*
X34544000Y3810000D03*
X65024000Y52070000D03*
X62484000Y52070000D03*
X59944000Y52070000D03*
X57404000Y52070000D03*
X54864000Y52070000D03*
X52324000Y52070000D03*
X49784000Y52070000D03*
X47244000Y52070000D03*
X43180000Y52070000D03*
X40640000Y52070000D03*
X38100000Y52070000D03*
X35560000Y52070000D03*
X33020000Y52070000D03*
X30480000Y52070000D03*
X27940000Y52070000D03*
X25400000Y52070000D03*
X39624000Y3810000D03*
X22860000Y52070000D03*
X20320000Y52070000D03*
X32004000Y3810000D03*
X29464000Y3810000D03*
D13*
X65024000Y31750000D03*
X67564000Y31750000D03*
X65024000Y29210000D03*
X67564000Y29210000D03*
X65024000Y26670000D03*
X67564000Y26670000D03*
D14*
G36*
X70993000Y6388452D02*
X69786885Y4579280D01*
X69786885Y9330143D01*
X69786885Y37270143D01*
X69449242Y38087300D01*
X68824589Y38713045D01*
X68008022Y39052113D01*
X67123857Y39052885D01*
X66421000Y38762470D01*
X66421000Y51524679D01*
X66421000Y52615321D01*
X66314660Y53149930D01*
X66011828Y53603149D01*
X65558609Y53905981D01*
X65024000Y54012321D01*
X64489391Y53905981D01*
X64036172Y53603149D01*
X63754000Y53180850D01*
X63471828Y53603149D01*
X63018609Y53905981D01*
X62484000Y54012321D01*
X61949391Y53905981D01*
X61496172Y53603149D01*
X61214000Y53180850D01*
X60931828Y53603149D01*
X60478609Y53905981D01*
X59944000Y54012321D01*
X59409391Y53905981D01*
X58956172Y53603149D01*
X58674000Y53180850D01*
X58391828Y53603149D01*
X57938609Y53905981D01*
X57404000Y54012321D01*
X56869391Y53905981D01*
X56416172Y53603149D01*
X56134000Y53180850D01*
X55851828Y53603149D01*
X55398609Y53905981D01*
X54864000Y54012321D01*
X54329391Y53905981D01*
X53876172Y53603149D01*
X53594000Y53180850D01*
X53311828Y53603149D01*
X52858609Y53905981D01*
X52324000Y54012321D01*
X51789391Y53905981D01*
X51336172Y53603149D01*
X51054000Y53180850D01*
X50771828Y53603149D01*
X50318609Y53905981D01*
X49784000Y54012321D01*
X49249391Y53905981D01*
X48796172Y53603149D01*
X48514000Y53180850D01*
X48231828Y53603149D01*
X47778609Y53905981D01*
X47244000Y54012321D01*
X46709391Y53905981D01*
X46256172Y53603149D01*
X45953340Y53149930D01*
X45847000Y52615321D01*
X45847000Y51524679D01*
X45953340Y50990070D01*
X46256172Y50536851D01*
X46709391Y50234019D01*
X47244000Y50127679D01*
X47778609Y50234019D01*
X48231828Y50536851D01*
X48514000Y50959151D01*
X48796172Y50536851D01*
X49249391Y50234019D01*
X49784000Y50127679D01*
X50318609Y50234019D01*
X50771828Y50536851D01*
X51054000Y50959151D01*
X51336172Y50536851D01*
X51789391Y50234019D01*
X52324000Y50127679D01*
X52858609Y50234019D01*
X53311828Y50536851D01*
X53594000Y50959151D01*
X53876172Y50536851D01*
X54329391Y50234019D01*
X54864000Y50127679D01*
X55398609Y50234019D01*
X55851828Y50536851D01*
X56134000Y50959151D01*
X56416172Y50536851D01*
X56869391Y50234019D01*
X57404000Y50127679D01*
X57938609Y50234019D01*
X58391828Y50536851D01*
X58674000Y50959151D01*
X58956172Y50536851D01*
X59409391Y50234019D01*
X59944000Y50127679D01*
X60478609Y50234019D01*
X60931828Y50536851D01*
X61214000Y50959151D01*
X61496172Y50536851D01*
X61949391Y50234019D01*
X62484000Y50127679D01*
X63018609Y50234019D01*
X63471828Y50536851D01*
X63754000Y50959151D01*
X64036172Y50536851D01*
X64489391Y50234019D01*
X65024000Y50127679D01*
X65558609Y50234019D01*
X66011828Y50536851D01*
X66314660Y50990070D01*
X66421000Y51524679D01*
X66421000Y38762470D01*
X66306700Y38715242D01*
X65680955Y38090589D01*
X65341887Y37274022D01*
X65341115Y36389857D01*
X65678758Y35572700D01*
X66303411Y34946955D01*
X67119978Y34607887D01*
X68004143Y34607115D01*
X68821300Y34944758D01*
X69447045Y35569411D01*
X69786113Y36385978D01*
X69786885Y37270143D01*
X69786885Y9330143D01*
X69449242Y10147300D01*
X68961242Y10636154D01*
X68961242Y26946661D01*
X68749010Y27460303D01*
X68356370Y27853629D01*
X68148487Y27939950D01*
X68354303Y28024990D01*
X68747629Y28417630D01*
X68960757Y28930900D01*
X68961242Y29486661D01*
X68749010Y30000303D01*
X68356370Y30393629D01*
X68148487Y30479950D01*
X68354303Y30564990D01*
X68747629Y30957630D01*
X68960757Y31470900D01*
X68961242Y32026661D01*
X68749010Y32540303D01*
X68356370Y32933629D01*
X67843100Y33146757D01*
X67287339Y33147242D01*
X66773697Y32935010D01*
X66380371Y32542370D01*
X66294050Y32334488D01*
X66209010Y32540303D01*
X65816370Y32933629D01*
X65303100Y33146757D01*
X64747339Y33147242D01*
X64233697Y32935010D01*
X63840371Y32542370D01*
X63627243Y32029100D01*
X63626758Y31473339D01*
X63838990Y30959697D01*
X64231630Y30566371D01*
X64439512Y30480051D01*
X64233697Y30395010D01*
X63840371Y30002370D01*
X63627243Y29489100D01*
X63626758Y28933339D01*
X63838990Y28419697D01*
X64231630Y28026371D01*
X64439512Y27940051D01*
X64233697Y27855010D01*
X63840371Y27462370D01*
X63627243Y26949100D01*
X63626758Y26393339D01*
X63838990Y25879697D01*
X64231630Y25486371D01*
X64744900Y25273243D01*
X65300661Y25272758D01*
X65814303Y25484990D01*
X66207629Y25877630D01*
X66293949Y26085513D01*
X66378990Y25879697D01*
X66771630Y25486371D01*
X67284900Y25273243D01*
X67840661Y25272758D01*
X68354303Y25484990D01*
X68747629Y25877630D01*
X68960757Y26390900D01*
X68961242Y26946661D01*
X68961242Y10636154D01*
X68824589Y10773045D01*
X68008022Y11112113D01*
X67123857Y11112885D01*
X66306700Y10775242D01*
X65680955Y10150589D01*
X65341887Y9334022D01*
X65341115Y8449857D01*
X65678758Y7632700D01*
X66303411Y7006955D01*
X67119978Y6667887D01*
X68004143Y6667115D01*
X68821300Y7004758D01*
X69447045Y7629411D01*
X69786113Y8445978D01*
X69786885Y9330143D01*
X69786885Y4579280D01*
X68474330Y2610447D01*
X68469581Y2598950D01*
X68462667Y2588601D01*
X68460213Y2576268D01*
X68455414Y2564646D01*
X68455427Y2552203D01*
X68453000Y2540000D01*
X68453000Y127000D01*
X66421000Y127000D01*
X66421000Y3264679D01*
X66421000Y4355321D01*
X66314660Y4889930D01*
X66011828Y5343149D01*
X65558609Y5645981D01*
X65024000Y5752321D01*
X64935248Y5734668D01*
X64935248Y7904187D01*
X64717243Y8431800D01*
X64313923Y8835824D01*
X64183784Y8889863D01*
X64311800Y8942757D01*
X64715824Y9346077D01*
X64934750Y9873309D01*
X64935248Y10444187D01*
X64717243Y10971800D01*
X64313923Y11375824D01*
X64183784Y11429863D01*
X64311800Y11482757D01*
X64715824Y11886077D01*
X64934750Y12413309D01*
X64935248Y12984187D01*
X64717243Y13511800D01*
X64313923Y13915824D01*
X64183784Y13969863D01*
X64311800Y14022757D01*
X64715824Y14426077D01*
X64934750Y14953309D01*
X64935248Y15524187D01*
X64717243Y16051800D01*
X64313923Y16455824D01*
X64183784Y16509863D01*
X64311800Y16562757D01*
X64715824Y16966077D01*
X64934750Y17493309D01*
X64935248Y18064187D01*
X64717243Y18591800D01*
X64313923Y18995824D01*
X64183784Y19049863D01*
X64311800Y19102757D01*
X64715824Y19506077D01*
X64934750Y20033309D01*
X64935248Y20604187D01*
X64717243Y21131800D01*
X64313923Y21535824D01*
X64183784Y21589863D01*
X64311800Y21642757D01*
X64715824Y22046077D01*
X64934750Y22573309D01*
X64935248Y23144187D01*
X64717243Y23671800D01*
X64313923Y24075824D01*
X63786691Y24294750D01*
X63215813Y24295248D01*
X62688200Y24077243D01*
X62284176Y23673923D01*
X62230137Y23543785D01*
X62177243Y23671800D01*
X61773923Y24075824D01*
X61643784Y24129863D01*
X61771800Y24182757D01*
X62175824Y24586077D01*
X62394750Y25113309D01*
X62395248Y25684187D01*
X62177243Y26211800D01*
X61773923Y26615824D01*
X61643784Y26669863D01*
X61771800Y26722757D01*
X62175824Y27126077D01*
X62394750Y27653309D01*
X62395248Y28224187D01*
X62177243Y28751800D01*
X61773923Y29155824D01*
X61643784Y29209863D01*
X61771800Y29262757D01*
X62175824Y29666077D01*
X62394750Y30193309D01*
X62395248Y30764187D01*
X62177243Y31291800D01*
X61773923Y31695824D01*
X61643784Y31749863D01*
X61771800Y31802757D01*
X62175824Y32206077D01*
X62394750Y32733309D01*
X62395248Y33304187D01*
X62177243Y33831800D01*
X61773923Y34235824D01*
X61643784Y34289863D01*
X61771800Y34342757D01*
X62175824Y34746077D01*
X62229862Y34876216D01*
X62282757Y34748200D01*
X62686077Y34344176D01*
X63213309Y34125250D01*
X63784187Y34124752D01*
X64311800Y34342757D01*
X64715824Y34746077D01*
X64934750Y35273309D01*
X64935248Y35844187D01*
X64717243Y36371800D01*
X64313923Y36775824D01*
X64183784Y36829863D01*
X64311800Y36882757D01*
X64715824Y37286077D01*
X64934750Y37813309D01*
X64935248Y38384187D01*
X64717243Y38911800D01*
X64313923Y39315824D01*
X64183784Y39369863D01*
X64311800Y39422757D01*
X64715824Y39826077D01*
X64934750Y40353309D01*
X64935248Y40924187D01*
X64717243Y41451800D01*
X64313923Y41855824D01*
X64183784Y41909863D01*
X64311800Y41962757D01*
X64715824Y42366077D01*
X64934750Y42893309D01*
X64935248Y43464187D01*
X64717243Y43991800D01*
X64313923Y44395824D01*
X64183784Y44449863D01*
X64311800Y44502757D01*
X64715824Y44906077D01*
X64934750Y45433309D01*
X64935248Y46004187D01*
X64717243Y46531800D01*
X64313923Y46935824D01*
X64183784Y46989863D01*
X64311800Y47042757D01*
X64715824Y47446077D01*
X64934750Y47973309D01*
X64935248Y48544187D01*
X64717243Y49071800D01*
X64313923Y49475824D01*
X63786691Y49694750D01*
X63215813Y49695248D01*
X62688200Y49477243D01*
X62284176Y49073923D01*
X62230137Y48943785D01*
X62177243Y49071800D01*
X61773923Y49475824D01*
X61246691Y49694750D01*
X60675813Y49695248D01*
X60148200Y49477243D01*
X59744176Y49073923D01*
X59690137Y48943785D01*
X59637243Y49071800D01*
X59233923Y49475824D01*
X58706691Y49694750D01*
X58135813Y49695248D01*
X57608200Y49477243D01*
X57204176Y49073923D01*
X57150137Y48943785D01*
X57097243Y49071800D01*
X56693923Y49475824D01*
X56166691Y49694750D01*
X55595813Y49695248D01*
X55068200Y49477243D01*
X54664176Y49073923D01*
X54610137Y48943785D01*
X54557243Y49071800D01*
X54153923Y49475824D01*
X53626691Y49694750D01*
X53055813Y49695248D01*
X52528200Y49477243D01*
X52124176Y49073923D01*
X52070137Y48943785D01*
X52017243Y49071800D01*
X51613923Y49475824D01*
X51086691Y49694750D01*
X50515813Y49695248D01*
X49988200Y49477243D01*
X49584176Y49073923D01*
X49530137Y48943785D01*
X49477243Y49071800D01*
X49073923Y49475824D01*
X48546691Y49694750D01*
X47975813Y49695248D01*
X47448200Y49477243D01*
X47044176Y49073923D01*
X46990137Y48943785D01*
X46937243Y49071800D01*
X46533923Y49475824D01*
X46006691Y49694750D01*
X45435813Y49695248D01*
X44908200Y49477243D01*
X44577000Y49146621D01*
X44577000Y51524679D01*
X44577000Y52615321D01*
X44470660Y53149930D01*
X44167828Y53603149D01*
X43714609Y53905981D01*
X43180000Y54012321D01*
X42645391Y53905981D01*
X42192172Y53603149D01*
X41910000Y53180850D01*
X41627828Y53603149D01*
X41174609Y53905981D01*
X40640000Y54012321D01*
X40105391Y53905981D01*
X39652172Y53603149D01*
X39370000Y53180850D01*
X39087828Y53603149D01*
X38634609Y53905981D01*
X38100000Y54012321D01*
X37565391Y53905981D01*
X37112172Y53603149D01*
X36830000Y53180850D01*
X36547828Y53603149D01*
X36094609Y53905981D01*
X35560000Y54012321D01*
X35025391Y53905981D01*
X34572172Y53603149D01*
X34290000Y53180850D01*
X34007828Y53603149D01*
X33554609Y53905981D01*
X33020000Y54012321D01*
X32485391Y53905981D01*
X32032172Y53603149D01*
X31750000Y53180850D01*
X31467828Y53603149D01*
X31014609Y53905981D01*
X30480000Y54012321D01*
X29945391Y53905981D01*
X29492172Y53603149D01*
X29210000Y53180850D01*
X28927828Y53603149D01*
X28474609Y53905981D01*
X27940000Y54012321D01*
X27405391Y53905981D01*
X26952172Y53603149D01*
X26670000Y53180850D01*
X26387828Y53603149D01*
X25934609Y53905981D01*
X25400000Y54012321D01*
X24865391Y53905981D01*
X24412172Y53603149D01*
X24130000Y53180850D01*
X23847828Y53603149D01*
X23394609Y53905981D01*
X22860000Y54012321D01*
X22325391Y53905981D01*
X21872172Y53603149D01*
X21590000Y53180850D01*
X21307828Y53603149D01*
X20854609Y53905981D01*
X20320000Y54012321D01*
X19785391Y53905981D01*
X19332172Y53603149D01*
X19029340Y53149930D01*
X18929637Y52648692D01*
X18649242Y53327300D01*
X18024589Y53953045D01*
X17208022Y54292113D01*
X16323857Y54292885D01*
X15506700Y53955242D01*
X14880955Y53330589D01*
X14541887Y52514022D01*
X14541115Y51629857D01*
X14878758Y50812700D01*
X15503411Y50186955D01*
X16319978Y49847887D01*
X17204143Y49847115D01*
X18021300Y50184758D01*
X18647045Y50809411D01*
X18929817Y51490404D01*
X19029340Y50990070D01*
X19332172Y50536851D01*
X19785391Y50234019D01*
X20320000Y50127679D01*
X20854609Y50234019D01*
X21307828Y50536851D01*
X21590000Y50959151D01*
X21872172Y50536851D01*
X22325391Y50234019D01*
X22860000Y50127679D01*
X23394609Y50234019D01*
X23847828Y50536851D01*
X24130000Y50959151D01*
X24412172Y50536851D01*
X24865391Y50234019D01*
X25400000Y50127679D01*
X25934609Y50234019D01*
X26387828Y50536851D01*
X26670000Y50959151D01*
X26952172Y50536851D01*
X27405391Y50234019D01*
X27940000Y50127679D01*
X28474609Y50234019D01*
X28927828Y50536851D01*
X29210000Y50959151D01*
X29492172Y50536851D01*
X29945391Y50234019D01*
X30480000Y50127679D01*
X31014609Y50234019D01*
X31467828Y50536851D01*
X31750000Y50959151D01*
X32032172Y50536851D01*
X32485391Y50234019D01*
X33020000Y50127679D01*
X33554609Y50234019D01*
X34007828Y50536851D01*
X34290000Y50959151D01*
X34572172Y50536851D01*
X35025391Y50234019D01*
X35560000Y50127679D01*
X36094609Y50234019D01*
X36547828Y50536851D01*
X36830000Y50959151D01*
X37112172Y50536851D01*
X37565391Y50234019D01*
X38100000Y50127679D01*
X38634609Y50234019D01*
X39087828Y50536851D01*
X39370000Y50959151D01*
X39652172Y50536851D01*
X40105391Y50234019D01*
X40640000Y50127679D01*
X41174609Y50234019D01*
X41627828Y50536851D01*
X41910000Y50959151D01*
X42192172Y50536851D01*
X42645391Y50234019D01*
X43180000Y50127679D01*
X43714609Y50234019D01*
X44167828Y50536851D01*
X44470660Y50990070D01*
X44577000Y51524679D01*
X44577000Y49146621D01*
X44504176Y49073923D01*
X44450137Y48943785D01*
X44397243Y49071800D01*
X43993923Y49475824D01*
X43466691Y49694750D01*
X42895813Y49695248D01*
X42368200Y49477243D01*
X41964176Y49073923D01*
X41910137Y48943785D01*
X41857243Y49071800D01*
X41453923Y49475824D01*
X40926691Y49694750D01*
X40355813Y49695248D01*
X39828200Y49477243D01*
X39424176Y49073923D01*
X39370137Y48943785D01*
X39317243Y49071800D01*
X38913923Y49475824D01*
X38386691Y49694750D01*
X37815813Y49695248D01*
X37288200Y49477243D01*
X36884176Y49073923D01*
X36830137Y48943785D01*
X36777243Y49071800D01*
X36373923Y49475824D01*
X35846691Y49694750D01*
X35275813Y49695248D01*
X34748200Y49477243D01*
X34344176Y49073923D01*
X34290137Y48943785D01*
X34237243Y49071800D01*
X33833923Y49475824D01*
X33306691Y49694750D01*
X32735813Y49695248D01*
X32208200Y49477243D01*
X31804176Y49073923D01*
X31750137Y48943785D01*
X31697243Y49071800D01*
X31293923Y49475824D01*
X30766691Y49694750D01*
X30195813Y49695248D01*
X29668200Y49477243D01*
X29264176Y49073923D01*
X29210137Y48943785D01*
X29157243Y49071800D01*
X28753923Y49475824D01*
X28226691Y49694750D01*
X27655813Y49695248D01*
X27128200Y49477243D01*
X26724176Y49073923D01*
X26670137Y48943785D01*
X26617243Y49071800D01*
X26213923Y49475824D01*
X25686691Y49694750D01*
X25115813Y49695248D01*
X24588200Y49477243D01*
X24184176Y49073923D01*
X24130137Y48943785D01*
X24077243Y49071800D01*
X23673923Y49475824D01*
X23146691Y49694750D01*
X22575813Y49695248D01*
X22048200Y49477243D01*
X21644176Y49073923D01*
X21590137Y48943785D01*
X21537243Y49071800D01*
X21133923Y49475824D01*
X20606691Y49694750D01*
X20035813Y49695248D01*
X19508200Y49477243D01*
X19104176Y49073923D01*
X19050137Y48943785D01*
X18997243Y49071800D01*
X18593923Y49475824D01*
X18066691Y49694750D01*
X17495813Y49695248D01*
X16968200Y49477243D01*
X16564176Y49073923D01*
X16510137Y48943785D01*
X16457243Y49071800D01*
X16053923Y49475824D01*
X15526691Y49694750D01*
X14955813Y49695248D01*
X14428200Y49477243D01*
X14024176Y49073923D01*
X13970137Y48943785D01*
X13917243Y49071800D01*
X13513923Y49475824D01*
X12986691Y49694750D01*
X12415813Y49695248D01*
X11888200Y49477243D01*
X11484176Y49073923D01*
X11430137Y48943785D01*
X11377243Y49071800D01*
X10973923Y49475824D01*
X10446691Y49694750D01*
X9875813Y49695248D01*
X9348200Y49477243D01*
X8944176Y49073923D01*
X8890137Y48943785D01*
X8837243Y49071800D01*
X8433923Y49475824D01*
X7906691Y49694750D01*
X7335813Y49695248D01*
X6808200Y49477243D01*
X6404176Y49073923D01*
X6350137Y48943785D01*
X6297243Y49071800D01*
X5893923Y49475824D01*
X5366691Y49694750D01*
X4795813Y49695248D01*
X4268200Y49477243D01*
X3864176Y49073923D01*
X3645250Y48546691D01*
X3644752Y47975813D01*
X3862757Y47448200D01*
X4266077Y47044176D01*
X4396215Y46990138D01*
X4268200Y46937243D01*
X3864176Y46533923D01*
X3645250Y46006691D01*
X3644752Y45435813D01*
X3862757Y44908200D01*
X4266077Y44504176D01*
X4396215Y44450138D01*
X4268200Y44397243D01*
X3864176Y43993923D01*
X3645250Y43466691D01*
X3644752Y42895813D01*
X3862757Y42368200D01*
X4266077Y41964176D01*
X4396215Y41910138D01*
X4268200Y41857243D01*
X3864176Y41453923D01*
X3645250Y40926691D01*
X3644752Y40355813D01*
X3862757Y39828200D01*
X4266077Y39424176D01*
X4396215Y39370138D01*
X4268200Y39317243D01*
X3864176Y38913923D01*
X3645250Y38386691D01*
X3644752Y37815813D01*
X3862757Y37288200D01*
X4266077Y36884176D01*
X4396215Y36830138D01*
X4268200Y36777243D01*
X3864176Y36373923D01*
X3645250Y35846691D01*
X3644752Y35275813D01*
X3862757Y34748200D01*
X4266077Y34344176D01*
X4396215Y34290138D01*
X4268200Y34237243D01*
X3864176Y33833923D01*
X3645250Y33306691D01*
X3644752Y32735813D01*
X3862757Y32208200D01*
X4266077Y31804176D01*
X4396215Y31750138D01*
X4268200Y31697243D01*
X3864176Y31293923D01*
X3645250Y30766691D01*
X3644752Y30195813D01*
X3862757Y29668200D01*
X4266077Y29264176D01*
X4396215Y29210138D01*
X4268200Y29157243D01*
X3864176Y28753923D01*
X3645250Y28226691D01*
X3644752Y27655813D01*
X3862757Y27128200D01*
X4266077Y26724176D01*
X4396215Y26670138D01*
X4268200Y26617243D01*
X3864176Y26213923D01*
X3645250Y25686691D01*
X3644752Y25115813D01*
X3862757Y24588200D01*
X4266077Y24184176D01*
X4396215Y24130138D01*
X4268200Y24077243D01*
X3864176Y23673923D01*
X3645250Y23146691D01*
X3644752Y22575813D01*
X3862757Y22048200D01*
X4266077Y21644176D01*
X4396215Y21590138D01*
X4268200Y21537243D01*
X3864176Y21133923D01*
X3645250Y20606691D01*
X3644752Y20035813D01*
X3862757Y19508200D01*
X4266077Y19104176D01*
X4396215Y19050138D01*
X4268200Y18997243D01*
X3864176Y18593923D01*
X3645250Y18066691D01*
X3644752Y17495813D01*
X3862757Y16968200D01*
X4266077Y16564176D01*
X4396215Y16510138D01*
X4268200Y16457243D01*
X3864176Y16053923D01*
X3645250Y15526691D01*
X3644752Y14955813D01*
X3862757Y14428200D01*
X4266077Y14024176D01*
X4396215Y13970138D01*
X4268200Y13917243D01*
X3864176Y13513923D01*
X3645250Y12986691D01*
X3644752Y12415813D01*
X3862757Y11888200D01*
X4266077Y11484176D01*
X4396215Y11430138D01*
X4268200Y11377243D01*
X3864176Y10973923D01*
X3645250Y10446691D01*
X3644752Y9875813D01*
X3862757Y9348200D01*
X4266077Y8944176D01*
X4396215Y8890138D01*
X4268200Y8837243D01*
X3864176Y8433923D01*
X3645250Y7906691D01*
X3644752Y7335813D01*
X3862757Y6808200D01*
X4266077Y6404176D01*
X4793309Y6185250D01*
X5364187Y6184752D01*
X5891800Y6402757D01*
X6295824Y6806077D01*
X6349862Y6936216D01*
X6402757Y6808200D01*
X6806077Y6404176D01*
X7333309Y6185250D01*
X7904187Y6184752D01*
X8431800Y6402757D01*
X8835824Y6806077D01*
X8889862Y6936216D01*
X8942757Y6808200D01*
X9346077Y6404176D01*
X9873309Y6185250D01*
X10444187Y6184752D01*
X10971800Y6402757D01*
X11375824Y6806077D01*
X11429862Y6936216D01*
X11482757Y6808200D01*
X11886077Y6404176D01*
X12413309Y6185250D01*
X12984187Y6184752D01*
X13511800Y6402757D01*
X13915824Y6806077D01*
X13969862Y6936216D01*
X14022757Y6808200D01*
X14426077Y6404176D01*
X14953309Y6185250D01*
X15524187Y6184752D01*
X16051800Y6402757D01*
X16455824Y6806077D01*
X16509862Y6936216D01*
X16562757Y6808200D01*
X16966077Y6404176D01*
X17493309Y6185250D01*
X18064187Y6184752D01*
X18591800Y6402757D01*
X18995824Y6806077D01*
X19049862Y6936216D01*
X19102757Y6808200D01*
X19506077Y6404176D01*
X20033309Y6185250D01*
X20604187Y6184752D01*
X21131800Y6402757D01*
X21535824Y6806077D01*
X21589862Y6936216D01*
X21642757Y6808200D01*
X22046077Y6404176D01*
X22573309Y6185250D01*
X23144187Y6184752D01*
X23671800Y6402757D01*
X24075824Y6806077D01*
X24129862Y6936216D01*
X24182757Y6808200D01*
X24586077Y6404176D01*
X25113309Y6185250D01*
X25684187Y6184752D01*
X26211800Y6402757D01*
X26615824Y6806077D01*
X26669862Y6936216D01*
X26722757Y6808200D01*
X27126077Y6404176D01*
X27653309Y6185250D01*
X28224187Y6184752D01*
X28751800Y6402757D01*
X29155824Y6806077D01*
X29209862Y6936216D01*
X29262757Y6808200D01*
X29666077Y6404176D01*
X30193309Y6185250D01*
X30764187Y6184752D01*
X31291800Y6402757D01*
X31695824Y6806077D01*
X31749862Y6936216D01*
X31802757Y6808200D01*
X32206077Y6404176D01*
X32733309Y6185250D01*
X33304187Y6184752D01*
X33831800Y6402757D01*
X34235824Y6806077D01*
X34289862Y6936216D01*
X34342757Y6808200D01*
X34746077Y6404176D01*
X35273309Y6185250D01*
X35844187Y6184752D01*
X36371800Y6402757D01*
X36775824Y6806077D01*
X36829862Y6936216D01*
X36882757Y6808200D01*
X37286077Y6404176D01*
X37813309Y6185250D01*
X38384187Y6184752D01*
X38911800Y6402757D01*
X39315824Y6806077D01*
X39369862Y6936216D01*
X39422757Y6808200D01*
X39826077Y6404176D01*
X40353309Y6185250D01*
X40924187Y6184752D01*
X41451800Y6402757D01*
X41855824Y6806077D01*
X41909862Y6936216D01*
X41962757Y6808200D01*
X42366077Y6404176D01*
X42893309Y6185250D01*
X43464187Y6184752D01*
X43991800Y6402757D01*
X44395824Y6806077D01*
X44449862Y6936216D01*
X44502757Y6808200D01*
X44906077Y6404176D01*
X45433309Y6185250D01*
X46004187Y6184752D01*
X46531800Y6402757D01*
X46935824Y6806077D01*
X46989862Y6936216D01*
X47042757Y6808200D01*
X47446077Y6404176D01*
X47973309Y6185250D01*
X48544187Y6184752D01*
X49071800Y6402757D01*
X49475824Y6806077D01*
X49529862Y6936216D01*
X49582757Y6808200D01*
X49986077Y6404176D01*
X50513309Y6185250D01*
X51084187Y6184752D01*
X51611800Y6402757D01*
X52015824Y6806077D01*
X52069862Y6936216D01*
X52122757Y6808200D01*
X52526077Y6404176D01*
X53053309Y6185250D01*
X53624187Y6184752D01*
X54151800Y6402757D01*
X54555824Y6806077D01*
X54609862Y6936216D01*
X54662757Y6808200D01*
X55066077Y6404176D01*
X55593309Y6185250D01*
X56164187Y6184752D01*
X56691800Y6402757D01*
X57095824Y6806077D01*
X57149862Y6936216D01*
X57202757Y6808200D01*
X57606077Y6404176D01*
X58133309Y6185250D01*
X58704187Y6184752D01*
X59231800Y6402757D01*
X59635824Y6806077D01*
X59689862Y6936216D01*
X59742757Y6808200D01*
X60146077Y6404176D01*
X60673309Y6185250D01*
X61244187Y6184752D01*
X61771800Y6402757D01*
X62175824Y6806077D01*
X62229862Y6936216D01*
X62282757Y6808200D01*
X62686077Y6404176D01*
X63213309Y6185250D01*
X63784187Y6184752D01*
X64311800Y6402757D01*
X64715824Y6806077D01*
X64934750Y7333309D01*
X64935248Y7904187D01*
X64935248Y5734668D01*
X64489391Y5645981D01*
X64036172Y5343149D01*
X63754000Y4920850D01*
X63471828Y5343149D01*
X63018609Y5645981D01*
X62484000Y5752321D01*
X61949391Y5645981D01*
X61496172Y5343149D01*
X61214000Y4920850D01*
X60931828Y5343149D01*
X60478609Y5645981D01*
X59944000Y5752321D01*
X59409391Y5645981D01*
X58956172Y5343149D01*
X58674000Y4920850D01*
X58391828Y5343149D01*
X57938609Y5645981D01*
X57404000Y5752321D01*
X56869391Y5645981D01*
X56416172Y5343149D01*
X56134000Y4920850D01*
X55851828Y5343149D01*
X55398609Y5645981D01*
X54864000Y5752321D01*
X54329391Y5645981D01*
X53876172Y5343149D01*
X53594000Y4920850D01*
X53311828Y5343149D01*
X52858609Y5645981D01*
X52324000Y5752321D01*
X51789391Y5645981D01*
X51336172Y5343149D01*
X51033340Y4889930D01*
X50927000Y4355321D01*
X50927000Y3264679D01*
X51033340Y2730070D01*
X51336172Y2276851D01*
X51789391Y1974019D01*
X52324000Y1867679D01*
X52858609Y1974019D01*
X53311828Y2276851D01*
X53594000Y2699151D01*
X53876172Y2276851D01*
X54329391Y1974019D01*
X54864000Y1867679D01*
X55398609Y1974019D01*
X55851828Y2276851D01*
X56134000Y2699151D01*
X56416172Y2276851D01*
X56869391Y1974019D01*
X57404000Y1867679D01*
X57938609Y1974019D01*
X58391828Y2276851D01*
X58674000Y2699151D01*
X58956172Y2276851D01*
X59409391Y1974019D01*
X59944000Y1867679D01*
X60478609Y1974019D01*
X60931828Y2276851D01*
X61214000Y2699151D01*
X61496172Y2276851D01*
X61949391Y1974019D01*
X62484000Y1867679D01*
X63018609Y1974019D01*
X63471828Y2276851D01*
X63754000Y2699151D01*
X64036172Y2276851D01*
X64489391Y1974019D01*
X65024000Y1867679D01*
X65558609Y1974019D01*
X66011828Y2276851D01*
X66314660Y2730070D01*
X66421000Y3264679D01*
X66421000Y127000D01*
X48641000Y127000D01*
X48641000Y3264679D01*
X48641000Y4355321D01*
X48534660Y4889930D01*
X48231828Y5343149D01*
X47778609Y5645981D01*
X47244000Y5752321D01*
X46709391Y5645981D01*
X46256172Y5343149D01*
X45974000Y4920850D01*
X45691828Y5343149D01*
X45238609Y5645981D01*
X44704000Y5752321D01*
X44169391Y5645981D01*
X43716172Y5343149D01*
X43424670Y4906887D01*
X43406059Y4969941D01*
X43062026Y5395630D01*
X42581277Y5657260D01*
X42507070Y5672220D01*
X42291000Y5549720D01*
X42291000Y3937000D01*
X42311000Y3937000D01*
X42311000Y3683000D01*
X42291000Y3683000D01*
X42291000Y2070280D01*
X42507070Y1947780D01*
X42581277Y1962740D01*
X43062026Y2224370D01*
X43406059Y2650059D01*
X43424670Y2713114D01*
X43716172Y2276851D01*
X44169391Y1974019D01*
X44704000Y1867679D01*
X45238609Y1974019D01*
X45691828Y2276851D01*
X45974000Y2699151D01*
X46256172Y2276851D01*
X46709391Y1974019D01*
X47244000Y1867679D01*
X47778609Y1974019D01*
X48231828Y2276851D01*
X48534660Y2730070D01*
X48641000Y3264679D01*
X48641000Y127000D01*
X42037000Y127000D01*
X42037000Y2070280D01*
X42037000Y3683000D01*
X42017000Y3683000D01*
X42017000Y3937000D01*
X42037000Y3937000D01*
X42037000Y5549720D01*
X41820930Y5672220D01*
X41746723Y5657260D01*
X41265974Y5395630D01*
X40921941Y4969941D01*
X40903329Y4906887D01*
X40611828Y5343149D01*
X40158609Y5645981D01*
X39624000Y5752321D01*
X39089391Y5645981D01*
X38636172Y5343149D01*
X38354000Y4920850D01*
X38071828Y5343149D01*
X37618609Y5645981D01*
X37084000Y5752321D01*
X36549391Y5645981D01*
X36096172Y5343149D01*
X35814000Y4920850D01*
X35531828Y5343149D01*
X35078609Y5645981D01*
X34544000Y5752321D01*
X34009391Y5645981D01*
X33556172Y5343149D01*
X33274000Y4920850D01*
X32991828Y5343149D01*
X32538609Y5645981D01*
X32004000Y5752321D01*
X31469391Y5645981D01*
X31016172Y5343149D01*
X30734000Y4920850D01*
X30451828Y5343149D01*
X29998609Y5645981D01*
X29464000Y5752321D01*
X28929391Y5645981D01*
X28476172Y5343149D01*
X28173340Y4889930D01*
X28067000Y4355321D01*
X28067000Y3264679D01*
X28173340Y2730070D01*
X28476172Y2276851D01*
X28929391Y1974019D01*
X29464000Y1867679D01*
X29998609Y1974019D01*
X30451828Y2276851D01*
X30734000Y2699151D01*
X31016172Y2276851D01*
X31469391Y1974019D01*
X32004000Y1867679D01*
X32538609Y1974019D01*
X32991828Y2276851D01*
X33274000Y2699151D01*
X33556172Y2276851D01*
X34009391Y1974019D01*
X34544000Y1867679D01*
X35078609Y1974019D01*
X35531828Y2276851D01*
X35814000Y2699151D01*
X36096172Y2276851D01*
X36549391Y1974019D01*
X37084000Y1867679D01*
X37618609Y1974019D01*
X38071828Y2276851D01*
X38354000Y2699151D01*
X38636172Y2276851D01*
X39089391Y1974019D01*
X39624000Y1867679D01*
X40158609Y1974019D01*
X40611828Y2276851D01*
X40903329Y2713114D01*
X40921941Y2650059D01*
X41265974Y2224370D01*
X41746723Y1962740D01*
X41820930Y1947780D01*
X42037000Y2070280D01*
X42037000Y127000D01*
X17716885Y127000D01*
X17716885Y4250143D01*
X17379242Y5067300D01*
X16754589Y5693045D01*
X15938022Y6032113D01*
X15053857Y6032885D01*
X14236700Y5695242D01*
X13610955Y5070589D01*
X13271887Y4254022D01*
X13271115Y3369857D01*
X13608758Y2552700D01*
X14233411Y1926955D01*
X15049978Y1587887D01*
X15934143Y1587115D01*
X16751300Y1924758D01*
X17377045Y2549411D01*
X17716113Y3365978D01*
X17716885Y4250143D01*
X17716885Y127000D01*
X127000Y127000D01*
X127000Y54483000D01*
X1270000Y54483000D01*
X68453000Y54483000D01*
X68453000Y41910006D01*
X68452999Y41910000D01*
X68462667Y41861399D01*
X68490197Y41820197D01*
X70993000Y39317395D01*
X70993000Y6388452D01*
X70993000Y6388452D01*
G37*
X70993000Y6388452D02*
X69786885Y4579280D01*
X69786885Y9330143D01*
X69786885Y37270143D01*
X69449242Y38087300D01*
X68824589Y38713045D01*
X68008022Y39052113D01*
X67123857Y39052885D01*
X66421000Y38762470D01*
X66421000Y51524679D01*
X66421000Y52615321D01*
X66314660Y53149930D01*
X66011828Y53603149D01*
X65558609Y53905981D01*
X65024000Y54012321D01*
X64489391Y53905981D01*
X64036172Y53603149D01*
X63754000Y53180850D01*
X63471828Y53603149D01*
X63018609Y53905981D01*
X62484000Y54012321D01*
X61949391Y53905981D01*
X61496172Y53603149D01*
X61214000Y53180850D01*
X60931828Y53603149D01*
X60478609Y53905981D01*
X59944000Y54012321D01*
X59409391Y53905981D01*
X58956172Y53603149D01*
X58674000Y53180850D01*
X58391828Y53603149D01*
X57938609Y53905981D01*
X57404000Y54012321D01*
X56869391Y53905981D01*
X56416172Y53603149D01*
X56134000Y53180850D01*
X55851828Y53603149D01*
X55398609Y53905981D01*
X54864000Y54012321D01*
X54329391Y53905981D01*
X53876172Y53603149D01*
X53594000Y53180850D01*
X53311828Y53603149D01*
X52858609Y53905981D01*
X52324000Y54012321D01*
X51789391Y53905981D01*
X51336172Y53603149D01*
X51054000Y53180850D01*
X50771828Y53603149D01*
X50318609Y53905981D01*
X49784000Y54012321D01*
X49249391Y53905981D01*
X48796172Y53603149D01*
X48514000Y53180850D01*
X48231828Y53603149D01*
X47778609Y53905981D01*
X47244000Y54012321D01*
X46709391Y53905981D01*
X46256172Y53603149D01*
X45953340Y53149930D01*
X45847000Y52615321D01*
X45847000Y51524679D01*
X45953340Y50990070D01*
X46256172Y50536851D01*
X46709391Y50234019D01*
X47244000Y50127679D01*
X47778609Y50234019D01*
X48231828Y50536851D01*
X48514000Y50959151D01*
X48796172Y50536851D01*
X49249391Y50234019D01*
X49784000Y50127679D01*
X50318609Y50234019D01*
X50771828Y50536851D01*
X51054000Y50959151D01*
X51336172Y50536851D01*
X51789391Y50234019D01*
X52324000Y50127679D01*
X52858609Y50234019D01*
X53311828Y50536851D01*
X53594000Y50959151D01*
X53876172Y50536851D01*
X54329391Y50234019D01*
X54864000Y50127679D01*
X55398609Y50234019D01*
X55851828Y50536851D01*
X56134000Y50959151D01*
X56416172Y50536851D01*
X56869391Y50234019D01*
X57404000Y50127679D01*
X57938609Y50234019D01*
X58391828Y50536851D01*
X58674000Y50959151D01*
X58956172Y50536851D01*
X59409391Y50234019D01*
X59944000Y50127679D01*
X60478609Y50234019D01*
X60931828Y50536851D01*
X61214000Y50959151D01*
X61496172Y50536851D01*
X61949391Y50234019D01*
X62484000Y50127679D01*
X63018609Y50234019D01*
X63471828Y50536851D01*
X63754000Y50959151D01*
X64036172Y50536851D01*
X64489391Y50234019D01*
X65024000Y50127679D01*
X65558609Y50234019D01*
X66011828Y50536851D01*
X66314660Y50990070D01*
X66421000Y51524679D01*
X66421000Y38762470D01*
X66306700Y38715242D01*
X65680955Y38090589D01*
X65341887Y37274022D01*
X65341115Y36389857D01*
X65678758Y35572700D01*
X66303411Y34946955D01*
X67119978Y34607887D01*
X68004143Y34607115D01*
X68821300Y34944758D01*
X69447045Y35569411D01*
X69786113Y36385978D01*
X69786885Y37270143D01*
X69786885Y9330143D01*
X69449242Y10147300D01*
X68961242Y10636154D01*
X68961242Y26946661D01*
X68749010Y27460303D01*
X68356370Y27853629D01*
X68148487Y27939950D01*
X68354303Y28024990D01*
X68747629Y28417630D01*
X68960757Y28930900D01*
X68961242Y29486661D01*
X68749010Y30000303D01*
X68356370Y30393629D01*
X68148487Y30479950D01*
X68354303Y30564990D01*
X68747629Y30957630D01*
X68960757Y31470900D01*
X68961242Y32026661D01*
X68749010Y32540303D01*
X68356370Y32933629D01*
X67843100Y33146757D01*
X67287339Y33147242D01*
X66773697Y32935010D01*
X66380371Y32542370D01*
X66294050Y32334488D01*
X66209010Y32540303D01*
X65816370Y32933629D01*
X65303100Y33146757D01*
X64747339Y33147242D01*
X64233697Y32935010D01*
X63840371Y32542370D01*
X63627243Y32029100D01*
X63626758Y31473339D01*
X63838990Y30959697D01*
X64231630Y30566371D01*
X64439512Y30480051D01*
X64233697Y30395010D01*
X63840371Y30002370D01*
X63627243Y29489100D01*
X63626758Y28933339D01*
X63838990Y28419697D01*
X64231630Y28026371D01*
X64439512Y27940051D01*
X64233697Y27855010D01*
X63840371Y27462370D01*
X63627243Y26949100D01*
X63626758Y26393339D01*
X63838990Y25879697D01*
X64231630Y25486371D01*
X64744900Y25273243D01*
X65300661Y25272758D01*
X65814303Y25484990D01*
X66207629Y25877630D01*
X66293949Y26085513D01*
X66378990Y25879697D01*
X66771630Y25486371D01*
X67284900Y25273243D01*
X67840661Y25272758D01*
X68354303Y25484990D01*
X68747629Y25877630D01*
X68960757Y26390900D01*
X68961242Y26946661D01*
X68961242Y10636154D01*
X68824589Y10773045D01*
X68008022Y11112113D01*
X67123857Y11112885D01*
X66306700Y10775242D01*
X65680955Y10150589D01*
X65341887Y9334022D01*
X65341115Y8449857D01*
X65678758Y7632700D01*
X66303411Y7006955D01*
X67119978Y6667887D01*
X68004143Y6667115D01*
X68821300Y7004758D01*
X69447045Y7629411D01*
X69786113Y8445978D01*
X69786885Y9330143D01*
X69786885Y4579280D01*
X68474330Y2610447D01*
X68469581Y2598950D01*
X68462667Y2588601D01*
X68460213Y2576268D01*
X68455414Y2564646D01*
X68455427Y2552203D01*
X68453000Y2540000D01*
X68453000Y127000D01*
X66421000Y127000D01*
X66421000Y3264679D01*
X66421000Y4355321D01*
X66314660Y4889930D01*
X66011828Y5343149D01*
X65558609Y5645981D01*
X65024000Y5752321D01*
X64935248Y5734668D01*
X64935248Y7904187D01*
X64717243Y8431800D01*
X64313923Y8835824D01*
X64183784Y8889863D01*
X64311800Y8942757D01*
X64715824Y9346077D01*
X64934750Y9873309D01*
X64935248Y10444187D01*
X64717243Y10971800D01*
X64313923Y11375824D01*
X64183784Y11429863D01*
X64311800Y11482757D01*
X64715824Y11886077D01*
X64934750Y12413309D01*
X64935248Y12984187D01*
X64717243Y13511800D01*
X64313923Y13915824D01*
X64183784Y13969863D01*
X64311800Y14022757D01*
X64715824Y14426077D01*
X64934750Y14953309D01*
X64935248Y15524187D01*
X64717243Y16051800D01*
X64313923Y16455824D01*
X64183784Y16509863D01*
X64311800Y16562757D01*
X64715824Y16966077D01*
X64934750Y17493309D01*
X64935248Y18064187D01*
X64717243Y18591800D01*
X64313923Y18995824D01*
X64183784Y19049863D01*
X64311800Y19102757D01*
X64715824Y19506077D01*
X64934750Y20033309D01*
X64935248Y20604187D01*
X64717243Y21131800D01*
X64313923Y21535824D01*
X64183784Y21589863D01*
X64311800Y21642757D01*
X64715824Y22046077D01*
X64934750Y22573309D01*
X64935248Y23144187D01*
X64717243Y23671800D01*
X64313923Y24075824D01*
X63786691Y24294750D01*
X63215813Y24295248D01*
X62688200Y24077243D01*
X62284176Y23673923D01*
X62230137Y23543785D01*
X62177243Y23671800D01*
X61773923Y24075824D01*
X61643784Y24129863D01*
X61771800Y24182757D01*
X62175824Y24586077D01*
X62394750Y25113309D01*
X62395248Y25684187D01*
X62177243Y26211800D01*
X61773923Y26615824D01*
X61643784Y26669863D01*
X61771800Y26722757D01*
X62175824Y27126077D01*
X62394750Y27653309D01*
X62395248Y28224187D01*
X62177243Y28751800D01*
X61773923Y29155824D01*
X61643784Y29209863D01*
X61771800Y29262757D01*
X62175824Y29666077D01*
X62394750Y30193309D01*
X62395248Y30764187D01*
X62177243Y31291800D01*
X61773923Y31695824D01*
X61643784Y31749863D01*
X61771800Y31802757D01*
X62175824Y32206077D01*
X62394750Y32733309D01*
X62395248Y33304187D01*
X62177243Y33831800D01*
X61773923Y34235824D01*
X61643784Y34289863D01*
X61771800Y34342757D01*
X62175824Y34746077D01*
X62229862Y34876216D01*
X62282757Y34748200D01*
X62686077Y34344176D01*
X63213309Y34125250D01*
X63784187Y34124752D01*
X64311800Y34342757D01*
X64715824Y34746077D01*
X64934750Y35273309D01*
X64935248Y35844187D01*
X64717243Y36371800D01*
X64313923Y36775824D01*
X64183784Y36829863D01*
X64311800Y36882757D01*
X64715824Y37286077D01*
X64934750Y37813309D01*
X64935248Y38384187D01*
X64717243Y38911800D01*
X64313923Y39315824D01*
X64183784Y39369863D01*
X64311800Y39422757D01*
X64715824Y39826077D01*
X64934750Y40353309D01*
X64935248Y40924187D01*
X64717243Y41451800D01*
X64313923Y41855824D01*
X64183784Y41909863D01*
X64311800Y41962757D01*
X64715824Y42366077D01*
X64934750Y42893309D01*
X64935248Y43464187D01*
X64717243Y43991800D01*
X64313923Y44395824D01*
X64183784Y44449863D01*
X64311800Y44502757D01*
X64715824Y44906077D01*
X64934750Y45433309D01*
X64935248Y46004187D01*
X64717243Y46531800D01*
X64313923Y46935824D01*
X64183784Y46989863D01*
X64311800Y47042757D01*
X64715824Y47446077D01*
X64934750Y47973309D01*
X64935248Y48544187D01*
X64717243Y49071800D01*
X64313923Y49475824D01*
X63786691Y49694750D01*
X63215813Y49695248D01*
X62688200Y49477243D01*
X62284176Y49073923D01*
X62230137Y48943785D01*
X62177243Y49071800D01*
X61773923Y49475824D01*
X61246691Y49694750D01*
X60675813Y49695248D01*
X60148200Y49477243D01*
X59744176Y49073923D01*
X59690137Y48943785D01*
X59637243Y49071800D01*
X59233923Y49475824D01*
X58706691Y49694750D01*
X58135813Y49695248D01*
X57608200Y49477243D01*
X57204176Y49073923D01*
X57150137Y48943785D01*
X57097243Y49071800D01*
X56693923Y49475824D01*
X56166691Y49694750D01*
X55595813Y49695248D01*
X55068200Y49477243D01*
X54664176Y49073923D01*
X54610137Y48943785D01*
X54557243Y49071800D01*
X54153923Y49475824D01*
X53626691Y49694750D01*
X53055813Y49695248D01*
X52528200Y49477243D01*
X52124176Y49073923D01*
X52070137Y48943785D01*
X52017243Y49071800D01*
X51613923Y49475824D01*
X51086691Y49694750D01*
X50515813Y49695248D01*
X49988200Y49477243D01*
X49584176Y49073923D01*
X49530137Y48943785D01*
X49477243Y49071800D01*
X49073923Y49475824D01*
X48546691Y49694750D01*
X47975813Y49695248D01*
X47448200Y49477243D01*
X47044176Y49073923D01*
X46990137Y48943785D01*
X46937243Y49071800D01*
X46533923Y49475824D01*
X46006691Y49694750D01*
X45435813Y49695248D01*
X44908200Y49477243D01*
X44577000Y49146621D01*
X44577000Y51524679D01*
X44577000Y52615321D01*
X44470660Y53149930D01*
X44167828Y53603149D01*
X43714609Y53905981D01*
X43180000Y54012321D01*
X42645391Y53905981D01*
X42192172Y53603149D01*
X41910000Y53180850D01*
X41627828Y53603149D01*
X41174609Y53905981D01*
X40640000Y54012321D01*
X40105391Y53905981D01*
X39652172Y53603149D01*
X39370000Y53180850D01*
X39087828Y53603149D01*
X38634609Y53905981D01*
X38100000Y54012321D01*
X37565391Y53905981D01*
X37112172Y53603149D01*
X36830000Y53180850D01*
X36547828Y53603149D01*
X36094609Y53905981D01*
X35560000Y54012321D01*
X35025391Y53905981D01*
X34572172Y53603149D01*
X34290000Y53180850D01*
X34007828Y53603149D01*
X33554609Y53905981D01*
X33020000Y54012321D01*
X32485391Y53905981D01*
X32032172Y53603149D01*
X31750000Y53180850D01*
X31467828Y53603149D01*
X31014609Y53905981D01*
X30480000Y54012321D01*
X29945391Y53905981D01*
X29492172Y53603149D01*
X29210000Y53180850D01*
X28927828Y53603149D01*
X28474609Y53905981D01*
X27940000Y54012321D01*
X27405391Y53905981D01*
X26952172Y53603149D01*
X26670000Y53180850D01*
X26387828Y53603149D01*
X25934609Y53905981D01*
X25400000Y54012321D01*
X24865391Y53905981D01*
X24412172Y53603149D01*
X24130000Y53180850D01*
X23847828Y53603149D01*
X23394609Y53905981D01*
X22860000Y54012321D01*
X22325391Y53905981D01*
X21872172Y53603149D01*
X21590000Y53180850D01*
X21307828Y53603149D01*
X20854609Y53905981D01*
X20320000Y54012321D01*
X19785391Y53905981D01*
X19332172Y53603149D01*
X19029340Y53149930D01*
X18929637Y52648692D01*
X18649242Y53327300D01*
X18024589Y53953045D01*
X17208022Y54292113D01*
X16323857Y54292885D01*
X15506700Y53955242D01*
X14880955Y53330589D01*
X14541887Y52514022D01*
X14541115Y51629857D01*
X14878758Y50812700D01*
X15503411Y50186955D01*
X16319978Y49847887D01*
X17204143Y49847115D01*
X18021300Y50184758D01*
X18647045Y50809411D01*
X18929817Y51490404D01*
X19029340Y50990070D01*
X19332172Y50536851D01*
X19785391Y50234019D01*
X20320000Y50127679D01*
X20854609Y50234019D01*
X21307828Y50536851D01*
X21590000Y50959151D01*
X21872172Y50536851D01*
X22325391Y50234019D01*
X22860000Y50127679D01*
X23394609Y50234019D01*
X23847828Y50536851D01*
X24130000Y50959151D01*
X24412172Y50536851D01*
X24865391Y50234019D01*
X25400000Y50127679D01*
X25934609Y50234019D01*
X26387828Y50536851D01*
X26670000Y50959151D01*
X26952172Y50536851D01*
X27405391Y50234019D01*
X27940000Y50127679D01*
X28474609Y50234019D01*
X28927828Y50536851D01*
X29210000Y50959151D01*
X29492172Y50536851D01*
X29945391Y50234019D01*
X30480000Y50127679D01*
X31014609Y50234019D01*
X31467828Y50536851D01*
X31750000Y50959151D01*
X32032172Y50536851D01*
X32485391Y50234019D01*
X33020000Y50127679D01*
X33554609Y50234019D01*
X34007828Y50536851D01*
X34290000Y50959151D01*
X34572172Y50536851D01*
X35025391Y50234019D01*
X35560000Y50127679D01*
X36094609Y50234019D01*
X36547828Y50536851D01*
X36830000Y50959151D01*
X37112172Y50536851D01*
X37565391Y50234019D01*
X38100000Y50127679D01*
X38634609Y50234019D01*
X39087828Y50536851D01*
X39370000Y50959151D01*
X39652172Y50536851D01*
X40105391Y50234019D01*
X40640000Y50127679D01*
X41174609Y50234019D01*
X41627828Y50536851D01*
X41910000Y50959151D01*
X42192172Y50536851D01*
X42645391Y50234019D01*
X43180000Y50127679D01*
X43714609Y50234019D01*
X44167828Y50536851D01*
X44470660Y50990070D01*
X44577000Y51524679D01*
X44577000Y49146621D01*
X44504176Y49073923D01*
X44450137Y48943785D01*
X44397243Y49071800D01*
X43993923Y49475824D01*
X43466691Y49694750D01*
X42895813Y49695248D01*
X42368200Y49477243D01*
X41964176Y49073923D01*
X41910137Y48943785D01*
X41857243Y49071800D01*
X41453923Y49475824D01*
X40926691Y49694750D01*
X40355813Y49695248D01*
X39828200Y49477243D01*
X39424176Y49073923D01*
X39370137Y48943785D01*
X39317243Y49071800D01*
X38913923Y49475824D01*
X38386691Y49694750D01*
X37815813Y49695248D01*
X37288200Y49477243D01*
X36884176Y49073923D01*
X36830137Y48943785D01*
X36777243Y49071800D01*
X36373923Y49475824D01*
X35846691Y49694750D01*
X35275813Y49695248D01*
X34748200Y49477243D01*
X34344176Y49073923D01*
X34290137Y48943785D01*
X34237243Y49071800D01*
X33833923Y49475824D01*
X33306691Y49694750D01*
X32735813Y49695248D01*
X32208200Y49477243D01*
X31804176Y49073923D01*
X31750137Y48943785D01*
X31697243Y49071800D01*
X31293923Y49475824D01*
X30766691Y49694750D01*
X30195813Y49695248D01*
X29668200Y49477243D01*
X29264176Y49073923D01*
X29210137Y48943785D01*
X29157243Y49071800D01*
X28753923Y49475824D01*
X28226691Y49694750D01*
X27655813Y49695248D01*
X27128200Y49477243D01*
X26724176Y49073923D01*
X26670137Y48943785D01*
X26617243Y49071800D01*
X26213923Y49475824D01*
X25686691Y49694750D01*
X25115813Y49695248D01*
X24588200Y49477243D01*
X24184176Y49073923D01*
X24130137Y48943785D01*
X24077243Y49071800D01*
X23673923Y49475824D01*
X23146691Y49694750D01*
X22575813Y49695248D01*
X22048200Y49477243D01*
X21644176Y49073923D01*
X21590137Y48943785D01*
X21537243Y49071800D01*
X21133923Y49475824D01*
X20606691Y49694750D01*
X20035813Y49695248D01*
X19508200Y49477243D01*
X19104176Y49073923D01*
X19050137Y48943785D01*
X18997243Y49071800D01*
X18593923Y49475824D01*
X18066691Y49694750D01*
X17495813Y49695248D01*
X16968200Y49477243D01*
X16564176Y49073923D01*
X16510137Y48943785D01*
X16457243Y49071800D01*
X16053923Y49475824D01*
X15526691Y49694750D01*
X14955813Y49695248D01*
X14428200Y49477243D01*
X14024176Y49073923D01*
X13970137Y48943785D01*
X13917243Y49071800D01*
X13513923Y49475824D01*
X12986691Y49694750D01*
X12415813Y49695248D01*
X11888200Y49477243D01*
X11484176Y49073923D01*
X11430137Y48943785D01*
X11377243Y49071800D01*
X10973923Y49475824D01*
X10446691Y49694750D01*
X9875813Y49695248D01*
X9348200Y49477243D01*
X8944176Y49073923D01*
X8890137Y48943785D01*
X8837243Y49071800D01*
X8433923Y49475824D01*
X7906691Y49694750D01*
X7335813Y49695248D01*
X6808200Y49477243D01*
X6404176Y49073923D01*
X6350137Y48943785D01*
X6297243Y49071800D01*
X5893923Y49475824D01*
X5366691Y49694750D01*
X4795813Y49695248D01*
X4268200Y49477243D01*
X3864176Y49073923D01*
X3645250Y48546691D01*
X3644752Y47975813D01*
X3862757Y47448200D01*
X4266077Y47044176D01*
X4396215Y46990138D01*
X4268200Y46937243D01*
X3864176Y46533923D01*
X3645250Y46006691D01*
X3644752Y45435813D01*
X3862757Y44908200D01*
X4266077Y44504176D01*
X4396215Y44450138D01*
X4268200Y44397243D01*
X3864176Y43993923D01*
X3645250Y43466691D01*
X3644752Y42895813D01*
X3862757Y42368200D01*
X4266077Y41964176D01*
X4396215Y41910138D01*
X4268200Y41857243D01*
X3864176Y41453923D01*
X3645250Y40926691D01*
X3644752Y40355813D01*
X3862757Y39828200D01*
X4266077Y39424176D01*
X4396215Y39370138D01*
X4268200Y39317243D01*
X3864176Y38913923D01*
X3645250Y38386691D01*
X3644752Y37815813D01*
X3862757Y37288200D01*
X4266077Y36884176D01*
X4396215Y36830138D01*
X4268200Y36777243D01*
X3864176Y36373923D01*
X3645250Y35846691D01*
X3644752Y35275813D01*
X3862757Y34748200D01*
X4266077Y34344176D01*
X4396215Y34290138D01*
X4268200Y34237243D01*
X3864176Y33833923D01*
X3645250Y33306691D01*
X3644752Y32735813D01*
X3862757Y32208200D01*
X4266077Y31804176D01*
X4396215Y31750138D01*
X4268200Y31697243D01*
X3864176Y31293923D01*
X3645250Y30766691D01*
X3644752Y30195813D01*
X3862757Y29668200D01*
X4266077Y29264176D01*
X4396215Y29210138D01*
X4268200Y29157243D01*
X3864176Y28753923D01*
X3645250Y28226691D01*
X3644752Y27655813D01*
X3862757Y27128200D01*
X4266077Y26724176D01*
X4396215Y26670138D01*
X4268200Y26617243D01*
X3864176Y26213923D01*
X3645250Y25686691D01*
X3644752Y25115813D01*
X3862757Y24588200D01*
X4266077Y24184176D01*
X4396215Y24130138D01*
X4268200Y24077243D01*
X3864176Y23673923D01*
X3645250Y23146691D01*
X3644752Y22575813D01*
X3862757Y22048200D01*
X4266077Y21644176D01*
X4396215Y21590138D01*
X4268200Y21537243D01*
X3864176Y21133923D01*
X3645250Y20606691D01*
X3644752Y20035813D01*
X3862757Y19508200D01*
X4266077Y19104176D01*
X4396215Y19050138D01*
X4268200Y18997243D01*
X3864176Y18593923D01*
X3645250Y18066691D01*
X3644752Y17495813D01*
X3862757Y16968200D01*
X4266077Y16564176D01*
X4396215Y16510138D01*
X4268200Y16457243D01*
X3864176Y16053923D01*
X3645250Y15526691D01*
X3644752Y14955813D01*
X3862757Y14428200D01*
X4266077Y14024176D01*
X4396215Y13970138D01*
X4268200Y13917243D01*
X3864176Y13513923D01*
X3645250Y12986691D01*
X3644752Y12415813D01*
X3862757Y11888200D01*
X4266077Y11484176D01*
X4396215Y11430138D01*
X4268200Y11377243D01*
X3864176Y10973923D01*
X3645250Y10446691D01*
X3644752Y9875813D01*
X3862757Y9348200D01*
X4266077Y8944176D01*
X4396215Y8890138D01*
X4268200Y8837243D01*
X3864176Y8433923D01*
X3645250Y7906691D01*
X3644752Y7335813D01*
X3862757Y6808200D01*
X4266077Y6404176D01*
X4793309Y6185250D01*
X5364187Y6184752D01*
X5891800Y6402757D01*
X6295824Y6806077D01*
X6349862Y6936216D01*
X6402757Y6808200D01*
X6806077Y6404176D01*
X7333309Y6185250D01*
X7904187Y6184752D01*
X8431800Y6402757D01*
X8835824Y6806077D01*
X8889862Y6936216D01*
X8942757Y6808200D01*
X9346077Y6404176D01*
X9873309Y6185250D01*
X10444187Y6184752D01*
X10971800Y6402757D01*
X11375824Y6806077D01*
X11429862Y6936216D01*
X11482757Y6808200D01*
X11886077Y6404176D01*
X12413309Y6185250D01*
X12984187Y6184752D01*
X13511800Y6402757D01*
X13915824Y6806077D01*
X13969862Y6936216D01*
X14022757Y6808200D01*
X14426077Y6404176D01*
X14953309Y6185250D01*
X15524187Y6184752D01*
X16051800Y6402757D01*
X16455824Y6806077D01*
X16509862Y6936216D01*
X16562757Y6808200D01*
X16966077Y6404176D01*
X17493309Y6185250D01*
X18064187Y6184752D01*
X18591800Y6402757D01*
X18995824Y6806077D01*
X19049862Y6936216D01*
X19102757Y6808200D01*
X19506077Y6404176D01*
X20033309Y6185250D01*
X20604187Y6184752D01*
X21131800Y6402757D01*
X21535824Y6806077D01*
X21589862Y6936216D01*
X21642757Y6808200D01*
X22046077Y6404176D01*
X22573309Y6185250D01*
X23144187Y6184752D01*
X23671800Y6402757D01*
X24075824Y6806077D01*
X24129862Y6936216D01*
X24182757Y6808200D01*
X24586077Y6404176D01*
X25113309Y6185250D01*
X25684187Y6184752D01*
X26211800Y6402757D01*
X26615824Y6806077D01*
X26669862Y6936216D01*
X26722757Y6808200D01*
X27126077Y6404176D01*
X27653309Y6185250D01*
X28224187Y6184752D01*
X28751800Y6402757D01*
X29155824Y6806077D01*
X29209862Y6936216D01*
X29262757Y6808200D01*
X29666077Y6404176D01*
X30193309Y6185250D01*
X30764187Y6184752D01*
X31291800Y6402757D01*
X31695824Y6806077D01*
X31749862Y6936216D01*
X31802757Y6808200D01*
X32206077Y6404176D01*
X32733309Y6185250D01*
X33304187Y6184752D01*
X33831800Y6402757D01*
X34235824Y6806077D01*
X34289862Y6936216D01*
X34342757Y6808200D01*
X34746077Y6404176D01*
X35273309Y6185250D01*
X35844187Y6184752D01*
X36371800Y6402757D01*
X36775824Y6806077D01*
X36829862Y6936216D01*
X36882757Y6808200D01*
X37286077Y6404176D01*
X37813309Y6185250D01*
X38384187Y6184752D01*
X38911800Y6402757D01*
X39315824Y6806077D01*
X39369862Y6936216D01*
X39422757Y6808200D01*
X39826077Y6404176D01*
X40353309Y6185250D01*
X40924187Y6184752D01*
X41451800Y6402757D01*
X41855824Y6806077D01*
X41909862Y6936216D01*
X41962757Y6808200D01*
X42366077Y6404176D01*
X42893309Y6185250D01*
X43464187Y6184752D01*
X43991800Y6402757D01*
X44395824Y6806077D01*
X44449862Y6936216D01*
X44502757Y6808200D01*
X44906077Y6404176D01*
X45433309Y6185250D01*
X46004187Y6184752D01*
X46531800Y6402757D01*
X46935824Y6806077D01*
X46989862Y6936216D01*
X47042757Y6808200D01*
X47446077Y6404176D01*
X47973309Y6185250D01*
X48544187Y6184752D01*
X49071800Y6402757D01*
X49475824Y6806077D01*
X49529862Y6936216D01*
X49582757Y6808200D01*
X49986077Y6404176D01*
X50513309Y6185250D01*
X51084187Y6184752D01*
X51611800Y6402757D01*
X52015824Y6806077D01*
X52069862Y6936216D01*
X52122757Y6808200D01*
X52526077Y6404176D01*
X53053309Y6185250D01*
X53624187Y6184752D01*
X54151800Y6402757D01*
X54555824Y6806077D01*
X54609862Y6936216D01*
X54662757Y6808200D01*
X55066077Y6404176D01*
X55593309Y6185250D01*
X56164187Y6184752D01*
X56691800Y6402757D01*
X57095824Y6806077D01*
X57149862Y6936216D01*
X57202757Y6808200D01*
X57606077Y6404176D01*
X58133309Y6185250D01*
X58704187Y6184752D01*
X59231800Y6402757D01*
X59635824Y6806077D01*
X59689862Y6936216D01*
X59742757Y6808200D01*
X60146077Y6404176D01*
X60673309Y6185250D01*
X61244187Y6184752D01*
X61771800Y6402757D01*
X62175824Y6806077D01*
X62229862Y6936216D01*
X62282757Y6808200D01*
X62686077Y6404176D01*
X63213309Y6185250D01*
X63784187Y6184752D01*
X64311800Y6402757D01*
X64715824Y6806077D01*
X64934750Y7333309D01*
X64935248Y7904187D01*
X64935248Y5734668D01*
X64489391Y5645981D01*
X64036172Y5343149D01*
X63754000Y4920850D01*
X63471828Y5343149D01*
X63018609Y5645981D01*
X62484000Y5752321D01*
X61949391Y5645981D01*
X61496172Y5343149D01*
X61214000Y4920850D01*
X60931828Y5343149D01*
X60478609Y5645981D01*
X59944000Y5752321D01*
X59409391Y5645981D01*
X58956172Y5343149D01*
X58674000Y4920850D01*
X58391828Y5343149D01*
X57938609Y5645981D01*
X57404000Y5752321D01*
X56869391Y5645981D01*
X56416172Y5343149D01*
X56134000Y4920850D01*
X55851828Y5343149D01*
X55398609Y5645981D01*
X54864000Y5752321D01*
X54329391Y5645981D01*
X53876172Y5343149D01*
X53594000Y4920850D01*
X53311828Y5343149D01*
X52858609Y5645981D01*
X52324000Y5752321D01*
X51789391Y5645981D01*
X51336172Y5343149D01*
X51033340Y4889930D01*
X50927000Y4355321D01*
X50927000Y3264679D01*
X51033340Y2730070D01*
X51336172Y2276851D01*
X51789391Y1974019D01*
X52324000Y1867679D01*
X52858609Y1974019D01*
X53311828Y2276851D01*
X53594000Y2699151D01*
X53876172Y2276851D01*
X54329391Y1974019D01*
X54864000Y1867679D01*
X55398609Y1974019D01*
X55851828Y2276851D01*
X56134000Y2699151D01*
X56416172Y2276851D01*
X56869391Y1974019D01*
X57404000Y1867679D01*
X57938609Y1974019D01*
X58391828Y2276851D01*
X58674000Y2699151D01*
X58956172Y2276851D01*
X59409391Y1974019D01*
X59944000Y1867679D01*
X60478609Y1974019D01*
X60931828Y2276851D01*
X61214000Y2699151D01*
X61496172Y2276851D01*
X61949391Y1974019D01*
X62484000Y1867679D01*
X63018609Y1974019D01*
X63471828Y2276851D01*
X63754000Y2699151D01*
X64036172Y2276851D01*
X64489391Y1974019D01*
X65024000Y1867679D01*
X65558609Y1974019D01*
X66011828Y2276851D01*
X66314660Y2730070D01*
X66421000Y3264679D01*
X66421000Y127000D01*
X48641000Y127000D01*
X48641000Y3264679D01*
X48641000Y4355321D01*
X48534660Y4889930D01*
X48231828Y5343149D01*
X47778609Y5645981D01*
X47244000Y5752321D01*
X46709391Y5645981D01*
X46256172Y5343149D01*
X45974000Y4920850D01*
X45691828Y5343149D01*
X45238609Y5645981D01*
X44704000Y5752321D01*
X44169391Y5645981D01*
X43716172Y5343149D01*
X43424670Y4906887D01*
X43406059Y4969941D01*
X43062026Y5395630D01*
X42581277Y5657260D01*
X42507070Y5672220D01*
X42291000Y5549720D01*
X42291000Y3937000D01*
X42311000Y3937000D01*
X42311000Y3683000D01*
X42291000Y3683000D01*
X42291000Y2070280D01*
X42507070Y1947780D01*
X42581277Y1962740D01*
X43062026Y2224370D01*
X43406059Y2650059D01*
X43424670Y2713114D01*
X43716172Y2276851D01*
X44169391Y1974019D01*
X44704000Y1867679D01*
X45238609Y1974019D01*
X45691828Y2276851D01*
X45974000Y2699151D01*
X46256172Y2276851D01*
X46709391Y1974019D01*
X47244000Y1867679D01*
X47778609Y1974019D01*
X48231828Y2276851D01*
X48534660Y2730070D01*
X48641000Y3264679D01*
X48641000Y127000D01*
X42037000Y127000D01*
X42037000Y2070280D01*
X42037000Y3683000D01*
X42017000Y3683000D01*
X42017000Y3937000D01*
X42037000Y3937000D01*
X42037000Y5549720D01*
X41820930Y5672220D01*
X41746723Y5657260D01*
X41265974Y5395630D01*
X40921941Y4969941D01*
X40903329Y4906887D01*
X40611828Y5343149D01*
X40158609Y5645981D01*
X39624000Y5752321D01*
X39089391Y5645981D01*
X38636172Y5343149D01*
X38354000Y4920850D01*
X38071828Y5343149D01*
X37618609Y5645981D01*
X37084000Y5752321D01*
X36549391Y5645981D01*
X36096172Y5343149D01*
X35814000Y4920850D01*
X35531828Y5343149D01*
X35078609Y5645981D01*
X34544000Y5752321D01*
X34009391Y5645981D01*
X33556172Y5343149D01*
X33274000Y4920850D01*
X32991828Y5343149D01*
X32538609Y5645981D01*
X32004000Y5752321D01*
X31469391Y5645981D01*
X31016172Y5343149D01*
X30734000Y4920850D01*
X30451828Y5343149D01*
X29998609Y5645981D01*
X29464000Y5752321D01*
X28929391Y5645981D01*
X28476172Y5343149D01*
X28173340Y4889930D01*
X28067000Y4355321D01*
X28067000Y3264679D01*
X28173340Y2730070D01*
X28476172Y2276851D01*
X28929391Y1974019D01*
X29464000Y1867679D01*
X29998609Y1974019D01*
X30451828Y2276851D01*
X30734000Y2699151D01*
X31016172Y2276851D01*
X31469391Y1974019D01*
X32004000Y1867679D01*
X32538609Y1974019D01*
X32991828Y2276851D01*
X33274000Y2699151D01*
X33556172Y2276851D01*
X34009391Y1974019D01*
X34544000Y1867679D01*
X35078609Y1974019D01*
X35531828Y2276851D01*
X35814000Y2699151D01*
X36096172Y2276851D01*
X36549391Y1974019D01*
X37084000Y1867679D01*
X37618609Y1974019D01*
X38071828Y2276851D01*
X38354000Y2699151D01*
X38636172Y2276851D01*
X39089391Y1974019D01*
X39624000Y1867679D01*
X40158609Y1974019D01*
X40611828Y2276851D01*
X40903329Y2713114D01*
X40921941Y2650059D01*
X41265974Y2224370D01*
X41746723Y1962740D01*
X41820930Y1947780D01*
X42037000Y2070280D01*
X42037000Y127000D01*
X17716885Y127000D01*
X17716885Y4250143D01*
X17379242Y5067300D01*
X16754589Y5693045D01*
X15938022Y6032113D01*
X15053857Y6032885D01*
X14236700Y5695242D01*
X13610955Y5070589D01*
X13271887Y4254022D01*
X13271115Y3369857D01*
X13608758Y2552700D01*
X14233411Y1926955D01*
X15049978Y1587887D01*
X15934143Y1587115D01*
X16751300Y1924758D01*
X17377045Y2549411D01*
X17716113Y3365978D01*
X17716885Y4250143D01*
X17716885Y127000D01*
X127000Y127000D01*
X127000Y54483000D01*
X1270000Y54483000D01*
X68453000Y54483000D01*
X68453000Y41910006D01*
X68452999Y41910000D01*
X68462667Y41861399D01*
X68490197Y41820197D01*
X70993000Y39317395D01*
X70993000Y6388452D01*
M02*
