<?xml version="1.0" standalone="no"?>
<!DOCTYPE svg PUBLIC "-//W3C//DTD SVG 1.1//EN"
"http://www.w3.org/Graphics/SVG/1.1/DTD/svg11.dtd">
<svg width="275.758" height="218.158" viewBox="0 0 5744.96 4544.96" version="1.1"
xmlns="http://www.w3.org/2000/svg"
xmlns:xlink="http://www.w3.org/1999/xlink">
<polyline points="4852.48,3878.9 4842.86,3888.61 4834.32,3898.59 4830.13,3904.63 4826.03,3911.36 4821.41,3919.88 4820.41,3920.96" style="stroke:rgb(255,0,0);stroke-width:157.480315;fill:none;stroke-opacity:0.5;stroke-linecap:round;stroke-linejoin:round;;fill:none"/>
<polyline points="4852.48,3878.9 4842.86,3888.61 4834.32,3898.59 4830.13,3904.63 4826.03,3911.36 4821.41,3919.88 4820.41,3920.96" style="stroke:rgb(0,0,0);stroke-width:1px;fill:none;stroke-opacity:1;stroke-linecap:round;stroke-linejoin:round;;fill:none"/>
<polyline points="4852.48,3773.45 4852.48,3878.9 4861.36,3887.87 4870.65,3898.61 4874.82,3904.64 4878.93,3911.4 4882.83,3918.93 4886.36,3923.15 4895.42,3932.72 4905.94,3942 4912.74,3945.55 4924.84,3950.76 4936.09,3954.49 4945.89,3955.3 4959.06,3955.31 4968.72,3954.52 4976.16,3952.21 4992.22,3945.56 4998.89,3942.08 5009.53,3932.71 5021.41,3919.88 5027.43,3908.15 5029.09,3904.29 5034.64,3888.9 5035.41,3874.58 5034.67,3856.21 5029.09,3840.67 5027.43,3836.81 5022.12,3826.04 5018.6,3821.81 5009.53,3812.25 4999.01,3802.97 4988.21,3797.15 4976.91,3789.23 4970.82,3784.22 4959.01,3772.48 4853.44,3772.48" style="stroke:rgb(255,0,0);stroke-width:157.480315;fill:none;stroke-opacity:0.5;stroke-linecap:round;stroke-linejoin:round;;fill:none"/>
<polyline points="4852.48,3773.45 4852.48,3878.9 4861.36,3887.87 4870.65,3898.61 4874.82,3904.64 4878.93,3911.4 4882.83,3918.93 4886.36,3923.15 4895.42,3932.72 4905.94,3942 4912.74,3945.55 4924.84,3950.76 4936.09,3954.49 4945.89,3955.3 4959.06,3955.31 4968.72,3954.52 4976.16,3952.21 4992.22,3945.56 4998.89,3942.08 5009.53,3932.71 5021.41,3919.88 5027.43,3908.15 5029.09,3904.29 5034.64,3888.9 5035.41,3874.58 5034.67,3856.21 5029.09,3840.67 5027.43,3836.81 5022.12,3826.04 5018.6,3821.81 5009.53,3812.25 4999.01,3802.97 4988.21,3797.15 4976.91,3789.23 4970.82,3784.22 4959.01,3772.48 4853.44,3772.48" style="stroke:rgb(0,0,0);stroke-width:1px;fill:none;stroke-opacity:1;stroke-linecap:round;stroke-linejoin:round;;fill:none"/>
<polyline points="5000.9,3740.31 4998.89,3742.08 4988.25,3747.8 4976.91,3755.74 4970.88,3760.7 4959.01,3772.48" style="stroke:rgb(255,0,0);stroke-width:157.480315;fill:none;stroke-opacity:0.5;stroke-linecap:round;stroke-linejoin:round;;fill:none"/>
<polyline points="5000.9,3740.31 4998.89,3742.08 4988.25,3747.8 4976.91,3755.74 4970.88,3760.7 4959.01,3772.48" style="stroke:rgb(0,0,0);stroke-width:1px;fill:none;stroke-opacity:1;stroke-linecap:round;stroke-linejoin:round;;fill:none"/>
</svg>
