<?xml version="1.0" standalone="no"?>
<!DOCTYPE svg PUBLIC "-//W3C//DTD SVG 1.1//EN"
"http://www.w3.org/Graphics/SVG/1.1/DTD/svg11.dtd">
<svg width="275.758" height="218.158" viewBox="0 0 5744.96 4544.96" version="1.1"
xmlns="http://www.w3.org/2000/svg"
xmlns:xlink="http://www.w3.org/1999/xlink">
<circle cx="352.48" cy="3872.48" r="40" style=""/>
<circle cx="352.48" cy="3672.48" r="40" style=""/>
<circle cx="352.48" cy="3472.48" r="40" style=""/>
<circle cx="552.48" cy="3472.48" r="40" style=""/>
<circle cx="552.48" cy="3672.48" r="40" style=""/>
<circle cx="552.48" cy="3872.48" r="40" style=""/>
<circle cx="752.48" cy="3672.48" r="40" style=""/>
<circle cx="752.48" cy="3472.48" r="40" style=""/>
<circle cx="952.48" cy="3672.48" r="40" style=""/>
<circle cx="752.48" cy="3872.48" r="40" style=""/>
<circle cx="952.48" cy="3872.48" r="40" style=""/>
<circle cx="1152.48" cy="3872.48" r="40" style=""/>
<circle cx="1152.48" cy="3672.48" r="40" style=""/>
<circle cx="1352.48" cy="3672.48" r="40" style=""/>
<circle cx="1352.48" cy="3872.48" r="40" style=""/>
<circle cx="1552.48" cy="3672.48" r="40" style=""/>
<circle cx="1552.48" cy="3872.48" r="40" style=""/>
<circle cx="1752.48" cy="3672.48" r="40" style=""/>
<circle cx="1752.48" cy="3872.48" r="40" style=""/>
<circle cx="1952.48" cy="3672.48" r="40" style=""/>
<circle cx="1952.48" cy="3872.48" r="40" style=""/>
<circle cx="2152.48" cy="3672.48" r="40" style=""/>
<circle cx="2152.48" cy="3472.48" r="40" style=""/>
<circle cx="1952.48" cy="3472.48" r="40" style=""/>
<circle cx="1752.48" cy="3472.48" r="40" style=""/>
<circle cx="1552.48" cy="3472.48" r="40" style=""/>
<circle cx="1352.48" cy="3472.48" r="40" style=""/>
<circle cx="1552.48" cy="3272.48" r="40" style=""/>
<circle cx="1752.48" cy="3072.48" r="40" style=""/>
<circle cx="1752.48" cy="2872.48" r="40" style=""/>
<circle cx="1752.48" cy="2672.48" r="40" style=""/>
<circle cx="1552.48" cy="2472.48" r="40" style=""/>
<circle cx="1352.48" cy="2472.48" r="40" style=""/>
<circle cx="1352.48" cy="2672.48" r="40" style=""/>
<circle cx="1352.48" cy="2872.48" r="40" style=""/>
<circle cx="1552.48" cy="2672.48" r="40" style=""/>
<circle cx="1552.48" cy="2872.48" r="40" style=""/>
<circle cx="1552.48" cy="3072.48" r="40" style=""/>
<circle cx="1352.48" cy="3272.48" r="40" style=""/>
<circle cx="1352.48" cy="3072.48" r="40" style=""/>
<circle cx="1152.48" cy="2872.48" r="40" style=""/>
<circle cx="1152.48" cy="3072.48" r="40" style=""/>
<circle cx="1152.48" cy="3272.48" r="40" style=""/>
<circle cx="952.48" cy="3472.48" r="40" style=""/>
<circle cx="1152.48" cy="3472.48" r="40" style=""/>
<circle cx="952.48" cy="3272.48" r="40" style=""/>
<circle cx="752.48" cy="3072.48" r="40" style=""/>
<circle cx="552.48" cy="3272.48" r="40" style=""/>
<circle cx="352.48" cy="3272.48" r="40" style=""/>
<circle cx="352.48" cy="3072.48" r="40" style=""/>
<circle cx="552.48" cy="2872.48" r="40" style=""/>
<circle cx="552.48" cy="2672.48" r="40" style=""/>
<circle cx="552.48" cy="2472.48" r="40" style=""/>
<circle cx="352.48" cy="2472.48" r="40" style=""/>
<circle cx="352.48" cy="2672.48" r="40" style=""/>
<circle cx="352.48" cy="2872.48" r="40" style=""/>
<circle cx="552.48" cy="3072.48" r="40" style=""/>
<circle cx="752.48" cy="3272.48" r="40" style=""/>
<circle cx="952.48" cy="3072.48" r="40" style=""/>
<circle cx="752.48" cy="2872.48" r="40" style=""/>
<circle cx="752.48" cy="2672.48" r="40" style=""/>
<circle cx="752.48" cy="2472.48" r="40" style=""/>
<circle cx="952.48" cy="2472.48" r="40" style=""/>
<circle cx="952.48" cy="2672.48" r="40" style=""/>
<circle cx="952.48" cy="2872.48" r="40" style=""/>
<circle cx="1152.48" cy="2672.48" r="40" style=""/>
<circle cx="1152.48" cy="2472.48" r="40" style=""/>
<circle cx="1352.48" cy="2272.48" r="40" style=""/>
<circle cx="1552.48" cy="2272.48" r="40" style=""/>
<circle cx="1752.48" cy="2272.48" r="40" style=""/>
<circle cx="1952.48" cy="2272.48" r="40" style=""/>
<circle cx="1752.48" cy="2472.48" r="40" style=""/>
<circle cx="1952.48" cy="2472.48" r="40" style=""/>
<circle cx="2152.48" cy="2272.48" r="40" style=""/>
<circle cx="2152.48" cy="2072.48" r="40" style=""/>
<circle cx="1952.48" cy="2072.48" r="40" style=""/>
<circle cx="1752.48" cy="2072.48" r="40" style=""/>
<circle cx="1552.48" cy="2072.48" r="40" style=""/>
<circle cx="1352.48" cy="2072.48" r="40" style=""/>
<circle cx="1152.48" cy="2272.48" r="40" style=""/>
<circle cx="952.48" cy="2272.48" r="40" style=""/>
<circle cx="752.48" cy="2272.48" r="40" style=""/>
<circle cx="552.48" cy="2272.48" r="40" style=""/>
<circle cx="352.48" cy="2272.48" r="40" style=""/>
<circle cx="352.48" cy="2072.48" r="40" style=""/>
<circle cx="552.48" cy="2072.48" r="40" style=""/>
<circle cx="752.48" cy="2072.48" r="40" style=""/>
<circle cx="952.48" cy="2072.48" r="40" style=""/>
<circle cx="1152.48" cy="2072.48" r="40" style=""/>
<circle cx="952.48" cy="1872.48" r="40" style=""/>
<circle cx="952.48" cy="1672.48" r="40" style=""/>
<circle cx="752.48" cy="1672.48" r="40" style=""/>
<circle cx="752.48" cy="1872.48" r="40" style=""/>
<circle cx="552.48" cy="1672.48" r="40" style=""/>
<circle cx="552.48" cy="1872.48" r="40" style=""/>
<circle cx="352.48" cy="1872.48" r="40" style=""/>
<circle cx="352.48" cy="1672.48" r="40" style=""/>
<circle cx="352.48" cy="1472.48" r="40" style=""/>
<circle cx="352.48" cy="1272.48" r="40" style=""/>
<circle cx="552.48" cy="1272.48" r="40" style=""/>
<circle cx="552.48" cy="1472.48" r="40" style=""/>
<circle cx="752.48" cy="1272.48" r="40" style=""/>
<circle cx="752.48" cy="1472.48" r="40" style=""/>
<circle cx="952.48" cy="1272.48" r="40" style=""/>
<circle cx="952.48" cy="1472.48" r="40" style=""/>
<circle cx="1152.48" cy="1272.48" r="40" style=""/>
<circle cx="1152.48" cy="1472.48" r="40" style=""/>
<circle cx="1152.48" cy="1672.48" r="40" style=""/>
<circle cx="1152.48" cy="1872.48" r="40" style=""/>
<circle cx="1352.48" cy="1672.48" r="40" style=""/>
<circle cx="1352.48" cy="1872.48" r="40" style=""/>
<circle cx="1552.48" cy="1672.48" r="40" style=""/>
<circle cx="1552.48" cy="1872.48" r="40" style=""/>
<circle cx="1752.48" cy="1672.48" r="40" style=""/>
<circle cx="1752.48" cy="1872.48" r="40" style=""/>
<circle cx="1952.48" cy="1872.48" r="40" style=""/>
<circle cx="1952.48" cy="1672.48" r="40" style=""/>
<circle cx="2152.48" cy="1872.48" r="40" style=""/>
<circle cx="2152.48" cy="1672.48" r="40" style=""/>
<circle cx="2352.48" cy="1472.48" r="40" style=""/>
<circle cx="2552.48" cy="1272.48" r="40" style=""/>
<circle cx="2552.48" cy="1472.48" r="40" style=""/>
<circle cx="2752.48" cy="1272.48" r="40" style=""/>
<circle cx="2752.48" cy="1472.48" r="40" style=""/>
<circle cx="2952.48" cy="1272.48" r="40" style=""/>
<circle cx="2952.48" cy="1472.48" r="40" style=""/>
<circle cx="3152.48" cy="1272.48" r="40" style=""/>
<circle cx="3152.48" cy="1472.48" r="40" style=""/>
<circle cx="3352.48" cy="1272.48" r="40" style=""/>
<circle cx="3352.48" cy="1472.48" r="40" style=""/>
<circle cx="2952.48" cy="1072.48" r="40" style=""/>
<circle cx="2752.48" cy="872.48" r="40" style=""/>
<circle cx="2752.48" cy="1072.48" r="40" style=""/>
<circle cx="2952.48" cy="872.48" r="40" style=""/>
<circle cx="3152.48" cy="1072.48" r="40" style=""/>
<circle cx="3352.48" cy="872.48" r="40" style=""/>
<circle cx="3352.48" cy="1072.48" r="40" style=""/>
<circle cx="3152.48" cy="872.48" r="40" style=""/>
<circle cx="3352.48" cy="672.48" r="40" style=""/>
<circle cx="3152.48" cy="672.48" r="40" style=""/>
<circle cx="2952.48" cy="672.48" r="40" style=""/>
<circle cx="2752.48" cy="672.48" r="40" style=""/>
<circle cx="2552.48" cy="672.48" r="40" style=""/>
<circle cx="2352.48" cy="672.48" r="40" style=""/>
<circle cx="2152.48" cy="672.48" r="40" style=""/>
<circle cx="1952.48" cy="672.48" r="40" style=""/>
<circle cx="1752.48" cy="672.48" r="40" style=""/>
<circle cx="1552.48" cy="672.48" r="40" style=""/>
<circle cx="1552.48" cy="872.48" r="40" style=""/>
<circle cx="1752.48" cy="1072.48" r="40" style=""/>
<circle cx="1752.48" cy="872.48" r="40" style=""/>
<circle cx="1952.48" cy="1072.48" r="40" style=""/>
<circle cx="1952.48" cy="872.48" r="40" style=""/>
<circle cx="2152.48" cy="872.48" r="40" style=""/>
<circle cx="2152.48" cy="1072.48" r="40" style=""/>
<circle cx="2352.48" cy="872.48" r="40" style=""/>
<circle cx="2352.48" cy="1072.48" r="40" style=""/>
<circle cx="2552.48" cy="872.48" r="40" style=""/>
<circle cx="2552.48" cy="1072.48" r="40" style=""/>
<circle cx="2352.48" cy="1272.48" r="40" style=""/>
<circle cx="2152.48" cy="1472.48" r="40" style=""/>
<circle cx="2152.48" cy="1272.48" r="40" style=""/>
<circle cx="1952.48" cy="1472.48" r="40" style=""/>
<circle cx="1952.48" cy="1272.48" r="40" style=""/>
<circle cx="1752.48" cy="1472.48" r="40" style=""/>
<circle cx="1752.48" cy="1272.48" r="40" style=""/>
<circle cx="1552.48" cy="1472.48" r="40" style=""/>
<circle cx="1552.48" cy="1272.48" r="40" style=""/>
<circle cx="1352.48" cy="1472.48" r="40" style=""/>
<circle cx="1352.48" cy="1272.48" r="40" style=""/>
<circle cx="1552.48" cy="1072.48" r="40" style=""/>
<circle cx="1352.48" cy="872.48" r="40" style=""/>
<circle cx="1352.48" cy="1072.48" r="40" style=""/>
<circle cx="1152.48" cy="872.48" r="40" style=""/>
<circle cx="1152.48" cy="1072.48" r="40" style=""/>
<circle cx="952.48" cy="872.48" r="40" style=""/>
<circle cx="952.48" cy="1072.48" r="40" style=""/>
<circle cx="752.48" cy="872.48" r="40" style=""/>
<circle cx="752.48" cy="1072.48" r="40" style=""/>
<circle cx="552.48" cy="872.48" r="40" style=""/>
<circle cx="552.48" cy="1072.48" r="40" style=""/>
<circle cx="352.48" cy="1072.48" r="40" style=""/>
<circle cx="352.48" cy="872.48" r="40" style=""/>
<circle cx="352.48" cy="672.48" r="40" style=""/>
<circle cx="552.48" cy="672.48" r="40" style=""/>
<circle cx="752.48" cy="672.48" r="40" style=""/>
<circle cx="952.48" cy="672.48" r="40" style=""/>
<circle cx="1152.48" cy="672.48" r="40" style=""/>
<circle cx="1352.48" cy="672.48" r="40" style=""/>
<circle cx="1652.48" cy="372.48" r="40" style=""/>
<circle cx="1852.48" cy="372.48" r="40" style=""/>
<circle cx="2052.48" cy="372.48" r="40" style=""/>
<circle cx="2252.48" cy="372.48" r="40" style=""/>
<circle cx="2452.48" cy="372.48" r="40" style=""/>
<circle cx="2652.48" cy="372.48" r="40" style=""/>
<circle cx="2852.48" cy="372.48" r="40" style=""/>
<circle cx="3052.48" cy="372.48" r="40" style=""/>
<circle cx="3252.48" cy="372.48" r="40" style=""/>
<circle cx="3452.48" cy="372.48" r="40" style=""/>
<circle cx="3552.48" cy="672.48" r="40" style=""/>
<circle cx="3752.48" cy="672.48" r="40" style=""/>
<circle cx="3952.48" cy="672.48" r="40" style=""/>
<circle cx="3772.48" cy="372.48" r="40" style=""/>
<circle cx="3972.48" cy="372.48" r="40" style=""/>
<circle cx="4172.48" cy="372.48" r="40" style=""/>
<circle cx="4372.48" cy="372.48" r="40" style=""/>
<circle cx="4572.48" cy="372.48" r="40" style=""/>
<circle cx="4772.48" cy="372.48" r="40" style=""/>
<circle cx="4972.48" cy="372.48" r="40" style=""/>
<circle cx="5172.48" cy="372.48" r="40" style=""/>
<circle cx="4952.48" cy="672.48" r="40" style=""/>
<circle cx="4752.48" cy="672.48" r="40" style=""/>
<circle cx="4952.48" cy="872.48" r="40" style=""/>
<circle cx="4952.48" cy="1072.48" r="40" style=""/>
<circle cx="4952.48" cy="1272.48" r="40" style=""/>
<circle cx="4952.48" cy="1472.48" r="40" style=""/>
<circle cx="4952.48" cy="1672.48" r="40" style=""/>
<circle cx="4952.48" cy="1872.48" r="40" style=""/>
<circle cx="5172.48" cy="1972.48" r="40" style=""/>
<circle cx="5372.48" cy="1972.48" r="40" style=""/>
<circle cx="5372.48" cy="2172.48" r="40" style=""/>
<circle cx="5172.48" cy="2372.48" r="40" style=""/>
<circle cx="5372.48" cy="2372.48" r="40" style=""/>
<circle cx="5172.48" cy="2172.48" r="40" style=""/>
<circle cx="4952.48" cy="2072.48" r="40" style=""/>
<circle cx="4952.48" cy="2272.48" r="40" style=""/>
<circle cx="4952.48" cy="2472.48" r="40" style=""/>
<circle cx="4952.48" cy="2672.48" r="40" style=""/>
<circle cx="4952.48" cy="2872.48" r="40" style=""/>
<circle cx="4952.48" cy="3072.48" r="40" style=""/>
<circle cx="4952.48" cy="3272.48" r="40" style=""/>
<circle cx="4952.48" cy="3472.48" r="40" style=""/>
<circle cx="4952.48" cy="3672.48" r="40" style=""/>
<circle cx="4952.48" cy="3872.48" r="40" style=""/>
<circle cx="5172.48" cy="4172.48" r="40" style=""/>
<circle cx="4972.48" cy="4172.48" r="40" style=""/>
<circle cx="4772.48" cy="4172.48" r="40" style=""/>
<circle cx="4572.48" cy="4172.48" r="40" style=""/>
<circle cx="4372.48" cy="4172.48" r="40" style=""/>
<circle cx="4172.48" cy="4172.48" r="40" style=""/>
<circle cx="3772.48" cy="4172.48" r="40" style=""/>
<circle cx="3572.48" cy="4172.48" r="40" style=""/>
<circle cx="3372.48" cy="4172.48" r="40" style=""/>
<circle cx="3172.48" cy="4172.48" r="40" style=""/>
<circle cx="2972.48" cy="4172.48" r="40" style=""/>
<circle cx="2772.48" cy="4172.48" r="40" style=""/>
<circle cx="2572.48" cy="4172.48" r="40" style=""/>
<circle cx="2372.48" cy="4172.48" r="40" style=""/>
<circle cx="2152.48" cy="3872.48" r="40" style=""/>
<circle cx="2552.48" cy="3472.48" r="40" style=""/>
<circle cx="2352.48" cy="3472.48" r="40" style=""/>
<circle cx="2552.48" cy="3672.48" r="40" style=""/>
<circle cx="2352.48" cy="3672.48" r="40" style=""/>
<circle cx="2352.48" cy="3872.48" r="40" style=""/>
<circle cx="2552.48" cy="3872.48" r="40" style=""/>
<circle cx="2752.48" cy="3872.48" r="40" style=""/>
<circle cx="2952.48" cy="3872.48" r="40" style=""/>
<circle cx="3152.48" cy="3672.48" r="40" style=""/>
<circle cx="3352.48" cy="3672.48" r="40" style=""/>
<circle cx="3152.48" cy="3472.48" r="40" style=""/>
<circle cx="3352.48" cy="3472.48" r="40" style=""/>
<circle cx="3152.48" cy="3272.48" r="40" style=""/>
<circle cx="3352.48" cy="3272.48" r="40" style=""/>
<circle cx="3152.48" cy="3072.48" r="40" style=""/>
<circle cx="3352.48" cy="3072.48" r="40" style=""/>
<circle cx="3152.48" cy="2872.48" r="40" style=""/>
<circle cx="3352.48" cy="2872.48" r="40" style=""/>
<circle cx="3152.48" cy="2672.48" r="40" style=""/>
<circle cx="3352.48" cy="2672.48" r="40" style=""/>
<circle cx="3152.48" cy="2472.48" r="40" style=""/>
<circle cx="3352.48" cy="2472.48" r="40" style=""/>
<circle cx="3152.48" cy="2272.48" r="40" style=""/>
<circle cx="3352.48" cy="2272.48" r="40" style=""/>
<circle cx="3152.48" cy="2072.48" r="40" style=""/>
<circle cx="3352.48" cy="2072.48" r="40" style=""/>
<circle cx="3152.48" cy="1872.48" r="40" style=""/>
<circle cx="3152.48" cy="1672.48" r="40" style=""/>
<circle cx="3352.48" cy="1672.48" r="40" style=""/>
<circle cx="3352.48" cy="1872.48" r="40" style=""/>
<circle cx="3552.48" cy="1672.48" r="40" style=""/>
<circle cx="3552.48" cy="1872.48" r="40" style=""/>
<circle cx="3752.48" cy="1672.48" r="40" style=""/>
<circle cx="3752.48" cy="1872.48" r="40" style=""/>
<circle cx="3552.48" cy="2072.48" r="40" style=""/>
<circle cx="3752.48" cy="2072.48" r="40" style=""/>
<circle cx="3552.48" cy="2272.48" r="40" style=""/>
<circle cx="3752.48" cy="2272.48" r="40" style=""/>
<circle cx="3552.48" cy="2472.48" r="40" style=""/>
<circle cx="3752.48" cy="2472.48" r="40" style=""/>
<circle cx="3552.48" cy="2672.48" r="40" style=""/>
<circle cx="3752.48" cy="2672.48" r="40" style=""/>
<circle cx="3552.48" cy="2872.48" r="40" style=""/>
<circle cx="3752.48" cy="2872.48" r="40" style=""/>
<circle cx="3552.48" cy="3072.48" r="40" style=""/>
<circle cx="3752.48" cy="3072.48" r="40" style=""/>
<circle cx="3552.48" cy="3272.48" r="40" style=""/>
<circle cx="3752.48" cy="3272.48" r="40" style=""/>
<circle cx="3552.48" cy="3472.48" r="40" style=""/>
<circle cx="3752.48" cy="3472.48" r="40" style=""/>
<circle cx="3952.48" cy="3472.48" r="40" style=""/>
<circle cx="3952.48" cy="3272.48" r="40" style=""/>
<circle cx="3952.48" cy="3072.48" r="40" style=""/>
<circle cx="3952.48" cy="2872.48" r="40" style=""/>
<circle cx="3952.48" cy="2672.48" r="40" style=""/>
<circle cx="3952.48" cy="2472.48" r="40" style=""/>
<circle cx="3952.48" cy="2272.48" r="40" style=""/>
<circle cx="3952.48" cy="2072.48" r="40" style=""/>
<circle cx="3952.48" cy="1872.48" r="40" style=""/>
<circle cx="3952.48" cy="1672.48" r="40" style=""/>
<circle cx="3752.48" cy="1472.48" r="40" style=""/>
<circle cx="3552.48" cy="1272.48" r="40" style=""/>
<circle cx="3552.48" cy="1472.48" r="40" style=""/>
<circle cx="3752.48" cy="1272.48" r="40" style=""/>
<circle cx="3552.48" cy="1072.48" r="40" style=""/>
<circle cx="3552.48" cy="872.48" r="40" style=""/>
<circle cx="3752.48" cy="872.48" r="40" style=""/>
<circle cx="3752.48" cy="1072.48" r="40" style=""/>
<circle cx="3952.48" cy="872.48" r="40" style=""/>
<circle cx="3952.48" cy="1072.48" r="40" style=""/>
<circle cx="3952.48" cy="1272.48" r="40" style=""/>
<circle cx="3952.48" cy="1472.48" r="40" style=""/>
<circle cx="4152.48" cy="1272.48" r="40" style=""/>
<circle cx="4352.48" cy="1272.48" r="40" style=""/>
<circle cx="4152.48" cy="1472.48" r="40" style=""/>
<circle cx="4352.48" cy="1472.48" r="40" style=""/>
<circle cx="4152.48" cy="1672.48" r="40" style=""/>
<circle cx="4352.48" cy="1672.48" r="40" style=""/>
<circle cx="4152.48" cy="1872.48" r="40" style=""/>
<circle cx="4352.48" cy="1872.48" r="40" style=""/>
<circle cx="4152.48" cy="2072.48" r="40" style=""/>
<circle cx="4352.48" cy="2072.48" r="40" style=""/>
<circle cx="4152.48" cy="2272.48" r="40" style=""/>
<circle cx="4352.48" cy="2272.48" r="40" style=""/>
<circle cx="4152.48" cy="2472.48" r="40" style=""/>
<circle cx="4352.48" cy="2472.48" r="40" style=""/>
<circle cx="4152.48" cy="2672.48" r="40" style=""/>
<circle cx="4352.48" cy="2672.48" r="40" style=""/>
<circle cx="4152.48" cy="2872.48" r="40" style=""/>
<circle cx="4352.48" cy="2872.48" r="40" style=""/>
<circle cx="4152.48" cy="3072.48" r="40" style=""/>
<circle cx="4352.48" cy="3072.48" r="40" style=""/>
<circle cx="4152.48" cy="3272.48" r="40" style=""/>
<circle cx="4352.48" cy="3272.48" r="40" style=""/>
<circle cx="4152.48" cy="3472.48" r="40" style=""/>
<circle cx="4352.48" cy="3472.48" r="40" style=""/>
<circle cx="4152.48" cy="3672.48" r="40" style=""/>
<circle cx="4352.48" cy="3672.48" r="40" style=""/>
<circle cx="4552.48" cy="3872.48" r="40" style=""/>
<circle cx="4752.48" cy="3872.48" r="40" style=""/>
<circle cx="4752.48" cy="3672.48" r="40" style=""/>
<circle cx="4752.48" cy="3472.48" r="40" style=""/>
<circle cx="4752.48" cy="3272.48" r="40" style=""/>
<circle cx="4752.48" cy="3072.48" r="40" style=""/>
<circle cx="4752.48" cy="2872.48" r="40" style=""/>
<circle cx="4752.48" cy="2672.48" r="40" style=""/>
<circle cx="4752.48" cy="2472.48" r="40" style=""/>
<circle cx="4752.48" cy="2272.48" r="40" style=""/>
<circle cx="4752.48" cy="2072.48" r="40" style=""/>
<circle cx="4752.48" cy="1872.48" r="40" style=""/>
<circle cx="4752.48" cy="1672.48" r="40" style=""/>
<circle cx="4752.48" cy="1472.48" r="40" style=""/>
<circle cx="4752.48" cy="1272.48" r="40" style=""/>
<circle cx="4752.48" cy="1072.48" r="40" style=""/>
<circle cx="4752.48" cy="872.48" r="40" style=""/>
<circle cx="4552.48" cy="1072.48" r="40" style=""/>
<circle cx="4552.48" cy="872.48" r="40" style=""/>
<circle cx="4552.48" cy="672.48" r="40" style=""/>
<circle cx="4352.48" cy="672.48" r="40" style=""/>
<circle cx="4152.48" cy="672.48" r="40" style=""/>
<circle cx="4352.48" cy="872.48" r="40" style=""/>
<circle cx="4152.48" cy="872.48" r="40" style=""/>
<circle cx="4152.48" cy="1072.48" r="40" style=""/>
<circle cx="4352.48" cy="1072.48" r="40" style=""/>
<circle cx="4552.48" cy="1272.48" r="40" style=""/>
<circle cx="4552.48" cy="1472.48" r="40" style=""/>
<circle cx="4552.48" cy="1672.48" r="40" style=""/>
<circle cx="4552.48" cy="1872.48" r="40" style=""/>
<circle cx="4552.48" cy="2072.48" r="40" style=""/>
<circle cx="4552.48" cy="2272.48" r="40" style=""/>
<circle cx="4552.48" cy="2472.48" r="40" style=""/>
<circle cx="4552.48" cy="2672.48" r="40" style=""/>
<circle cx="4552.48" cy="2872.48" r="40" style=""/>
<circle cx="4552.48" cy="3072.48" r="40" style=""/>
<circle cx="4552.48" cy="3272.48" r="40" style=""/>
<circle cx="4552.48" cy="3472.48" r="40" style=""/>
<circle cx="4552.48" cy="3672.48" r="40" style=""/>
<circle cx="4352.48" cy="3872.48" r="40" style=""/>
<circle cx="4152.48" cy="3872.48" r="40" style=""/>
<circle cx="3952.48" cy="3872.48" r="40" style=""/>
<circle cx="3952.48" cy="3672.48" r="40" style=""/>
<circle cx="3752.48" cy="3872.48" r="40" style=""/>
<circle cx="3552.48" cy="3872.48" r="40" style=""/>
<circle cx="3752.48" cy="3672.48" r="40" style=""/>
<circle cx="3552.48" cy="3672.48" r="40" style=""/>
<circle cx="3352.48" cy="3872.48" r="40" style=""/>
<circle cx="3152.48" cy="3872.48" r="40" style=""/>
<circle cx="2952.48" cy="3672.48" r="40" style=""/>
<circle cx="2752.48" cy="3672.48" r="40" style=""/>
<circle cx="2952.48" cy="3472.48" r="40" style=""/>
<circle cx="2752.48" cy="3472.48" r="40" style=""/>
<circle cx="2952.48" cy="3272.48" r="40" style=""/>
<circle cx="2752.48" cy="3272.48" r="40" style=""/>
<circle cx="2952.48" cy="3072.48" r="40" style=""/>
<circle cx="2752.48" cy="3072.48" r="40" style=""/>
<circle cx="2952.48" cy="2872.48" r="40" style=""/>
<circle cx="2752.48" cy="2872.48" r="40" style=""/>
<circle cx="2952.48" cy="2672.48" r="40" style=""/>
<circle cx="2752.48" cy="2672.48" r="40" style=""/>
<circle cx="2952.48" cy="2472.48" r="40" style=""/>
<circle cx="2752.48" cy="2472.48" r="40" style=""/>
<circle cx="2952.48" cy="2272.48" r="40" style=""/>
<circle cx="2752.48" cy="2272.48" r="40" style=""/>
<circle cx="2952.48" cy="2072.48" r="40" style=""/>
<circle cx="2752.48" cy="2072.48" r="40" style=""/>
<circle cx="2952.48" cy="1872.48" r="40" style=""/>
<circle cx="2952.48" cy="1672.48" r="40" style=""/>
<circle cx="2752.48" cy="1872.48" r="40" style=""/>
<circle cx="2752.48" cy="1672.48" r="40" style=""/>
<circle cx="2552.48" cy="1872.48" r="40" style=""/>
<circle cx="2552.48" cy="1672.48" r="40" style=""/>
<circle cx="2352.48" cy="1672.48" r="40" style=""/>
<circle cx="2352.48" cy="1872.48" r="40" style=""/>
<circle cx="2552.48" cy="2072.48" r="40" style=""/>
<circle cx="2352.48" cy="2072.48" r="40" style=""/>
<circle cx="2552.48" cy="2272.48" r="40" style=""/>
<circle cx="2352.48" cy="2272.48" r="40" style=""/>
<circle cx="2552.48" cy="2472.48" r="40" style=""/>
<circle cx="2352.48" cy="2472.48" r="40" style=""/>
<circle cx="2552.48" cy="2672.48" r="40" style=""/>
<circle cx="2352.48" cy="2672.48" r="40" style=""/>
<circle cx="2552.48" cy="2872.48" r="40" style=""/>
<circle cx="2352.48" cy="2872.48" r="40" style=""/>
<circle cx="2552.48" cy="3072.48" r="40" style=""/>
<circle cx="2352.48" cy="3072.48" r="40" style=""/>
<circle cx="2552.48" cy="3272.48" r="40" style=""/>
<circle cx="2352.48" cy="3272.48" r="40" style=""/>
<circle cx="2152.48" cy="3272.48" r="40" style=""/>
<circle cx="1952.48" cy="3272.48" r="40" style=""/>
<circle cx="2152.48" cy="3072.48" r="40" style=""/>
<circle cx="2152.48" cy="2872.48" r="40" style=""/>
<circle cx="2152.48" cy="2672.48" r="40" style=""/>
<circle cx="2152.48" cy="2472.48" r="40" style=""/>
<circle cx="1952.48" cy="2672.48" r="40" style=""/>
<circle cx="1952.48" cy="2872.48" r="40" style=""/>
<circle cx="1952.48" cy="3072.48" r="40" style=""/>
<circle cx="1752.48" cy="3272.48" r="40" style=""/>
</svg>
