<?xml version="1.0" standalone="no"?>
<!DOCTYPE svg PUBLIC "-//W3C//DTD SVG 1.1//EN"
"http://www.w3.org/Graphics/SVG/1.1/DTD/svg11.dtd">
<svg width="275.758" height="218.158" viewBox="0 0 5744.96 4544.96" version="1.1"
xmlns="http://www.w3.org/2000/svg"
xmlns:xlink="http://www.w3.org/1999/xlink">
<g fill-rule="evenodd"><path d="M 1.13687e-13,4544.96 L 1.13687e-13,-9.09495e-13 L 5744.96,-9.09495e-13 L 5744.96,4544.96 L 1.13687e-13,4544.96 z " style="fill-opacity:0.200000;fill:rgb(103,198,105);"/></g>
<polyline points="93.7383,4372.48 95.2523,4387.84 99.7323,4402.61 107.008,4416.23 116.802,4428.16 128.734,4437.95 142.346,4445.23 157.118,4449.71 172.48,4451.22 5372.48,4451.22 5387.84,4449.71 5402.61,4445.23 5416.22,4437.95 5428.16,4428.16 5437.95,4416.23 5445.23,4402.61 5449.71,4387.84 5451.22,4372.48 5451.22,4205.1 5628.16,4028.16 5637.95,4016.23 5645.23,4002.61 5649.71,3987.84 5651.22,3972.48 5651.22,1372.48 5649.71,1357.12 5645.23,1342.35 5637.95,1328.74 5628.16,1316.8 5451.22,1139.87 5451.22,272.48 5449.71,257.12 5445.23,242.348 5437.95,228.736 5428.16,216.804 5328.16,116.804 5316.22,107.01 5302.61,99.7343 5287.84,95.2543 5272.48,93.7403 172.48,93.7403 157.118,95.2543 142.346,99.7343 128.734,107.01 116.802,116.804 107.008,128.736 99.7323,142.348 95.2523,157.12 93.7383,172.48 93.7383,4372.48" style="stroke:rgb(103,198,105);stroke-width:157.480315;fill:none;stroke-opacity:0.5;stroke-linecap:round;stroke-linejoin:round;;fill:none"/>
<polyline points="93.7383,4372.48 95.2523,4387.84 99.7323,4402.61 107.008,4416.23 116.802,4428.16 128.734,4437.95 142.346,4445.23 157.118,4449.71 172.48,4451.22 5372.48,4451.22 5387.84,4449.71 5402.61,4445.23 5416.22,4437.95 5428.16,4428.16 5437.95,4416.23 5445.23,4402.61 5449.71,4387.84 5451.22,4372.48 5451.22,4205.1 5628.16,4028.16 5637.95,4016.23 5645.23,4002.61 5649.71,3987.84 5651.22,3972.48 5651.22,1372.48 5649.71,1357.12 5645.23,1342.35 5637.95,1328.74 5628.16,1316.8 5451.22,1139.87 5451.22,272.48 5449.71,257.12 5445.23,242.348 5437.95,228.736 5428.16,216.804 5328.16,116.804 5316.22,107.01 5302.61,99.7343 5287.84,95.2543 5272.48,93.7403 172.48,93.7403 157.118,95.2543 142.346,99.7343 128.734,107.01 116.802,116.804 107.008,128.736 99.7323,142.348 95.2523,157.12 93.7383,172.48 93.7383,4372.48" style="stroke:rgb(0,0,0);stroke-width:1px;fill:none;stroke-opacity:1;stroke-linecap:round;stroke-linejoin:round;;fill:none"/>
<g fill-rule="evenodd"><path d="M 172.48,4372.48 L 172.48,172.48 L 5272.48,172.48 L 5372.48,272.48 L 5372.48,1172.48 L 5572.48,1372.48 L 5572.48,3972.48 L 5372.48,4172.48 L 5372.48,4372.48 L 172.48,4372.48 z " style="fill-opacity:1.000000;fill:rgb(103,198,105);stroke:rgb(0,0,0);stroke-width:2"/></g>
</svg>
